<?xml version="1.0" encoding="UTF-8" standalone="no"?>
<!-- Generator: Adobe Illustrator 18.0.0, SVG Export Plug-In . SVG Version: 6.00 Build 0)  -->

<svg
   xmlns:dc="http://purl.org/dc/elements/1.1/"
   xmlns:cc="http://creativecommons.org/ns#"
   xmlns:rdf="http://www.w3.org/1999/02/22-rdf-syntax-ns#"
   xmlns:svg="http://www.w3.org/2000/svg"
   xmlns="http://www.w3.org/2000/svg"
   xmlns:sodipodi="http://sodipodi.sourceforge.net/DTD/sodipodi-0.dtd"
   xmlns:inkscape="http://www.inkscape.org/namespaces/inkscape"
   version="1.1"
   id="Capa_1"
   x="0px"
   y="0px"
   viewBox="0 0 399.99999 399.99999"
   xml:space="preserve"
   inkscape:version="0.91 r13725"
   sodipodi:docname="apple.svg"
   width="400"
   height="400"><metadata
     id="metadata4446"><rdf:RDF><cc:Work
         rdf:about=""><dc:format>image/svg+xml</dc:format><dc:type
           rdf:resource="http://purl.org/dc/dcmitype/StillImage" /><dc:title></dc:title></cc:Work></rdf:RDF></metadata><defs
     id="defs4444" /><sodipodi:namedview
     pagecolor="#ffffff"
     bordercolor="#666666"
     borderopacity="1"
     objecttolerance="10"
     gridtolerance="10"
     guidetolerance="10"
     inkscape:pageopacity="0"
     inkscape:pageshadow="2"
     inkscape:window-width="1280"
     inkscape:window-height="666"
     id="namedview4442"
     showgrid="false"
     inkscape:zoom="0.6850488"
     inkscape:cx="172.2505"
     inkscape:cy="172.2505"
     inkscape:window-x="-8"
     inkscape:window-y="-8"
     inkscape:window-maximized="1"
     inkscape:current-layer="layer5" /><g
     id="g4412"
     transform="translate(0,55.498993)" /><g
     id="g4414"
     transform="translate(0,55.498993)" /><g
     id="g4416"
     transform="translate(0,55.498993)" /><g
     id="g4418"
     transform="translate(0,55.498993)" /><g
     id="g4420"
     transform="translate(0,55.498993)" /><g
     id="g4422"
     transform="translate(0,55.498993)" /><g
     id="g4424"
     transform="translate(0,55.498993)" /><g
     id="g4426"
     transform="translate(0,55.498993)" /><g
     id="g4428"
     transform="translate(0,55.498993)" /><g
     id="g4430"
     transform="translate(0,55.498993)" /><g
     id="g4432"
     transform="translate(0,55.498993)" /><g
     id="g4434"
     transform="translate(0,55.498993)" /><g
     id="g4436"
     transform="translate(0,55.498993)" /><g
     id="g4438"
     transform="translate(0,55.498993)" /><g
     id="g4440"
     transform="translate(0,55.498993)" /><g
     inkscape:groupmode="layer"
     id="layer5"
     inkscape:label="Bg"><rect
       style="fill:#ffffff;fill-opacity:1;stroke:none;stroke-width:5.00600004;stroke-linecap:butt;stroke-linejoin:miter;stroke-miterlimit:4;stroke-dasharray:none;stroke-opacity:1"
       id="rect4988"
       width="400"
       height="400"
       x="0"
       y="0" /></g><g
     inkscape:groupmode="layer"
     id="layer7"
     inkscape:label="Fruit"><g
       id="g4360"
       transform="matrix(1.161323,0,0,1.1610929,-0.03870605,1.2269274e-5)"><g
         id="g4362"><path
           style="fill:#84bd93"
           d="m 179.101,44.332 c 0.181,0.34 0.348,0.68 0.503,1.019 -0.155,-0.34 -0.322,-0.679 -0.503,-1.019 z"
           id="path4364"
           inkscape:connector-curvature="0" /><path
           style="fill:#84bd93"
           d="m 179.973,46.229 c 0.138,0.353 0.268,0.706 0.377,1.059 -0.109,-0.353 -0.239,-0.706 -0.377,-1.059 z"
           id="path4366"
           inkscape:connector-curvature="0" /><path
           style="fill:#84bd93"
           d="m 180.573,48.121 c 0.09,0.364 0.178,0.728 0.238,1.092 -0.06,-0.365 -0.148,-0.728 -0.238,-1.092 z"
           id="path4368"
           inkscape:connector-curvature="0" /><path
           style="fill:#84bd93"
           d="m 177.954,42.429 c 0.218,0.323 0.418,0.646 0.612,0.969 -0.194,-0.323 -0.393,-0.646 -0.612,-0.969 z"
           id="path4370"
           inkscape:connector-curvature="0" /><path
           style="fill:#84bd93"
           d="m 175.575,39.428 c -0.246,-0.272 -0.48,-0.545 -0.743,-0.817 0.262,0.272 0.497,0.544 0.743,0.817 z"
           id="path4372"
           inkscape:connector-curvature="0" /><path
           style="fill:#84bd93"
           d="m 180.833,49.402 c -0.518,-0.449 -1.05,-0.898 -1.614,-1.346 -12.775,-10.148 -37.99,-19.742 -51.883,-19.742 -2.942,0 -4.504,0.46 -5.074,0.737 -0.478,1.878 0.583,8.381 6.532,19.087 5.379,7.251 11.334,13.73 16.77,18.049 5.398,4.289 10.484,6.464 15.112,6.464 6.778,0 11.982,-4.759 15.155,-8.753 3.59,-4.518 5.329,-8.907 5.17,-13.042 -0.019,-0.483 -0.095,-0.969 -0.168,-1.454 z"
           id="path4374"
           inkscape:connector-curvature="0" /><path
           style="fill:#84bd93"
           d="m 128.323,47.502 c -0.87,-1.188 -1.72,-2.395 -2.552,-3.616 0.833,1.223 1.682,2.427 2.552,3.616 z"
           id="path4376"
           inkscape:connector-curvature="0" /><path
           style="fill:#84bd93"
           d="m 124.853,42.536 c -1.084,-1.636 -2.14,-3.288 -3.131,-4.953 0.991,1.666 2.047,3.316 3.131,4.953 z"
           id="path4378"
           inkscape:connector-curvature="0" /><path
           style="fill:#84bd93"
           d="m 172.852,36.697 c 0.244,0.22 0.459,0.441 0.692,0.661 -0.233,-0.221 -0.448,-0.442 -0.692,-0.661 z"
           id="path4380"
           inkscape:connector-curvature="0" /><path
           style="fill:#84bd93"
           d="m 176.532,40.522 c 0.248,0.302 0.471,0.604 0.698,0.906 -0.227,-0.302 -0.45,-0.604 -0.698,-0.906 z"
           id="path4382"
           inkscape:connector-curvature="0" /></g><g
         id="g4384"><path
           style="fill:#ce593f"
           d="m 200.936,106.615 c 1.579,-0.197 3.164,-0.37 4.756,-0.495 -1.592,0.125 -3.177,0.298 -4.756,0.495 z"
           id="path4386"
           inkscape:connector-curvature="0" /><path
           style="fill:#ce593f"
           d="m 287.391,156.122 c -8.511,-28.604 -30.387,-43.647 -54.914,-48.516 15.698,3.128 30.306,10.434 41.022,22.792 -18.998,-14.322 -44.937,-17.888 -68.426,-13.612 -6.92,1.262 -13.643,3.18 -19.799,6.091 -1.065,0.503 -3.07,1.506 -6.14,0 -6.11,-2.998 -12.875,-4.828 -19.803,-6.092 -36.732,-6.685 -79.51,5.754 -92.266,48.629 -3.04,10.217 -12.292,41.311 14.178,78.408 8.285,11.612 13.747,25.419 19.027,38.771 5.682,14.363 11.058,27.887 19.425,38.07 -10.057,-6.986 -16.552,-17.6 -22.116,-29.838 11.811,26.021 27.805,44.729 73.375,36.756 0.866,-0.151 1.719,-0.14 2.538,-0.003 0.018,0.003 0.035,0 0.055,0.003 55.337,9.68 67.061,-19.957 80.637,-54.279 5.28,-13.352 10.743,-27.159 19.027,-38.771 26.472,-37.098 17.22,-68.191 14.18,-78.409 z m -176.08,-18.521 c -26.587,8.527 -25.645,36.866 -25.592,38.069 0.184,4.137 -3.012,7.66 -7.148,7.861 -0.123,0.006 -0.249,0.009 -0.372,0.009 -3.974,0 -7.29,-3.099 -7.501,-7.109 -0.744,-14.149 5.827,-43.468 36.019,-53.152 3.954,-1.269 8.19,0.909 9.458,4.864 1.268,3.955 -0.91,8.19 -4.864,9.458 z"
           id="path4388"
           inkscape:connector-curvature="0" /><path
           style="fill:#ce593f"
           d="m 205.839,106.11 c 1.573,-0.121 3.151,-0.198 4.731,-0.248 -1.58,0.051 -3.158,0.126 -4.731,0.248 z"
           id="path4390"
           inkscape:connector-curvature="0" /><path
           style="fill:#ce593f"
           d="m 195.118,107.493 c 1.554,-0.283 3.121,-0.518 4.693,-0.732 -1.572,0.214 -3.139,0.45 -4.693,0.732 z"
           id="path4392"
           inkscape:connector-curvature="0" /><path
           style="fill:#ce593f"
           d="m 211.513,105.835 c 3.329,-0.074 6.664,0.013 9.98,0.271 -3.317,-0.256 -6.65,-0.346 -9.98,-0.271 z"
           id="path4394"
           inkscape:connector-curvature="0" /><path
           style="fill:#ce593f"
           d="m 222.075,106.151 c 3.465,0.291 6.907,0.763 10.299,1.435 -3.393,-0.67 -6.834,-1.146 -10.299,-1.435 z"
           id="path4396"
           inkscape:connector-curvature="0" /><path
           style="fill:#ce593f"
           d="m 97.566,290.794 c -0.481,-1.059 -0.955,-2.131 -1.423,-3.213 0.468,1.083 0.942,2.153 1.423,3.213 z"
           id="path4398"
           inkscape:connector-curvature="0" /><path
           style="fill:#ce593f"
           d="m 95.993,287.236 c -0.425,-0.985 -0.846,-1.979 -1.264,-2.981 0.418,1.002 0.839,1.995 1.264,2.981 z"
           id="path4400"
           inkscape:connector-curvature="0" /><path
           style="fill:#ce593f"
           d="m 94.515,283.742 c -0.4,-0.962 -0.797,-1.932 -1.192,-2.908 0.395,0.976 0.793,1.946 1.192,2.908 z"
           id="path4402"
           inkscape:connector-curvature="0" /><path
           style="fill:#ce593f"
           d="m 93.087,280.255 c -0.404,-1 -0.807,-2.007 -1.21,-3.018 0.403,1.011 0.806,2.018 1.21,3.018 z"
           id="path4404"
           inkscape:connector-curvature="0" /><path
           style="fill:#ce593f"
           d="m 91.691,276.772 c -0.458,-1.151 -0.916,-2.308 -1.376,-3.471 0.46,1.163 0.919,2.32 1.376,3.471 z"
           id="path4406"
           inkscape:connector-curvature="0" /></g><path
         style="fill:#3f2d20"
         d="m 106.716,123.278 c -30.193,9.684 -36.764,39.002 -36.019,53.152 0.211,4.011 3.527,7.109 7.501,7.109 0.123,0 0.249,-0.003 0.372,-0.009 4.137,-0.201 7.333,-3.723 7.149,-7.861 -0.053,-1.203 -0.995,-29.542 25.592,-38.069 3.954,-1.268 6.132,-5.503 4.863,-9.459 -1.268,-3.954 -5.504,-6.132 -9.458,-4.863 z"
         id="path4408"
         inkscape:connector-curvature="0" /><path
         style="fill:#3f2d20"
         d="m 301.808,151.833 c -6.788,-22.816 -21.415,-40.425 -42.296,-50.926 -19.231,-9.67 -43.058,-12.588 -67.09,-8.211 -3.709,0.677 -7.354,1.556 -10.923,2.616 2.989,-14.846 12.572,-43.624 43.006,-62.744 3.517,-2.209 4.577,-6.852 2.368,-10.368 -2.209,-3.518 -6.853,-4.578 -10.369,-2.368 -9.308,5.848 -16.921,12.446 -23.161,19.312 C 190.738,33.426 186.267,28.027 179.947,23.006 164.518,10.75 135.902,0 118.708,0 c -7.85,0 -13.535,2.146 -16.898,6.381 -5.899,7.424 -3.901,19.902 5.932,37.089 7.689,13.437 18.596,26.654 28.463,34.495 8.128,6.455 16.359,9.728 24.47,9.728 2.472,0 4.916,-0.317 7.311,-0.932 -0.916,3.619 -1.543,6.836 -1.966,9.501 -4.52,-1.497 -9.18,-2.697 -13.945,-3.566 -24.029,-4.376 -47.855,-1.458 -67.087,8.212 -20.882,10.501 -35.506,28.11 -42.294,50.926 -3.559,11.96 -14.387,48.355 16.35,91.434 7.219,10.116 12.108,22.479 17.286,35.567 12.268,31.018 25.966,65.672 74.776,65.668 6.41,-10e-4 13.443,-0.608 21.144,-1.891 7.703,1.284 14.73,1.891 21.144,1.891 48.802,-10e-4 62.507,-34.651 74.776,-65.668 5.178,-13.088 10.067,-25.451 17.286,-35.567 30.739,-43.08 19.91,-79.475 16.352,-91.435 z m -28.597,82.697 c -8.285,11.612 -13.747,25.419 -19.027,38.771 -13.577,34.321 -25.3,63.959 -80.637,54.278 -0.019,-0.003 -0.037,0 -0.055,-0.003 -0.819,-0.137 -1.673,-0.148 -2.538,0.003 -55.326,9.68 -67.062,-19.957 -80.638,-54.278 C 85.036,259.949 79.573,246.142 71.289,234.53 44.82,197.433 54.072,166.34 57.111,156.122 c 12.756,-42.875 55.534,-55.315 92.266,-48.629 6.927,1.264 13.693,3.095 19.803,6.092 3.07,1.506 5.076,0.503 6.14,0 6.156,-2.911 12.879,-4.829 19.799,-6.091 36.739,-6.687 79.515,5.753 92.273,48.628 3.039,10.217 12.291,41.311 -14.181,78.408 z M 121.722,37.583 c -7.339,-12.337 -8.606,-19.773 -8.089,-21.805 0.57,-0.276 2.133,-0.736 5.074,-0.736 13.894,0 39.108,9.594 51.883,19.742 6.7,5.322 10.204,10.731 10.409,16.074 0.159,4.135 -1.58,8.523 -5.171,13.042 -3.173,3.993 -8.377,8.753 -15.155,8.753 -4.628,0 -9.714,-2.175 -15.112,-6.464 -7.981,-6.344 -17.115,-17.304 -23.839,-28.606 z"
         id="path4410"
         inkscape:connector-curvature="0" /></g></g></svg>