<?xml version="1.0" encoding="UTF-8" standalone="no"?>
<!-- Generator: Adobe Illustrator 18.0.0, SVG Export Plug-In . SVG Version: 6.00 Build 0)  -->

<svg
   xmlns:dc="http://purl.org/dc/elements/1.1/"
   xmlns:cc="http://creativecommons.org/ns#"
   xmlns:rdf="http://www.w3.org/1999/02/22-rdf-syntax-ns#"
   xmlns:svg="http://www.w3.org/2000/svg"
   xmlns="http://www.w3.org/2000/svg"
   xmlns:sodipodi="http://sodipodi.sourceforge.net/DTD/sodipodi-0.dtd"
   xmlns:inkscape="http://www.inkscape.org/namespaces/inkscape"
   version="1.1"
   id="Capa_1"
   x="0px"
   y="0px"
   viewBox="0 0 400 400"
   xml:space="preserve"
   inkscape:version="0.91 r13725"
   sodipodi:docname="banana.svg"
   width="400"
   height="400"><metadata
     id="metadata5138"><rdf:RDF><cc:Work
         rdf:about=""><dc:format>image/svg+xml</dc:format><dc:type
           rdf:resource="http://purl.org/dc/dcmitype/StillImage" /><dc:title></dc:title></cc:Work></rdf:RDF></metadata><defs
     id="defs5136" /><sodipodi:namedview
     pagecolor="#ffffff"
     bordercolor="#666666"
     borderopacity="1"
     objecttolerance="10"
     gridtolerance="10"
     guidetolerance="10"
     inkscape:pageopacity="0"
     inkscape:pageshadow="2"
     inkscape:window-width="1280"
     inkscape:window-height="666"
     id="namedview5134"
     showgrid="false"
     inkscape:zoom="0.70181281"
     inkscape:cx="168.136"
     inkscape:cy="168.136"
     inkscape:window-x="-8"
     inkscape:window-y="-8"
     inkscape:window-maximized="1"
     inkscape:current-layer="layer9" /><g
     id="g5104"
     transform="translate(0,63.727997)" /><g
     id="g5106"
     transform="translate(0,63.727997)" /><g
     id="g5108"
     transform="translate(0,63.727997)" /><g
     id="g5110"
     transform="translate(0,63.727997)" /><g
     id="g5112"
     transform="translate(0,63.727997)" /><g
     id="g5114"
     transform="translate(0,63.727997)" /><g
     id="g5116"
     transform="translate(0,63.727997)" /><g
     id="g5118"
     transform="translate(0,63.727997)" /><g
     id="g5120"
     transform="translate(0,63.727997)" /><g
     id="g5122"
     transform="translate(0,63.727997)" /><g
     id="g5124"
     transform="translate(0,63.727997)" /><g
     id="g5126"
     transform="translate(0,63.727997)" /><g
     id="g5128"
     transform="translate(0,63.727997)" /><g
     id="g5130"
     transform="translate(0,63.727997)" /><g
     id="g5132"
     transform="translate(0,63.727997)" /><g
     inkscape:groupmode="layer"
     id="layer8"
     inkscape:label="Bg"><rect
       style="fill:#ffffff;fill-opacity:1;stroke:none;stroke-width:5.00600004;stroke-linecap:butt;stroke-linejoin:miter;stroke-miterlimit:4;stroke-dasharray:none;stroke-opacity:1"
       id="rect5680"
       width="400"
       height="400"
       x="0"
       y="0" /></g><g
     inkscape:groupmode="layer"
     id="layer9"
     inkscape:label="Fruit"><g
       id="g5022"
       transform="matrix(1.1895122,0,0,1.2125937,-4.1269475e-4,-3.8809951)"><path
         style="fill:#fdd44b"
         d="m 230.868,242.026 c -24.295,0 -47.848,-4.41 -70.196,-13.163 -16.642,-6.517 -32.606,-15.46 -47.786,-26.739 28.99,32.684 70.539,52.859 124.15,60.241 20.504,-2.265 46.545,-12.33 73.472,-28.43 0.575,-0.344 9.078,-4.63 10.716,-11.965 -13.594,6.364 -41.307,17.197 -76.548,19.586 -4.625,0.314 -9.232,0.47 -13.808,0.47 z"
         id="path5024"
         inkscape:connector-curvature="0" /><g
         id="g5026"><path
           style="fill:#fdd44b"
           d="m 263.25,298.721 c -1.788,0 -3.647,-0.019 -5.539,-0.048 0.415,-0.007 0.81,-0.017 1.218,-0.025 -2.251,0.044 -4.596,0.073 -7.06,0.073 -11.24,0 -24.593,-0.525 -39.115,-2.134 -54.571,-6.047 -99.376,-24.814 -129.571,-54.272 -33.459,-32.639 -49.888,-78.2 -49.101,-135.65 -0.027,2.03 -0.055,4.06 -0.04,6.061 -15.407,54.47 -11.363,126.548 51.321,171.762 29.404,21.212 65.753,32.441 108.096,33.45 23.939,-0.452 48.781,-4.041 72.198,-10.527 7.548,-2.091 10.806,-5.664 12.127,-8.989 -4.295,0.179 -9.169,0.299 -14.534,0.299 z"
           id="path5028"
           inkscape:connector-curvature="0" /><path
           style="fill:#fdd44b"
           d="m 275.863,297.891 c 0.767,-0.055 1.506,-0.11 2.198,-0.165 -0.691,0.055 -1.432,0.11 -2.198,0.165 z"
           id="path5030"
           inkscape:connector-curvature="0" /><path
           style="fill:#fdd44b"
           d="m 34.128,103.642 c 0.078,-3.265 0.219,-6.573 0.408,-9.913 -0.187,3.339 -0.331,6.649 -0.408,9.913 z"
           id="path5032"
           inkscape:connector-curvature="0" /><path
           style="fill:#fdd44b"
           d="m 35.664,79.06 c -0.389,3.862 -0.681,7.658 -0.93,11.424 0.252,-3.768 0.542,-7.562 0.93,-11.424 z"
           id="path5034"
           inkscape:connector-curvature="0" /><path
           style="fill:#fdd44b"
           d="m 260.296,298.62 c 0.772,-0.018 1.523,-0.04 2.267,-0.062 -0.744,0.022 -1.495,0.043 -2.267,0.062 z"
           id="path5036"
           inkscape:connector-curvature="0" /><path
           style="fill:#fdd44b"
           d="m 273.456,298.053 c 0.551,-0.035 1.079,-0.07 1.599,-0.106 -0.518,0.036 -1.049,0.071 -1.599,0.106 z"
           id="path5038"
           inkscape:connector-curvature="0" /><path
           style="fill:#fdd44b"
           d="m 263.632,298.526 c 1.045,-0.035 2.059,-0.073 3.042,-0.115 -0.983,0.042 -1.998,0.08 -3.042,0.115 z"
           id="path5040"
           inkscape:connector-curvature="0" /><path
           style="fill:#fdd44b"
           d="m 267.639,298.367 c 0.679,-0.031 1.349,-0.062 1.997,-0.095 -0.647,0.033 -1.319,0.064 -1.997,0.095 z"
           id="path5042"
           inkscape:connector-curvature="0" /><path
           style="fill:#fdd44b"
           d="m 270.745,298.212 c 0.564,-0.031 1.115,-0.062 1.652,-0.094 -0.536,0.032 -1.089,0.064 -1.652,0.094 z"
           id="path5044"
           inkscape:connector-curvature="0" /></g><g
         id="g5046"><path
           style="fill:#fdd44b"
           d="m 27.891,61.091 c -0.552,-0.357 -1.113,-0.751 -1.666,-1.222 0.553,0.472 1.113,0.864 1.666,1.222 z"
           id="path5048"
           inkscape:connector-curvature="0" /><path
           style="fill:#fdd44b"
           d="M 73.189,42.199 34.182,35.254 30.09,58.231 c -0.182,1.376 -0.275,2.593 -0.291,3.847 1.704,0.816 2.996,1.011 3.016,1.011 l 0.003,0 20.628,3.766 c 2.462,0.364 14.337,1.257 18.108,-15.521 L 75.645,28.38 73.189,42.199 Z"
           id="path5050"
           inkscape:connector-curvature="0" /><path
           style="fill:#fdd44b"
           d="m 29.777,62.161 c -0.485,-0.233 -1.009,-0.524 -1.541,-0.849 0.535,0.328 1.054,0.615 1.541,0.849 z"
           id="path5052"
           inkscape:connector-curvature="0" /></g><g
         id="g5054"><path
           style="fill:#fdd44b"
           d="m 310.297,210.355 c 0.572,-0.247 1.156,-0.497 1.691,-0.734 -0.536,0.238 -1.118,0.487 -1.691,0.734 z"
           id="path5056"
           inkscape:connector-curvature="0" /><path
           style="fill:#fdd44b"
           d="m 307.27,211.63 c 0.696,-0.286 1.394,-0.572 2.047,-0.85 -0.653,0.277 -1.351,0.564 -2.047,0.85 z"
           id="path5058"
           inkscape:connector-curvature="0" /><path
           style="fill:#fdd44b"
           d="m 301.833,213.446 c -0.066,0.015 -0.073,0.017 -0.139,0.029 -76.129,15.214 -138.794,3.575 -186.245,-34.592 -16.437,-13.221 -29.173,-28.249 -38.974,-42.85 1.697,5.549 3.691,11.264 6.083,17.078 45.599,52.88 99.791,77.595 161.101,73.438 24.696,-1.675 45.53,-7.889 59.616,-13.326 -0.718,0.081 -1.229,0.178 -1.442,0.223 z"
           id="path5060"
           inkscape:connector-curvature="0" /><path
           style="fill:#fdd44b"
           d="m 304.184,212.867 c 0.734,-0.288 1.469,-0.575 2.164,-0.856 -0.694,0.281 -1.43,0.569 -2.164,0.856 z"
           id="path5062"
           inkscape:connector-curvature="0" /><path
           style="fill:#fdd44b"
           d="m 75.594,132.988 c -0.397,-1.372 -0.814,-2.759 -1.174,-4.105 0.358,1.347 0.778,2.732 1.174,4.105 z"
           id="path5064"
           inkscape:connector-curvature="0" /></g><g
         id="g5066"><path
           style="fill:#fdd44b"
           d="m 263.367,279.993 c -9.301,-0.518 -18.332,-1.372 -27.089,-2.555 -0.032,-0.003 -0.064,-0.008 -0.096,-0.012 -0.115,-0.016 -0.227,-0.033 -0.342,-0.049 -0.1,-0.014 -0.201,-0.025 -0.299,-0.045 -37.968,-5.22 -70.728,-16.689 -97.644,-34.234 -26.898,-17.534 -47.99,-41.073 -62.694,-69.965 -2.222,-4.366 -4.217,-8.712 -6.028,-13.013 -0.013,-0.028 -0.024,-0.057 -0.037,-0.086 -6.135,-14.585 -10.027,-28.617 -12.498,-40.933 0.317,1.579 0.648,3.176 1.014,4.809 2.409,45.13 17.19,81.213 44.207,107.594 34.997,34.173 84.783,46.102 120.385,50.09 12.192,1.366 23.596,1.918 33.54,2.034 -1.44,0.017 -2.923,0.026 -4.444,0.024 8.653,0.007 16.037,-0.304 21.627,-0.662 -3.912,-2.152 -8.782,-2.887 -9.602,-2.997 z"
           id="path5068"
           inkscape:connector-curvature="0" /><path
           style="fill:#fdd44b"
           d="m 251.102,283.65 c -1.329,-0.002 -2.694,-0.013 -4.081,-0.031 1.388,0.018 2.751,0.029 4.081,0.031 z"
           id="path5070"
           inkscape:connector-curvature="0" /><path
           style="fill:#fdd44b"
           d="m 241.157,283.492 c -1.424,-0.042 -2.872,-0.094 -4.343,-0.156 1.472,0.062 2.918,0.114 4.343,0.156 z"
           id="path5072"
           inkscape:connector-curvature="0" /><path
           style="fill:#fdd44b"
           d="m 245.934,283.602 c -1.173,-0.019 -2.366,-0.045 -3.576,-0.077 1.21,0.032 2.402,0.057 3.576,0.077 z"
           id="path5074"
           inkscape:connector-curvature="0" /><path
           style="fill:#fdd44b"
           d="m 224.652,282.598 c -1.211,-0.095 -2.435,-0.199 -3.666,-0.31 1.232,0.111 2.454,0.215 3.666,0.31 z"
           id="path5076"
           inkscape:connector-curvature="0" /><path
           style="fill:#fdd44b"
           d="m 219.344,282.14 c -1.757,-0.167 -3.527,-0.345 -5.32,-0.546 1.793,0.2 3.564,0.379 5.32,0.546 z"
           id="path5078"
           inkscape:connector-curvature="0" /><path
           style="fill:#fdd44b"
           d="m 236.356,283.318 c -1.617,-0.071 -3.265,-0.156 -4.934,-0.254 1.669,0.098 3.317,0.183 4.934,0.254 z"
           id="path5080"
           inkscape:connector-curvature="0" /><path
           style="fill:#fdd44b"
           d="m 230.118,282.982 c -1.241,-0.077 -2.493,-0.161 -3.76,-0.254 1.267,0.093 2.518,0.177 3.76,0.254 z"
           id="path5082"
           inkscape:connector-curvature="0" /><path
           style="fill:#fdd44b"
           d="m 52.665,87.652 c -0.047,-0.951 -0.083,-1.849 -0.112,-2.701 0.029,0.853 0.065,1.749 0.112,2.701 z"
           id="path5084"
           inkscape:connector-curvature="0" /><path
           style="fill:#fdd44b"
           d="m 54.027,103.07 c -0.163,-1.301 -0.315,-2.58 -0.447,-3.808 0.132,1.228 0.284,2.506 0.447,3.808 z"
           id="path5086"
           inkscape:connector-curvature="0" /><path
           style="fill:#fdd44b"
           d="m 55.46,112.747 c -0.226,-1.326 -0.436,-2.627 -0.63,-3.901 0.193,1.274 0.403,2.574 0.63,3.901 z"
           id="path5088"
           inkscape:connector-curvature="0" /><path
           style="fill:#fdd44b"
           d="m 54.708,108.061 c -0.207,-1.392 -0.394,-2.748 -0.566,-4.073 0.172,1.325 0.359,2.68 0.566,4.073 z"
           id="path5090"
           inkscape:connector-curvature="0" /><path
           style="fill:#fdd44b"
           d="m 56.427,118.032 c -0.299,-1.527 -0.579,-3.032 -0.835,-4.501 0.256,1.47 0.536,2.974 0.835,4.501 z"
           id="path5092"
           inkscape:connector-curvature="0" /><path
           style="fill:#fdd44b"
           d="m 53.567,99.146 c -0.136,-1.272 -0.251,-2.49 -0.357,-3.678 0.106,1.189 0.221,2.405 0.357,3.678 z"
           id="path5094"
           inkscape:connector-curvature="0" /><path
           style="fill:#fdd44b"
           d="m 52.536,84.433 c -0.026,-0.839 -0.047,-1.646 -0.059,-2.379 0.012,0.733 0.033,1.539 0.059,2.379 z"
           id="path5096"
           inkscape:connector-curvature="0" /><path
           style="fill:#fdd44b"
           d="m 52.854,90.892 c -0.063,-0.961 -0.118,-1.886 -0.164,-2.769 0.045,0.884 0.1,1.807 0.164,2.769 z"
           id="path5098"
           inkscape:connector-curvature="0" /><path
           style="fill:#fdd44b"
           d="m 53.142,94.698 c -0.097,-1.137 -0.183,-2.241 -0.255,-3.293 0.072,1.053 0.158,2.155 0.255,3.293 z"
           id="path5100"
           inkscape:connector-curvature="0" /></g><path
         style="fill:#3f2d20"
         d="M 333.203,207.253 C 325.099,191.454 307.975,190.628 299.923,192.419 143.286,223.676 86.843,128.181 68.557,79.154 76.065,75.558 83.243,68.217 86.275,54.478 c 0.022,-0.101 0.042,-0.201 0.06,-0.303 l 5.438,-30.54 c 0.349,-1.963 -0.095,-3.985 -1.237,-5.622 -1.141,-1.635 -2.886,-2.751 -4.849,-3.1 L 20.56,3.318 C 16.479,2.591 12.565,5.315 11.838,9.404 L 6.4,39.943 c -0.018,0.101 -0.034,0.203 -0.048,0.305 -2.566,18.863 6.021,29.37 14.662,34.374 -16.408,33.605 -23.716,72.879 -20.113,109.075 4.673,46.956 26.901,86.029 64.282,112.992 33.467,24.142 74.914,36.383 123.188,36.383 26.823,0 54.938,-3.86 81.303,-11.165 23.881,-6.615 25.064,-25.699 23.359,-33.588 -0.827,-11.043 -8.939,-17.368 -17.197,-20.608 13.565,-5.172 27.91,-12.207 42.392,-20.867 0.478,-0.286 0.833,-0.499 1.056,-0.628 22.114,-12.73 17.623,-32.258 13.919,-38.963 z m -22.695,26.682 c -26.927,16.1 -52.968,26.165 -73.472,28.43 -53.611,-7.382 -95.16,-27.556 -124.15,-60.241 15.181,11.278 31.144,20.222 47.786,26.739 22.348,8.753 45.9,13.163 70.196,13.163 4.576,0 9.183,-0.156 13.809,-0.47 35.241,-2.39 62.954,-13.222 76.548,-19.586 -1.639,7.335 -10.142,11.621 -10.717,11.965 z m -44.85,73.477 c -25.078,6.947 -51.803,10.618 -77.288,10.618 -45.049,0 -83.535,-11.284 -114.388,-33.541 C -2.847,229.072 8.409,133.295 35.609,79.05 l 0.056,0.01 c -7.108,70.621 8.863,125.547 47.519,163.255 30.195,29.458 75.001,48.225 129.571,54.272 14.521,1.609 27.875,2.134 39.115,2.134 11.093,0 20.121,-0.511 26.191,-0.995 -1.132,3.512 -4.328,7.448 -12.403,9.686 z M 21.237,42.422 25.328,19.444 75.645,28.402 71.554,51.38 C 67.784,68.159 55.908,67.313 53.446,66.948 L 32.818,63.276 32.815,63.275 c -0.033,-0.006 -3.48,-0.751 -6.59,-3.407 -4.35,-3.714 -6.028,-9.583 -4.988,-17.446 z m 281.861,164.7 c 0.854,-0.178 6.426,-1.202 11.307,1.405 -12.568,5.814 -38.354,15.826 -70.746,18.023 -61.31,4.157 -115.501,-20.559 -161.101,-73.438 -4.509,-10.955 -7.68,-21.61 -9.9,-31.33 10.346,16.988 24.622,35.148 44.055,50.778 47.451,38.167 110.116,49.805 186.245,34.591 0.066,-0.013 0.074,-0.015 0.14,-0.029 z m -30.13,75.867 c -12.559,0.805 -34.136,1.384 -58.944,-1.395 C 178.422,277.605 128.636,265.677 93.639,231.504 58.665,197.354 44.175,146.96 50.518,81.706 l 1.959,0.349 c 0.215,13.201 2.422,44.128 16.66,77.98 0.013,0.029 0.024,0.058 0.037,0.086 1.812,4.302 3.806,8.648 6.028,13.013 14.704,28.891 35.796,52.431 62.694,69.965 26.917,17.545 59.676,29.015 97.644,34.234 0.099,0.02 0.2,0.03 0.299,0.045 0.115,0.016 0.227,0.033 0.342,0.049 0.032,0.004 0.064,0.009 0.096,0.012 8.757,1.183 17.787,2.037 27.088,2.555 0.822,0.109 5.692,0.844 9.603,2.995 z"
         id="path5102"
         inkscape:connector-curvature="0" /></g></g></svg>