<?xml version="1.0" encoding="UTF-8" standalone="no"?>
<!-- Generator: Adobe Illustrator 18.0.0, SVG Export Plug-In . SVG Version: 6.00 Build 0)  -->

<svg
   xmlns:dc="http://purl.org/dc/elements/1.1/"
   xmlns:cc="http://creativecommons.org/ns#"
   xmlns:rdf="http://www.w3.org/1999/02/22-rdf-syntax-ns#"
   xmlns:svg="http://www.w3.org/2000/svg"
   xmlns="http://www.w3.org/2000/svg"
   xmlns:sodipodi="http://sodipodi.sourceforge.net/DTD/sodipodi-0.dtd"
   xmlns:inkscape="http://www.inkscape.org/namespaces/inkscape"
   version="1.1"
   id="Capa_1"
   x="0px"
   y="0px"
   viewBox="0 0 400.00002 400.00002"
   xml:space="preserve"
   inkscape:version="0.91 r13725"
   sodipodi:docname="broccoli.svg"
   width="400"
   height="400"><metadata
     id="metadata5825"><rdf:RDF><cc:Work
         rdf:about=""><dc:format>image/svg+xml</dc:format><dc:type
           rdf:resource="http://purl.org/dc/dcmitype/StillImage" /><dc:title></dc:title></cc:Work></rdf:RDF></metadata><defs
     id="defs5823" /><sodipodi:namedview
     pagecolor="#ffffff"
     bordercolor="#666666"
     borderopacity="1"
     objecttolerance="10"
     gridtolerance="10"
     guidetolerance="10"
     inkscape:pageopacity="0"
     inkscape:pageshadow="2"
     inkscape:window-width="1280"
     inkscape:window-height="666"
     id="namedview5821"
     showgrid="false"
     inkscape:zoom="0.67808106"
     inkscape:cx="174.02049"
     inkscape:cy="174.02049"
     inkscape:window-x="-8"
     inkscape:window-y="-8"
     inkscape:window-maximized="1"
     inkscape:current-layer="layer10" /><g
     id="g5791"
     transform="translate(0,51.959015)" /><g
     id="g5793"
     transform="translate(0,51.959015)" /><g
     id="g5795"
     transform="translate(0,51.959015)" /><g
     id="g5797"
     transform="translate(0,51.959015)" /><g
     id="g5799"
     transform="translate(0,51.959015)" /><g
     id="g5801"
     transform="translate(0,51.959015)" /><g
     id="g5803"
     transform="translate(0,51.959015)" /><g
     id="g5805"
     transform="translate(0,51.959015)" /><g
     id="g5807"
     transform="translate(0,51.959015)" /><g
     id="g5809"
     transform="translate(0,51.959015)" /><g
     id="g5811"
     transform="translate(0,51.959015)" /><g
     id="g5813"
     transform="translate(0,51.959015)" /><g
     id="g5815"
     transform="translate(0,51.959015)" /><g
     id="g5817"
     transform="translate(0,51.959015)" /><g
     id="g5819"
     transform="translate(0,51.959015)" /><g
     inkscape:groupmode="layer"
     id="layer10"
     inkscape:label="Bg"><rect
       style="fill:#ffffff;fill-opacity:1;stroke:none;stroke-width:5.00600004;stroke-linecap:butt;stroke-linejoin:miter;stroke-miterlimit:4;stroke-dasharray:none;stroke-opacity:1"
       id="rect6401"
       width="400.00003"
       height="400.00003"
       x="0"
       y="6.6757189e-006" /></g><g
     inkscape:groupmode="layer"
     id="layer11"
     inkscape:label="Fruit"><g
       style=""
       id="g5727"
       transform="matrix(1.1492899,0,0,1.1618551,0,-2.1866112)"><path
         style="fill:#ffffff"
         d="m 237.417,208.259 c 0.088,-0.066 0.18,-0.131 0.268,-0.197 -0.325,-0.259 -0.663,-0.502 -0.994,-0.753 0.24,0.319 0.492,0.626 0.726,0.95 z"
         id="path5729"
         inkscape:connector-curvature="0" /><path
         style="fill:#ffffff"
         d="m 302.052,124.057 -0.011,0.397 c -0.049,2.252 0.915,4.408 2.626,5.874 1.71,1.465 3.986,2.086 6.205,1.694 1.607,-0.285 3.22,-0.429 4.795,-0.429 4.975,0 9.639,1.341 13.663,3.671 -4.737,-8.18 -13.578,-13.698 -23.691,-13.698 -1.248,0 -2.521,0.116 -3.794,0.296 0.129,0.713 0.207,1.445 0.207,2.195 z"
         id="path5731"
         inkscape:connector-curvature="0" /><path
         style="fill:#ffffff"
         d="m 272.826,105.451 c -0.382,2.797 0.834,5.572 3.15,7.187 2.316,1.616 5.34,1.797 7.833,0.47 1.81,-0.963 3.77,-1.45 5.827,-1.45 0.747,0 1.475,0.078 2.186,0.205 -1.032,-5.802 -6.11,-10.232 -12.213,-10.232 -2.057,0 -4.017,0.488 -5.827,1.45 -0.242,0.129 -0.493,0.231 -0.745,0.332 -0.064,0.677 -0.118,1.352 -0.211,2.038 z"
         id="path5733"
         inkscape:connector-curvature="0" /><path
         style="fill:#ffffff"
         d="m 54.346,215.448 c -0.205,-2.507 -1.65,-4.746 -3.85,-5.966 -2.179,-1.207 -4.238,-2.57 -6.177,-4.062 0.749,9.155 6.081,17.017 13.607,21.395 -1.974,-3.396 -3.243,-7.249 -3.58,-11.367 z"
         id="path5735"
         inkscape:connector-curvature="0" /><path
         style="fill:#ffffff"
         d="m 204.481,49.103 c 0.402,2.083 1.663,3.901 3.475,5.003 1.814,1.104 4.007,1.389 6.04,0.789 4.264,-1.258 8.671,-1.897 13.101,-1.897 10.176,0 19.588,3.316 27.228,8.914 C 245.917,50.439 232.352,42.97 217.07,42.97 c -4.429,0 -8.837,0.639 -13.101,1.897 -0.208,0.061 -0.418,0.107 -0.628,0.15 0.473,1.318 0.869,2.677 1.14,4.086 z"
         id="path5737"
         inkscape:connector-curvature="0" /><g
         id="g5739"><path
           style="fill:#84bd93"
           d="m 29.311,190.978 c 0.28,0.283 0.557,0.569 0.844,0.846 -0.287,-0.277 -0.564,-0.563 -0.844,-0.846 z"
           id="path5741"
           inkscape:connector-curvature="0" /><path
           style="fill:#84bd93"
           d="m 16.208,166.913 c -0.089,-0.406 -0.176,-0.812 -0.256,-1.221 0.08,0.409 0.167,0.815 0.256,1.221 z"
           id="path5743"
           inkscape:connector-curvature="0" /><path
           style="fill:#84bd93"
           d="m 15.239,160.512 c -0.029,-0.338 -0.068,-0.674 -0.09,-1.014 0.021,0.34 0.061,0.675 0.09,1.014 z"
           id="path5745"
           inkscape:connector-curvature="0" /><path
           style="fill:#84bd93"
           d="m 174.932,17.934 c 1.012,0.283 1.997,0.636 2.961,1.03 -0.965,-0.394 -1.948,-0.747 -2.961,-1.03 z"
           id="path5747"
           inkscape:connector-curvature="0" /><path
           style="fill:#84bd93"
           d="m 15.63,163.801 c -0.061,-0.396 -0.126,-0.791 -0.177,-1.189 0.051,0.398 0.116,0.793 0.177,1.189 z"
           id="path5749"
           inkscape:connector-curvature="0" /><path
           style="fill:#84bd93"
           d="m 171.65,17.248 c 1.071,0.161 2.13,0.365 3.16,0.647 -1.03,-0.282 -2.088,-0.486 -3.16,-0.647 z"
           id="path5751"
           inkscape:connector-curvature="0" /><path
           style="fill:#84bd93"
           d="m 189.219,27.559 c -1.392,-1.796 -2.996,-3.407 -4.778,-4.801 1.78,1.394 3.387,3.005 4.778,4.801 z"
           id="path5753"
           inkscape:connector-curvature="0" /><path
           style="fill:#84bd93"
           d="m 189.343,27.715 c 0.703,0.921 1.353,1.886 1.937,2.897 -0.585,-1.012 -1.234,-1.976 -1.937,-2.897 z"
           id="path5755"
           inkscape:connector-curvature="0" /><path
           style="fill:#84bd93"
           d="m 181.422,20.691 c 0.941,0.553 1.84,1.17 2.706,1.83 -0.867,-0.659 -1.764,-1.277 -2.706,-1.83 z"
           id="path5757"
           inkscape:connector-curvature="0" /><path
           style="fill:#84bd93"
           d="m 178.467,19.202 c 1,0.435 1.977,0.915 2.913,1.462 -0.937,-0.547 -1.913,-1.028 -2.913,-1.462 z"
           id="path5759"
           inkscape:connector-curvature="0" /><path
           style="fill:#84bd93"
           d="m 167.596,16.924 c 1.114,0 2.208,0.091 3.291,0.222 -1.083,-0.131 -2.177,-0.222 -3.291,-0.222 z"
           id="path5761"
           inkscape:connector-curvature="0" /><path
           style="fill:#84bd93"
           d="m 34.877,195.845 c -0.021,-0.016 -0.041,-0.033 -0.062,-0.049 0.021,0.016 0.04,0.033 0.062,0.049 z"
           id="path5763"
           inkscape:connector-curvature="0" /><path
           style="fill:#84bd93"
           d="m 25.98,187.253 c -0.259,-0.322 -0.518,-0.645 -0.769,-0.973 0.251,0.328 0.509,0.651 0.769,0.973 z"
           id="path5765"
           inkscape:connector-curvature="0" /><path
           style="fill:#84bd93"
           d="m 27.998,189.606 c -0.28,-0.306 -0.554,-0.617 -0.826,-0.929 0.273,0.313 0.546,0.623 0.826,0.929 z"
           id="path5767"
           inkscape:connector-curvature="0" /><path
           style="fill:#84bd93"
           d="m 322.809,181.785 c -1.728,-1.439 -2.723,-3.575 -2.71,-5.824 0.013,-2.25 1.032,-4.375 2.777,-5.793 6.434,-5.229 10.124,-12.972 10.124,-21.242 0,-15.087 -12.274,-27.361 -27.361,-27.361 -1.575,0 -3.188,0.144 -4.795,0.429 -2.22,0.392 -4.496,-0.229 -6.205,-1.694 -1.711,-1.466 -2.675,-3.621 -2.626,-5.874 l 0.011,-0.397 c 0,-6.831 -5.57,-12.4 -12.416,-12.4 -2.056,0 -4.017,0.487 -5.827,1.45 -2.493,1.327 -5.517,1.146 -7.833,-0.47 -2.316,-1.615 -3.532,-4.39 -3.15,-7.187 0.292,-2.138 0.44,-4.252 0.44,-6.283 0,-25.457 -20.711,-46.168 -46.169,-46.168 -4.429,0 -8.837,0.638 -13.101,1.897 -2.033,0.599 -4.227,0.314 -6.04,-0.789 -1.812,-1.103 -3.073,-2.92 -3.475,-5.003 -0.587,-3.048 -1.685,-5.89 -3.173,-8.464 -4.047,-2.336 -8.723,-3.66 -13.656,-3.66 -13.762,0 -25.427,10.282 -27.136,23.917 -0.292,2.329 -1.654,4.387 -3.683,5.567 -2.029,1.179 -4.493,1.343 -6.66,0.444 -2.196,-0.911 -4.522,-1.372 -6.917,-1.372 -9.964,0 -18.07,8.106 -18.07,18.069 0,0.403 0.028,0.868 0.071,1.443 0.159,2.11 -0.579,4.189 -2.032,5.728 -1.452,1.538 -3.452,2.414 -5.604,2.355 l -0.266,-0.009 c -17.128,0.038 -32.09,12.198 -35.592,28.941 -0.629,3.007 -3.025,5.33 -6.052,5.866 -23.533,4.16 -40.614,24.547 -40.614,48.476 0,10.799 3.551,21.091 9.808,29.468 1.766,1.317 3.632,2.524 5.591,3.61 2.2,1.219 3.646,3.459 3.85,5.966 1.151,14.072 13.124,25.095 27.259,25.095 6.113,0 12.011,-2.064 16.777,-5.762 -4.226,-3.815 -8.677,-7.463 -13.395,-10.906 -3.355,-2.448 -4.09,-7.154 -1.642,-10.509 2.449,-3.358 7.153,-4.089 10.509,-1.642 38.457,28.064 55.655,64.459 63.309,89.476 5.336,17.441 6.914,30.309 7.348,41.309 l 50.354,0 c 12.569,-87 65.891,-105.651 68.212,-106.461 3.922,-1.367 8.21,0.361 9.578,4.282 1.365,3.91 -0.689,8.015 -4.59,9.396 -0.173,0.065 -3.584,1.268 -8.678,4.5 5.11,3.455 9.407,4.008 13.088,4.008 13.735,0 24.91,-11.196 24.91,-24.93 0,-3.21 -0.608,-6.355 -1.806,-9.326 -0.995,-2.467 -0.613,-5.281 1.004,-7.392 1.618,-2.111 4.222,-3.217 6.871,-2.897 0.495,0.06 0.983,0.089 1.452,0.089 6.846,0 12.416,-5.57 12.416,-12.416 -0.002,-3.697 -1.636,-7.179 -4.485,-9.55 z m -153.942,78.739 c 0,3.482 -2.381,6.508 -5.767,7.316 -0.582,0.138 -1.163,0.206 -1.741,0.206 -2.787,0 -5.407,-1.556 -6.708,-4.13 -29.667,-58.696 -59.3,-74.663 -59.596,-74.818 -3.667,-1.912 -5.12,-6.438 -3.229,-10.116 1.891,-3.679 6.378,-5.148 10.065,-3.283 0.673,0.341 8.861,4.629 20.817,16.392 6.211,-6.909 13.639,-12.009 22.583,-14.811 2.648,-0.83 5.577,-1.441 7.577,-1.841 l 0,-33.172 c 0,-4.154 3.846,-7.52 8,-7.52 4.154,0 8,3.367 8,7.52 l 0,118.257 z m 86.503,-46.381 c -42.838,26.876 -55.984,70.373 -56.112,70.809 -0.949,3.242 -3.922,5.413 -7.216,5.413 -0.354,10e-4 -0.536,-0.024 -0.895,-0.076 -3.703,-0.531 -6.28,-3.697 -6.28,-7.438 l 0,-116.593 c 0,-4.154 3.846,-7.521 8,-7.521 4.154,0 8,3.367 8,7.521 l 0,20.733 c 12,1.216 28.337,8.989 37.205,21.268 3.151,-2.359 6.126,-4.66 9.631,-6.858 3.519,-2.204 7.996,-1.145 10.205,2.374 2.206,3.518 0.98,8.16 -2.538,10.368 z"
           id="path5769"
           inkscape:connector-curvature="0" /><path
           style="fill:#84bd93"
           d="m 24.091,184.749 c -0.226,-0.32 -0.456,-0.637 -0.674,-0.962 0.218,0.325 0.448,0.642 0.674,0.962 z"
           id="path5771"
           inkscape:connector-curvature="0" /><path
           style="fill:#84bd93"
           d="m 32.448,193.904 c -0.259,-0.22 -0.505,-0.452 -0.759,-0.677 0.253,0.225 0.5,0.457 0.759,0.677 z"
           id="path5773"
           inkscape:connector-curvature="0" /><path
           style="fill:#84bd93"
           d="m 19.03,175.733 c -0.13,-0.304 -0.245,-0.616 -0.369,-0.923 0.124,0.307 0.238,0.618 0.369,0.923 z"
           id="path5775"
           inkscape:connector-curvature="0" /><path
           style="fill:#84bd93"
           d="m 22.299,182.026 c -0.17,-0.277 -0.348,-0.549 -0.512,-0.829 0.164,0.28 0.342,0.552 0.512,0.829 z"
           id="path5777"
           inkscape:connector-curvature="0" /><path
           style="fill:#84bd93"
           d="m 17.914,172.874 c -0.132,-0.37 -0.251,-0.746 -0.375,-1.119 0.123,0.374 0.242,0.749 0.375,1.119 z"
           id="path5779"
           inkscape:connector-curvature="0" /><path
           style="fill:#84bd93"
           d="m 16.971,169.933 c -0.114,-0.397 -0.22,-0.796 -0.324,-1.196 0.104,0.4 0.21,0.8 0.324,1.196 z"
           id="path5781"
           inkscape:connector-curvature="0" /><path
           style="fill:#84bd93"
           d="m 20.318,178.509 c 0,0 -0.001,-10e-4 0,0 -0.001,-10e-4 -0.001,0 0,0 z"
           id="path5783"
           inkscape:connector-curvature="0" /></g><path
         style="fill:#3f2d20"
         d="m 161.365,134.747 c -4.154,0 -7.521,3.367 -7.521,7.521 l 0,33.172 c -2.721,0.399 -5.417,1.011 -8.065,1.841 -8.943,2.803 -16.86,7.903 -23.072,14.811 -11.956,-11.763 -20.143,-16.051 -20.816,-16.392 -3.687,-1.865 -8.174,-0.397 -10.065,3.283 -1.891,3.678 -0.437,8.203 3.229,10.116 0.296,0.155 29.93,16.122 59.597,74.818 1.301,2.573 3.923,4.129 6.71,4.129 0.579,0 1.163,-0.068 1.746,-0.206 3.386,-0.808 5.777,-3.834 5.777,-7.316 l 0,-118.256 c 0.001,-4.154 -3.366,-7.521 -7.52,-7.521 z m -11.085,56.886 c 1.176,-0.369 2.368,-0.656 3.565,-0.907 l 0,41.072 c -7.302,-11.668 -14.373,-21.072 -20.831,-28.619 4.529,-5.423 10.475,-9.418 17.266,-11.546 z"
         id="path5785"
         inkscape:connector-curvature="0" /><path
         style="fill:#3f2d20"
         d="m 247.375,201.401 c -3.505,2.198 -6.807,4.5 -9.958,6.859 -8.867,-12.28 -22.581,-20.052 -37.859,-21.269 l 0,-20.733 c 0,-4.154 -3.367,-7.521 -7.521,-7.521 -4.154,0 -7.521,3.367 -7.521,7.521 l 0,116.594 c 0,3.741 2.752,6.907 6.455,7.438 0.359,0.052 0.717,0.077 1.07,0.076 3.294,0 6.267,-2.172 7.216,-5.413 0.128,-0.437 13.274,-43.933 56.112,-70.809 3.519,-2.208 4.581,-6.85 2.374,-10.368 -2.209,-3.52 -6.85,-4.58 -10.368,-2.375 z m -47.818,48.248 0,-47.534 c 10.694,1.207 20.191,6.952 26.236,15.812 -11.444,10.557 -20.001,21.748 -26.236,31.722 z"
         id="path5787"
         inkscape:connector-curvature="0" /><path
         style="fill:#3f2d20"
         d="m 348.041,148.926 c 0,-23.253 -18.816,-42.196 -42.022,-42.4 -3.278,-11.496 -13.876,-19.938 -26.411,-19.938 -0.46,0 -0.921,0.012 -1.38,0.035 -1.324,-32.59 -28.251,-58.693 -61.16,-58.693 -3.358,0 -6.705,0.276 -10.013,0.824 -6.268,-15.942 -21.811,-26.872 -39.459,-26.872 -18.445,0 -34.462,11.924 -40.169,28.824 -1.394,-0.178 -2.804,-0.267 -4.226,-0.267 -16.54,0 -30.286,12.189 -32.727,28.056 C 70.837,61.175 54.208,75.116 48.245,94.096 20.013,101.316 0,126.758 0,156.35 c 0,22.071 11.342,42.528 29.847,54.283 3.57,19.879 21.177,34.924 41.731,34.924 10.13,0 19.883,-3.656 27.511,-10.159 15.303,16.757 26.528,36.476 33.488,58.929 7.682,24.789 7.004,43.801 6.997,43.976 -0.092,2.05 0.659,4.05 2.078,5.533 1.419,1.484 3.382,2.323 5.435,2.323 l 64.34,0 c 3.814,0 7.024,-2.855 7.469,-6.642 3.962,-33.699 15.463,-61.676 33.257,-80.905 1.66,-1.794 3.306,-3.436 4.915,-4.937 7.766,6.475 15.968,9.531 25.378,9.531 22.03,0 39.951,-17.921 39.951,-39.95 0,-1.82 -0.121,-3.626 -0.364,-5.41 11.681,-3.156 20.301,-13.846 20.301,-26.511 0,-5.369 -1.555,-10.53 -4.405,-14.924 6.496,-7.609 10.112,-17.286 10.112,-27.485 z m -25.232,32.859 c 2.85,2.371 4.483,5.852 4.483,9.55 0,6.846 -5.57,12.415 -12.416,12.415 -0.469,0 -0.958,-0.031 -1.452,-0.09 -2.649,-0.32 -5.253,0.783 -6.871,2.894 -1.617,2.111 -1.999,4.92 -1.004,7.386 1.198,2.971 1.806,6.106 1.806,9.316 0,13.734 -11.174,24.908 -24.91,24.908 -3.681,0 -7.978,-0.596 -13.088,-4.051 5.094,-3.231 8.505,-4.52 8.678,-4.585 3.9,-1.381 5.955,-5.656 4.59,-9.566 -1.368,-3.921 -5.656,-5.99 -9.578,-4.623 -2.321,0.81 -55.643,20.369 -68.212,105.778 l -50.354,0 c -0.435,-8.501 -2.012,-23.186 -7.349,-40.627 -7.654,-25.017 -24.851,-60.73 -63.308,-88.794 -3.356,-2.447 -8.06,-1.716 -10.509,1.642 -2.448,3.355 -1.713,8.06 1.642,10.508 4.718,3.443 9.17,7.091 13.395,10.906 -4.766,3.698 -10.664,5.762 -16.777,5.762 -14.135,0 -26.108,-11.023 -27.259,-25.095 -0.205,-2.507 -1.65,-4.746 -3.851,-5.966 -15.684,-8.689 -25.426,-25.207 -25.426,-43.105 0,-23.928 17.08,-44.316 40.614,-48.476 3.027,-0.536 5.423,-2.859 6.052,-5.866 3.503,-16.743 18.464,-28.903 35.592,-28.941 l 0.266,0.009 c 2.152,0.059 4.152,-0.817 5.604,-2.355 1.453,-1.538 2.191,-3.618 2.032,-5.728 -0.043,-0.575 -0.072,-1.04 -0.072,-1.443 0,-9.963 8.106,-18.069 18.071,-18.069 2.394,0 4.721,0.461 6.916,1.372 2.167,0.899 4.631,0.734 6.66,-0.444 2.029,-1.18 3.391,-3.239 3.683,-5.567 1.709,-13.634 13.374,-23.917 27.135,-23.917 13.093,0 24.388,9.317 26.857,22.152 0.402,2.083 1.663,3.901 3.475,5.003 1.814,1.104 4.007,1.389 6.04,0.789 4.264,-1.258 8.671,-1.897 13.101,-1.897 25.458,0 46.169,20.711 46.169,46.168 0,2.031 -0.148,4.145 -0.44,6.283 -0.382,2.797 0.834,5.572 3.15,7.187 2.316,1.616 5.34,1.797 7.833,0.47 1.81,-0.963 3.77,-1.45 5.827,-1.45 6.846,0 12.416,5.569 12.416,12.4 l -0.011,0.397 c -0.049,2.252 0.915,4.408 2.625,5.874 1.71,1.465 3.986,2.086 6.206,1.694 1.607,-0.285 3.22,-0.429 4.794,-0.429 15.087,0 27.361,12.274 27.361,27.361 0,8.27 -3.69,16.013 -10.124,21.242 -1.745,1.419 -2.764,3.544 -2.777,5.793 -0.008,2.25 0.986,4.387 2.715,5.825 z"
         id="path5789"
         inkscape:connector-curvature="0" /></g></g></svg>