<?xml version="1.0" encoding="UTF-8" standalone="no"?>
<!-- Generator: Adobe Illustrator 18.0.0, SVG Export Plug-In . SVG Version: 6.00 Build 0)  -->

<svg
   xmlns:dc="http://purl.org/dc/elements/1.1/"
   xmlns:cc="http://creativecommons.org/ns#"
   xmlns:rdf="http://www.w3.org/1999/02/22-rdf-syntax-ns#"
   xmlns:svg="http://www.w3.org/2000/svg"
   xmlns="http://www.w3.org/2000/svg"
   xmlns:sodipodi="http://sodipodi.sourceforge.net/DTD/sodipodi-0.dtd"
   xmlns:inkscape="http://www.inkscape.org/namespaces/inkscape"
   version="1.1"
   id="Capa_1"
   x="0px"
   y="0px"
   viewBox="0 0 400.00001 400.00001"
   xml:space="preserve"
   inkscape:version="0.91 r13725"
   sodipodi:docname="carrot.svg"
   width="400"
   height="400"><metadata
     id="metadata6455"><rdf:RDF><cc:Work
         rdf:about=""><dc:format>image/svg+xml</dc:format><dc:type
           rdf:resource="http://purl.org/dc/dcmitype/StillImage" /><dc:title></dc:title></cc:Work></rdf:RDF></metadata><defs
     id="defs6453" /><sodipodi:namedview
     pagecolor="#ffffff"
     bordercolor="#666666"
     borderopacity="1"
     objecttolerance="10"
     gridtolerance="10"
     guidetolerance="10"
     inkscape:pageopacity="0"
     inkscape:pageshadow="2"
     inkscape:window-width="1280"
     inkscape:window-height="666"
     id="namedview6451"
     showgrid="false"
     inkscape:zoom="0.59169076"
     inkscape:cx="199.4285"
     inkscape:cy="199.4285"
     inkscape:window-x="-8"
     inkscape:window-y="-8"
     inkscape:window-maximized="1"
     inkscape:current-layer="layer12" /><g
     id="g6421"
     transform="translate(0,1.1430054)" /><g
     id="g6423"
     transform="translate(0,1.1430054)" /><g
     id="g6425"
     transform="translate(0,1.1430054)" /><g
     id="g6427"
     transform="translate(0,1.1430054)" /><g
     id="g6429"
     transform="translate(0,1.1430054)" /><g
     id="g6431"
     transform="translate(0,1.1430054)" /><g
     id="g6433"
     transform="translate(0,1.1430054)" /><g
     id="g6435"
     transform="translate(0,1.1430054)" /><g
     id="g6437"
     transform="translate(0,1.1430054)" /><g
     id="g6439"
     transform="translate(0,1.1430054)" /><g
     id="g6441"
     transform="translate(0,1.1430054)" /><g
     id="g6443"
     transform="translate(0,1.1430054)" /><g
     id="g6445"
     transform="translate(0,1.1430054)" /><g
     id="g6447"
     transform="translate(0,1.1430054)" /><g
     id="g6449"
     transform="translate(0,1.1430054)" /><g
     inkscape:groupmode="layer"
     id="layer12"
     inkscape:label="Bg"><rect
       style="fill:#ffffff;fill-opacity:1;stroke:none;stroke-width:5.00600004;stroke-linecap:butt;stroke-linejoin:miter;stroke-miterlimit:4;stroke-dasharray:none;stroke-opacity:1"
       id="rect7007"
       width="400"
       height="400"
       x="0"
       y="0" /></g><g
     inkscape:groupmode="layer"
     id="layer13"
     inkscape:label="Fruit"><g
       style=""
       id="g6405"
       transform="matrix(1.0129433,0,0,1.0028657,-2.0094535,-4.5049e-6)"><g
         id="g6407"><path
           style="fill:#ef8829"
           d="m 234.936,136.89 c -0.084,2.213 -1.046,29.054 -3.753,62.054 l -25.389,0 c -4.154,0 -7.521,0.529 -7.521,4.684 0,4.154 3.367,7.316 7.521,7.316 l 24.083,0 c -1.883,21 -4.401,42 -7.724,66 l -16.277,0 c -4.154,0 -7.521,3.903 -7.521,8.057 0,4.154 3.367,5.345 7.521,5.345 l 14.766,0.478 c -4.501,26.332 -9.765,56.314 -18.41,75.579 -9.043,-29.458 -16.733,-78.459 -21.17,-115.459 l -7.774,0 19.733,0 c 4.154,0 7.52,-2.346 7.52,-6.5 0,-4.154 -3.367,-6.5 -7.52,-6.5 l -13.497,0 c -2.143,-21 -4.228,-58 -5.245,-72 l 18.652,0 c 4.154,0 7.521,2.9 7.521,-2.367 0,-5.267 -3.367,-7.633 -7.521,-7.633 l -19.557,0 c -0.23,-5 -0.345,-7.764 -0.372,-8.464 0.082,-5.76 6.177,-12.141 16.087,-15.787 0.26,-0.079 7.388,-3.246 19.423,-3.246 10.026,0 19.161,3.319 19.429,3.399 0.002,0.001 4.448,1.811 6.995,5.044 z"
           id="path6409"
           inkscape:connector-curvature="0" /><path
           style="fill:#ef8829"
           d="m 202.202,366.655 c -0.441,1.227 -0.886,2.437 -1.337,3.625 0.452,-1.184 0.896,-2.398 1.337,-3.625 z"
           id="path6411"
           inkscape:connector-curvature="0" /></g><g
         id="g6413"><path
           style="fill:#ffffff"
           d="m 199.426,19.931 c 1.356,0 2.46,1.104 2.46,2.46 l 0,-4.89 c 0,-1.356 -1.104,-2.46 -2.46,-2.46 -1.355,0 -2.458,1.104 -2.458,2.46 l 0,4.89 c 0,-1.357 1.103,-2.46 2.458,-2.46 z"
           id="path6415"
           inkscape:connector-curvature="0" /><path
           style="fill:#84bd93"
           d="m 237.596,51.082 c -0.34,-0.35 -1.068,-1.19 -2.881,0.618 -8.747,8.719 -13.228,21.256 -18.301,32.587 -1.479,3.303 -4.942,5.321 -8.488,4.66 -3.556,-0.669 -6.222,-3.774 -6.222,-7.392 l 0,-4.889 0,-59.165 c 0,-1.356 -1.145,-2.46 -2.501,-2.46 -1.355,0 -2.499,1.104 -2.499,2.46 l 0,59.165 0,4.889 c 0,3.618 -2.443,6.723 -5.999,7.392 -3.553,0.662 -7.017,-1.289 -8.331,-4.66 -4.655,-11.942 -10.781,-22.908 -18.271,-32.591 -0.533,-0.689 -1.795,-1.804 -2.867,-0.608 -0.072,0.081 -0.121,0.172 -0.186,0.256 -0.038,-0.051 -0.069,-0.103 -0.107,-0.155 11.38,15.359 19.249,33.669 22.982,53.365 4.868,-1.019 10.071,-1.572 15.502,-1.572 5.43,0 10.631,0.552 15.497,1.571 3.735,-19.697 11.604,-38.01 23.002,-53.39 -0.043,0.058 -0.083,0.117 -0.125,0.175 -0.068,-0.085 -0.128,-0.176 -0.205,-0.256 z"
           id="path6417"
           inkscape:connector-curvature="0" /></g><path
         style="fill:#3f2d20"
         d="m 248.413,35.74 c -3.373,-3.484 -8.038,-5.341 -12.806,-5.072 -4.994,0.274 -9.534,2.736 -12.787,6.935 -2.055,2.658 -4.021,5.4 -5.892,8.221 l 0,-28.323 C 216.928,7.851 209.077,0 199.426,0 c -9.65,0 -17.5,7.851 -17.5,17.501 l 0,28.324 c -1.872,-2.822 -3.839,-5.566 -5.896,-8.225 -3.249,-4.196 -7.79,-6.658 -12.785,-6.932 -4.763,-0.274 -9.433,1.587 -12.812,5.079 -6.411,6.645 -7.089,16.883 -1.592,24.37 10.441,14.091 17.52,31.034 20.665,49.289 -12.583,6.122 -20.631,16.085 -20.631,27.551 0,0.09 0.002,0.179 0.005,0.269 0.281,7.859 7.306,193.223 44.008,257.825 1.337,2.352 3.834,3.806 6.539,3.806 2.706,0 5.203,-1.453 6.54,-3.806 36.702,-64.602 43.725,-249.966 44.006,-257.825 0.003,-0.089 0.005,-0.178 0.005,-0.268 0,-11.465 -8.05,-21.43 -20.632,-27.553 3.146,-18.255 10.227,-35.201 20.684,-49.313 5.48,-7.46 4.803,-17.698 -1.617,-24.352 z m -17.229,160.471 -25.389,0 c -4.154,0 -7.521,3.367 -7.521,7.521 0,4.154 3.367,7.521 7.521,7.521 l 24.083,0 c -1.883,20.554 -4.401,43.454 -7.724,66.151 l -16.277,0 c -4.154,0 -7.521,3.367 -7.521,7.521 0,4.154 3.367,7.521 7.521,7.521 l 13.946,0 c -5.062,30.85 -11.711,60.228 -20.394,81.486 -12.462,-30.514 -20.738,-77.759 -26.139,-122.083 l 19.733,0 c 4.154,0 7.521,-3.367 7.521,-7.521 0,-4.154 -3.367,-7.521 -7.521,-7.521 l -21.474,0 c -2.747,-25.031 -4.587,-48.333 -5.771,-66.154 l 27.156,0 c 4.154,0 7.521,-3.367 7.521,-7.521 0,-4.154 -3.367,-7.521 -7.521,-7.521 l -28.085,0 c -0.614,-10.798 -0.886,-17.643 -0.93,-18.771 0.082,-5.76 6.177,-11.918 16.086,-15.564 0.261,-0.079 7.389,-3.251 19.424,-3.251 10.026,0 19.161,3.173 19.429,3.253 9.905,3.647 15.997,9.804 16.08,15.562 -0.086,2.213 -1.047,26.357 -3.754,59.371 z M 161.253,46.199 c 1.071,-1.196 2.349,-0.081 2.883,0.608 7.49,9.683 13.649,20.649 18.304,32.591 1.314,3.372 4.844,5.322 8.397,4.66 3.556,-0.669 6.131,-3.774 6.131,-7.391 l 0,-59.166 c 0,-1.356 1.103,-2.46 2.458,-2.46 1.356,0 2.46,1.104 2.46,2.46 l 0,59.165 c 0,3.617 2.575,6.723 6.131,7.391 3.546,0.661 6.918,-1.357 8.397,-4.66 5.073,-11.331 9.553,-23.869 18.3,-32.587 1.814,-1.808 2.541,-0.968 2.881,-0.618 1.31,1.357 1.441,3.459 0.331,4.971 -11.398,15.38 -19.267,33.693 -23.002,53.39 -4.866,-1.019 -10.067,-1.571 -15.497,-1.571 -5.431,0 -10.633,0.552 -15.501,1.572 -3.733,-19.696 -11.6,-38.006 -22.98,-53.365 -1.129,-1.537 -0.947,-3.592 0.307,-4.99 z"
         id="path6419"
         inkscape:connector-curvature="0" /></g></g></svg>