<?xml version="1.0" encoding="UTF-8" standalone="no"?>
<!-- Generator: Adobe Illustrator 19.1.0, SVG Export Plug-In . SVG Version: 6.00 Build 0)  -->

<svg
   xmlns:dc="http://purl.org/dc/elements/1.1/"
   xmlns:cc="http://creativecommons.org/ns#"
   xmlns:rdf="http://www.w3.org/1999/02/22-rdf-syntax-ns#"
   xmlns:svg="http://www.w3.org/2000/svg"
   xmlns="http://www.w3.org/2000/svg"
   xmlns:sodipodi="http://sodipodi.sourceforge.net/DTD/sodipodi-0.dtd"
   xmlns:inkscape="http://www.inkscape.org/namespaces/inkscape"
   version="1.1"
   id="Capa_1"
   x="0px"
   y="0px"
   viewBox="0 0 22.88 22.88"
   style="enable-background:new 0 0 22.88 22.88;"
   xml:space="preserve"
   inkscape:version="0.91 r13725"
   sodipodi:docname="letter-x.svg"><metadata
     id="metadata13569"><rdf:RDF><cc:Work
         rdf:about=""><dc:format>image/svg+xml</dc:format><dc:type
           rdf:resource="http://purl.org/dc/dcmitype/StillImage" /></cc:Work></rdf:RDF></metadata><defs
     id="defs13567" /><sodipodi:namedview
     pagecolor="#ffffff"
     bordercolor="#666666"
     borderopacity="1"
     objecttolerance="10"
     gridtolerance="10"
     guidetolerance="10"
     inkscape:pageopacity="0"
     inkscape:pageshadow="2"
     inkscape:window-width="1280"
     inkscape:window-height="666"
     id="namedview13565"
     showgrid="false"
     inkscape:zoom="10.314686"
     inkscape:cx="11.44"
     inkscape:cy="11.44"
     inkscape:window-x="-8"
     inkscape:window-y="-8"
     inkscape:window-maximized="1"
     inkscape:current-layer="Capa_1" /><path
     style="fill:#c8c8c8;fill-opacity:1"
     d="M0.324,1.909c-0.429-0.429-0.429-1.143,0-1.587c0.444-0.429,1.143-0.429,1.587,0l9.523,9.539  l9.539-9.539c0.429-0.429,1.143-0.429,1.571,0c0.444,0.444,0.444,1.159,0,1.587l-9.523,9.524l9.523,9.539  c0.444,0.429,0.444,1.143,0,1.587c-0.429,0.429-1.143,0.429-1.571,0l-9.539-9.539l-9.523,9.539c-0.444,0.429-1.143,0.429-1.587,0  c-0.429-0.444-0.429-1.159,0-1.587l9.523-9.539L0.324,1.909z"
     id="path13533" /><g
     id="g13535" /><g
     id="g13537" /><g
     id="g13539" /><g
     id="g13541" /><g
     id="g13543" /><g
     id="g13545" /><g
     id="g13547" /><g
     id="g13549" /><g
     id="g13551" /><g
     id="g13553" /><g
     id="g13555" /><g
     id="g13557" /><g
     id="g13559" /><g
     id="g13561" /><g
     id="g13563" /></svg>