<?xml version="1.0" encoding="UTF-8" standalone="no"?>
<!-- Generator: Adobe Illustrator 18.0.0, SVG Export Plug-In . SVG Version: 6.00 Build 0)  -->

<svg
   xmlns:dc="http://purl.org/dc/elements/1.1/"
   xmlns:cc="http://creativecommons.org/ns#"
   xmlns:rdf="http://www.w3.org/1999/02/22-rdf-syntax-ns#"
   xmlns:svg="http://www.w3.org/2000/svg"
   xmlns="http://www.w3.org/2000/svg"
   xmlns:sodipodi="http://sodipodi.sourceforge.net/DTD/sodipodi-0.dtd"
   xmlns:inkscape="http://www.inkscape.org/namespaces/inkscape"
   version="1.1"
   id="Capa_1"
   x="0px"
   y="0px"
   viewBox="0 0 399.99999 399.99999"
   xml:space="preserve"
   inkscape:version="0.91 r13725"
   sodipodi:docname="grapes.svg"
   width="400"
   height="400"><metadata
     id="metadata7483"><rdf:RDF><cc:Work
         rdf:about=""><dc:format>image/svg+xml</dc:format><dc:type
           rdf:resource="http://purl.org/dc/dcmitype/StillImage" /><dc:title></dc:title></cc:Work></rdf:RDF></metadata><defs
     id="defs7481" /><sodipodi:namedview
     pagecolor="#ffffff"
     bordercolor="#666666"
     borderopacity="1"
     objecttolerance="10"
     gridtolerance="10"
     guidetolerance="10"
     inkscape:pageopacity="0"
     inkscape:pageshadow="2"
     inkscape:window-width="1280"
     inkscape:window-height="666"
     id="namedview7479"
     showgrid="false"
     inkscape:zoom="0.6123063"
     inkscape:cx="192.714"
     inkscape:cy="192.714"
     inkscape:window-x="-8"
     inkscape:window-y="-8"
     inkscape:window-maximized="1"
     inkscape:current-layer="layer14" /><g
     id="g7449"
     transform="translate(0,14.571991)" /><g
     id="g7451"
     transform="translate(0,14.571991)" /><g
     id="g7453"
     transform="translate(0,14.571991)" /><g
     id="g7455"
     transform="translate(0,14.571991)" /><g
     id="g7457"
     transform="translate(0,14.571991)" /><g
     id="g7459"
     transform="translate(0,14.571991)" /><g
     id="g7461"
     transform="translate(0,14.571991)" /><g
     id="g7463"
     transform="translate(0,14.571991)" /><g
     id="g7465"
     transform="translate(0,14.571991)" /><g
     id="g7467"
     transform="translate(0,14.571991)" /><g
     id="g7469"
     transform="translate(0,14.571991)" /><g
     id="g7471"
     transform="translate(0,14.571991)" /><g
     id="g7473"
     transform="translate(0,14.571991)" /><g
     id="g7475"
     transform="translate(0,14.571991)" /><g
     id="g7477"
     transform="translate(0,14.571991)" /><g
     inkscape:groupmode="layer"
     id="layer14"
     inkscape:label="Bg"><rect
       style="fill:#ffffff;fill-opacity:1;stroke:none;stroke-width:5.00600004;stroke-linecap:butt;stroke-linejoin:miter;stroke-miterlimit:4;stroke-dasharray:none;stroke-opacity:1"
       id="rect8246"
       width="400"
       height="400"
       x="0"
       y="0" /></g><g
     inkscape:groupmode="layer"
     id="layer15"
     inkscape:label="Fruit"><g
       style=""
       id="g7011"
       transform="matrix(1.0358937,0,0,1.0378145,0.3677436,3.463375e-4)"><g
         id="g7013"><path
           style="fill:#fdd44b"
           d="m 144.309,144.651 c 0.82,0.253 1.61,0.573 2.38,0.928 -0.771,-0.355 -1.56,-0.675 -2.38,-0.928 z"
           id="path7015"
           inkscape:connector-curvature="0" /><path
           style="fill:#fdd44b"
           d="m 141.818,144.079 c 0.815,0.138 1.619,0.311 2.397,0.547 -0.778,-0.235 -1.581,-0.409 -2.397,-0.547 z"
           id="path7017"
           inkscape:connector-curvature="0" /><path
           style="fill:#fdd44b"
           d="m 119.19,165.963 c -0.116,-0.859 -0.197,-1.729 -0.197,-2.62 0,0.891 0.081,1.761 0.197,2.62 z"
           id="path7019"
           inkscape:connector-curvature="0" /><path
           style="fill:#fdd44b"
           d="m 149.364,147.057 c 0.724,0.483 1.406,1.021 2.058,1.593 -0.652,-0.572 -1.334,-1.11 -2.058,-1.593 z"
           id="path7021"
           inkscape:connector-curvature="0" /><path
           style="fill:#fdd44b"
           d="m 151.71,148.913 c 1.287,1.176 2.42,2.516 3.357,3.995 -0.938,-1.48 -2.068,-2.82 -3.357,-3.995 z"
           id="path7023"
           inkscape:connector-curvature="0" /><path
           style="fill:#fdd44b"
           d="m 138.553,143.784 c 0.891,0 1.762,0.081 2.621,0.197 -0.859,-0.116 -1.73,-0.197 -2.621,-0.197 z"
           id="path7025"
           inkscape:connector-curvature="0" /><path
           style="fill:#fdd44b"
           d="m 147.18,145.816 c 0.741,0.367 1.465,0.766 2.149,1.22 -0.685,-0.454 -1.407,-0.854 -2.149,-1.22 z"
           id="path7027"
           inkscape:connector-curvature="0" /><path
           style="fill:#fdd44b"
           d="m 124.123,176.502 c 1.175,1.288 2.515,2.418 3.994,3.356 -1.478,-0.937 -2.818,-2.07 -3.994,-3.356 z"
           id="path7029"
           inkscape:connector-curvature="0" /><path
           style="fill:#fdd44b"
           d="m 155.211,153.144 c 0.46,0.748 0.879,1.524 1.237,2.333 -2.41,-1.064 -5.068,-1.665 -7.867,-1.665 -10.786,0 -19.56,8.774 -19.56,19.56 0,2.799 0.601,5.457 1.665,7.867 -0.81,-0.357 -1.585,-0.777 -2.333,-1.237 2.974,1.828 6.46,2.902 10.2,2.902 10.786,0 19.56,-8.774 19.56,-19.56 0,-3.74 -1.074,-7.226 -2.902,-10.2 z"
           id="path7031"
           inkscape:connector-curvature="0" /><path
           style="fill:#fdd44b"
           d="m 123.859,176.211 c -0.572,-0.651 -1.109,-1.333 -1.592,-2.056 0.482,0.724 1.02,1.405 1.592,2.056 z"
           id="path7033"
           inkscape:connector-curvature="0" /><path
           style="fill:#fdd44b"
           d="m 119.836,169.005 c -0.236,-0.777 -0.409,-1.58 -0.547,-2.395 0.138,0.815 0.311,1.618 0.547,2.395 z"
           id="path7035"
           inkscape:connector-curvature="0" /><path
           style="fill:#fdd44b"
           d="m 122.244,174.117 c -0.454,-0.684 -0.852,-1.406 -1.218,-2.146 0.366,0.741 0.765,1.462 1.218,2.146 z"
           id="path7037"
           inkscape:connector-curvature="0" /><path
           style="fill:#fdd44b"
           d="m 120.788,171.478 c -0.355,-0.77 -0.674,-1.56 -0.928,-2.379 0.253,0.82 0.574,1.609 0.928,2.379 z"
           id="path7039"
           inkscape:connector-curvature="0" /></g><g
         id="g7041"><path
           style="fill:#fdd44b"
           d="m 198.47,144.651 c 0.82,0.253 1.609,0.573 2.379,0.928 -0.77,-0.355 -1.559,-0.675 -2.379,-0.928 z"
           id="path7043"
           inkscape:connector-curvature="0" /><path
           style="fill:#fdd44b"
           d="m 173.351,165.963 c -0.116,-0.859 -0.196,-1.729 -0.196,-2.62 0,0.891 0.08,1.761 0.196,2.62 z"
           id="path7045"
           inkscape:connector-curvature="0" /><path
           style="fill:#fdd44b"
           d="m 201.342,145.816 c 0.74,0.367 1.462,0.765 2.146,1.218 -0.685,-0.453 -1.405,-0.852 -2.146,-1.218 z"
           id="path7047"
           inkscape:connector-curvature="0" /><path
           style="fill:#fdd44b"
           d="m 195.98,144.079 c 0.815,0.138 1.619,0.311 2.396,0.547 -0.778,-0.235 -1.581,-0.409 -2.396,-0.547 z"
           id="path7049"
           inkscape:connector-curvature="0" /><path
           style="fill:#fdd44b"
           d="m 192.715,143.784 c 0.891,0 1.762,0.081 2.621,0.197 -0.86,-0.116 -1.731,-0.197 -2.621,-0.197 z"
           id="path7051"
           inkscape:connector-curvature="0" /><path
           style="fill:#fdd44b"
           d="m 205.871,148.913 c 1.287,1.176 2.42,2.516 3.357,3.995 -0.938,-1.48 -2.068,-2.82 -3.357,-3.995 z"
           id="path7053"
           inkscape:connector-curvature="0" /><path
           style="fill:#fdd44b"
           d="m 203.526,147.058 c 0.723,0.483 1.406,1.02 2.057,1.592 -0.652,-0.572 -1.333,-1.11 -2.057,-1.592 z"
           id="path7055"
           inkscape:connector-curvature="0" /><path
           style="fill:#fdd44b"
           d="m 178.02,176.211 c -0.572,-0.651 -1.109,-1.333 -1.592,-2.056 0.483,0.724 1.02,1.405 1.592,2.056 z"
           id="path7057"
           inkscape:connector-curvature="0" /><path
           style="fill:#fdd44b"
           d="m 178.284,176.502 c 1.175,1.288 2.515,2.418 3.994,3.356 -1.478,-0.937 -2.818,-2.07 -3.994,-3.356 z"
           id="path7059"
           inkscape:connector-curvature="0" /><path
           style="fill:#fdd44b"
           d="m 209.372,153.144 c 0.46,0.748 0.879,1.524 1.237,2.333 -2.41,-1.064 -5.068,-1.665 -7.867,-1.665 -10.786,0 -19.56,8.774 -19.56,19.56 0,2.799 0.601,5.457 1.665,7.867 -0.81,-0.357 -1.585,-0.777 -2.333,-1.237 2.974,1.828 6.46,2.902 10.2,2.902 10.785,0 19.56,-8.774 19.56,-19.56 0,-3.74 -1.073,-7.226 -2.902,-10.2 z"
           id="path7061"
           inkscape:connector-curvature="0" /><path
           style="fill:#fdd44b"
           d="m 173.997,169.005 c -0.236,-0.777 -0.409,-1.58 -0.547,-2.395 0.138,0.815 0.311,1.618 0.547,2.395 z"
           id="path7063"
           inkscape:connector-curvature="0" /><path
           style="fill:#fdd44b"
           d="m 176.405,174.117 c -0.454,-0.684 -0.852,-1.406 -1.218,-2.146 0.366,0.741 0.765,1.462 1.218,2.146 z"
           id="path7065"
           inkscape:connector-curvature="0" /><path
           style="fill:#fdd44b"
           d="m 174.949,171.478 c -0.355,-0.77 -0.674,-1.56 -0.928,-2.379 0.253,0.82 0.573,1.609 0.928,2.379 z"
           id="path7067"
           inkscape:connector-curvature="0" /></g><g
         id="g7069"><path
           style="fill:#84bd93"
           d="m 164.215,21.929 c 0.607,0.313 1.194,0.636 1.778,0.96 -0.585,-0.324 -1.17,-0.647 -1.778,-0.96 z"
           id="path7071"
           inkscape:connector-curvature="0" /><path
           style="fill:#84bd93"
           d="m 159.526,19.702 c 0.552,0.239 1.072,0.495 1.609,0.741 -0.538,-0.246 -1.057,-0.502 -1.609,-0.741 z"
           id="path7073"
           inkscape:connector-curvature="0" /><path
           style="fill:#84bd93"
           d="m 109.644,50.068 c -0.357,-0.679 -0.684,-1.409 -1.011,-2.138 0.328,0.73 0.655,1.459 1.011,2.138 z"
           id="path7075"
           inkscape:connector-curvature="0" /><path
           style="fill:#84bd93"
           d="m 108.136,46.843 c -0.466,-1.135 -0.899,-2.322 -1.281,-3.578 0.382,1.256 0.815,2.443 1.281,3.578 z"
           id="path7077"
           inkscape:connector-curvature="0" /><path
           style="fill:#84bd93"
           d="m 168.511,24.356 c 0.585,0.36 1.167,0.722 1.727,1.094 -0.56,-0.372 -1.141,-0.735 -1.727,-1.094 z"
           id="path7079"
           inkscape:connector-curvature="0" /><path
           style="fill:#84bd93"
           d="m 179.999,33.968 c 0.432,0.512 0.813,1.046 1.212,1.573 -0.398,-0.527 -0.78,-1.062 -1.212,-1.573 z"
           id="path7081"
           inkscape:connector-curvature="0" /><path
           style="fill:#84bd93"
           d="m 178.105,31.923 c -0.631,-0.65 -1.293,-1.285 -1.982,-1.908 0.688,0.623 1.351,1.258 1.982,1.908 z"
           id="path7083"
           inkscape:connector-curvature="0" /><path
           style="fill:#84bd93"
           d="m 172.428,26.999 c 0.53,0.391 1.074,0.775 1.578,1.178 -0.505,-0.403 -1.048,-0.787 -1.578,-1.178 z"
           id="path7085"
           inkscape:connector-curvature="0" /><path
           style="fill:#84bd93"
           d="m 111.338,52.957 c -0.357,-0.551 -0.695,-1.142 -1.034,-1.733 0.339,0.592 0.676,1.182 1.034,1.733 z"
           id="path7087"
           inkscape:connector-curvature="0" /><path
           style="fill:#84bd93"
           d="m 115.919,58.639 c 0.401,0.404 0.8,0.792 1.203,1.162 -0.403,-0.37 -0.803,-0.759 -1.203,-1.162 z"
           id="path7089"
           inkscape:connector-curvature="0" /><path
           style="fill:#84bd93"
           d="m 185.018,41.697 c -0.822,-1.747 -1.851,-3.4 -2.974,-5.011 -4.836,-3.49 -10.701,-6.491 -17.579,-8.987 -0.401,5.296 -1.322,12.191 -3.336,19.829 -0.597,2.266 -2.217,4.125 -4.381,5.026 -2.16,0.901 -4.622,0.742 -6.652,-0.431 -0.636,-0.354 -15.65,-8.473 -33.214,1.169 1.189,3.905 2.821,7.198 4.666,9.985 4.365,2.898 7.97,3.942 8.312,4.035 2.271,0.579 4.116,2.176 5.036,4.331 0.613,1.438 0.701,3.003 0.377,4.496 0.043,-0.201 0.11,-0.397 0.137,-0.6 2.485,1.237 4.244,1.737 4.478,1.8 2.271,0.579 4.116,2.176 5.035,4.331 0.919,2.155 0.754,4.609 -0.401,6.649 -2.444,4.315 -4.992,8.116 -7.394,11.358 9.074,2.133 17.302,1.942 24.567,-0.699 16.754,-6.095 23.451,-23.397 23.517,-23.571 0.024,-0.063 6.904,-18.615 -0.194,-33.71 z"
           id="path7091"
           inkscape:connector-curvature="0" /><path
           style="fill:#84bd93"
           d="m 127.824,96.799 c 0.453,0.174 0.904,0.343 1.353,0.507 -0.449,-0.164 -0.901,-0.334 -1.353,-0.507 z"
           id="path7093"
           inkscape:connector-curvature="0" /><path
           style="fill:#84bd93"
           d="m 133.289,98.68 c 0.435,0.131 0.864,0.245 1.295,0.365 -0.431,-0.119 -0.861,-0.235 -1.295,-0.365 z"
           id="path7095"
           inkscape:connector-curvature="0" /><path
           style="fill:#84bd93"
           d="m 113.175,55.53 c -0.37,-0.472 -0.729,-0.977 -1.086,-1.486 0.358,0.509 0.716,1.013 1.086,1.486 z"
           id="path7097"
           inkscape:connector-curvature="0" /><path
           style="fill:#84bd93"
           d="m 135.113,76.841 c -0.159,0.498 -0.355,0.988 -0.617,1.451 0.262,-0.464 0.461,-0.952 0.617,-1.451 z"
           id="path7099"
           inkscape:connector-curvature="0" /><path
           style="fill:#84bd93"
           d="m 115.117,57.806 c -0.386,-0.415 -0.766,-0.856 -1.145,-1.306 0.379,0.45 0.758,0.89 1.145,1.306 z"
           id="path7101"
           inkscape:connector-curvature="0" /><path
           style="fill:#84bd93"
           d="m 119.156,61.535 c -0.421,-0.332 -0.843,-0.68 -1.267,-1.047 0.425,0.368 0.845,0.714 1.267,1.047 z"
           id="path7103"
           inkscape:connector-curvature="0" /><path
           style="fill:#84bd93"
           d="m 121.18,63.025 c -0.439,-0.3 -0.884,-0.614 -1.335,-0.952 0.452,0.339 0.894,0.652 1.335,0.952 z"
           id="path7105"
           inkscape:connector-curvature="0" /></g><g
         id="g7107"><path
           style="fill:#fdd44b"
           d="m 250.142,144.08 c 0.813,0.138 1.615,0.311 2.391,0.546 -0.777,-0.235 -1.577,-0.409 -2.391,-0.546 z"
           id="path7109"
           inkscape:connector-curvature="0" /><path
           style="fill:#fdd44b"
           d="m 252.632,144.651 c 0.819,0.253 1.608,0.572 2.376,0.926 -0.769,-0.353 -1.557,-0.673 -2.376,-0.926 z"
           id="path7111"
           inkscape:connector-curvature="0" /><path
           style="fill:#fdd44b"
           d="m 227.316,163.344 c 0,-1.348 0.137,-2.665 0.398,-3.937 -0.261,1.272 -0.398,2.588 -0.398,3.937 z"
           id="path7113"
           inkscape:connector-curvature="0" /><path
           style="fill:#fdd44b"
           d="m 246.877,143.784 c 0.89,0 1.76,0.081 2.619,0.197 -0.859,-0.116 -1.729,-0.197 -2.619,-0.197 z"
           id="path7115"
           inkscape:connector-curvature="0" /><path
           style="fill:#fdd44b"
           d="m 263.387,152.904 c -0.937,-1.476 -2.065,-2.814 -3.351,-3.987 1.284,1.173 2.415,2.511 3.351,3.987 z"
           id="path7117"
           inkscape:connector-curvature="0" /><path
           style="fill:#fdd44b"
           d="m 255.505,145.817 c 0.738,0.365 1.457,0.762 2.139,1.215 -0.682,-0.452 -1.401,-0.85 -2.139,-1.215 z"
           id="path7119"
           inkscape:connector-curvature="0" /><path
           style="fill:#fdd44b"
           d="m 257.688,147.058 c 0.721,0.482 1.402,1.018 2.052,1.589 -0.65,-0.57 -1.329,-1.107 -2.052,-1.589 z"
           id="path7121"
           inkscape:connector-curvature="0" /><path
           style="fill:#fdd44b"
           d="m 263.537,153.15 c 0.456,0.743 0.873,1.513 1.228,2.317 -0.356,-0.805 -0.772,-1.574 -1.228,-2.317 z"
           id="path7123"
           inkscape:connector-curvature="0" /><path
           style="fill:#fdd44b"
           d="m 232.444,176.5 c 1.176,1.289 2.517,2.421 3.997,3.359 -1.48,-0.937 -2.821,-2.071 -3.997,-3.359 z"
           id="path7125"
           inkscape:connector-curvature="0" /><path
           style="fill:#fdd44b"
           d="m 230.569,174.121 c -0.455,-0.685 -0.854,-1.409 -1.222,-2.151 0.367,0.742 0.767,1.465 1.222,2.151 z"
           id="path7127"
           inkscape:connector-curvature="0" /><path
           style="fill:#fdd44b"
           d="m 232.182,176.213 c -0.572,-0.652 -1.111,-1.335 -1.594,-2.059 0.483,0.725 1.022,1.407 1.594,2.059 z"
           id="path7129"
           inkscape:connector-curvature="0" /><path
           style="fill:#fdd44b"
           d="m 264.77,155.477 c -2.41,-1.063 -5.067,-1.665 -7.866,-1.665 -10.786,0 -19.56,8.774 -19.56,19.56 0,2.799 0.601,5.457 1.665,7.867 -0.811,-0.358 -1.587,-0.778 -2.336,-1.238 2.975,1.829 6.461,2.903 10.202,2.903 10.786,0 19.56,-8.774 19.56,-19.56 0,-2.799 -0.602,-5.457 -1.665,-7.867 z"
           id="path7131"
           inkscape:connector-curvature="0" /><path
           style="fill:#fdd44b"
           d="m 246.875,143.784 0,0 c -9.438,0 -17.335,6.718 -19.162,15.623 1.828,-8.905 9.726,-15.623 19.162,-15.623 z"
           id="path7133"
           inkscape:connector-curvature="0" /><path
           style="fill:#fdd44b"
           d="m 229.111,171.48 c -0.355,-0.77 -0.675,-1.561 -0.928,-2.382 0.252,0.821 0.573,1.611 0.928,2.382 z"
           id="path7135"
           inkscape:connector-curvature="0" /><path
           style="fill:#fdd44b"
           d="m 227.316,163.344 c 0,0.891 0.081,1.761 0.197,2.621 -0.117,-0.859 -0.197,-1.731 -0.197,-2.621 z"
           id="path7137"
           inkscape:connector-curvature="0" /><path
           style="fill:#fdd44b"
           d="m 227.611,166.609 c 0.138,0.817 0.312,1.622 0.549,2.401 -0.237,-0.779 -0.411,-1.584 -0.549,-2.401 z"
           id="path7139"
           inkscape:connector-curvature="0" /></g><g
         id="g7141"><path
           style="fill:#fdd44b"
           d="m 127.985,199.775 c -0.937,-1.477 -2.065,-2.814 -3.351,-3.988 1.284,1.175 2.415,2.512 3.351,3.988 z"
           id="path7143"
           inkscape:connector-curvature="0" /><path
           style="fill:#fdd44b"
           d="m 117.229,191.522 c 0.819,0.253 1.608,0.572 2.376,0.927 -0.769,-0.354 -1.556,-0.675 -2.376,-0.927 z"
           id="path7145"
           inkscape:connector-curvature="0" /><path
           style="fill:#fdd44b"
           d="m 114.739,190.95 c 0.813,0.138 1.614,0.31 2.39,0.546 -0.776,-0.235 -1.577,-0.408 -2.39,-0.546 z"
           id="path7147"
           inkscape:connector-curvature="0" /><path
           style="fill:#fdd44b"
           d="m 120.103,192.688 c 0.736,0.364 1.454,0.761 2.134,1.212 -0.681,-0.451 -1.397,-0.848 -2.134,-1.212 z"
           id="path7149"
           inkscape:connector-curvature="0" /><path
           style="fill:#fdd44b"
           d="m 128.133,200.018 c 0.457,0.745 0.875,1.517 1.231,2.323 -0.356,-0.806 -0.774,-1.578 -1.231,-2.323 z"
           id="path7151"
           inkscape:connector-curvature="0" /><path
           style="fill:#fdd44b"
           d="m 111.473,190.654 c 0.89,0 1.761,0.081 2.62,0.197 -0.86,-0.116 -1.73,-0.197 -2.62,-0.197 z"
           id="path7153"
           inkscape:connector-curvature="0" /><path
           style="fill:#fdd44b"
           d="m 122.287,193.93 c 0.721,0.481 1.401,1.017 2.051,1.588 -0.651,-0.57 -1.329,-1.107 -2.051,-1.588 z"
           id="path7155"
           inkscape:connector-curvature="0" /><path
           style="fill:#fdd44b"
           d="m 92.757,215.88 c -0.237,-0.779 -0.41,-1.585 -0.549,-2.402 0.138,0.818 0.312,1.622 0.549,2.402 z"
           id="path7157"
           inkscape:connector-curvature="0" /><path
           style="fill:#fdd44b"
           d="m 103.603,228.107 c -0.808,-0.357 -1.582,-0.776 -2.329,-1.235 0.747,0.46 1.52,0.878 2.329,1.235 z"
           id="path7159"
           inkscape:connector-curvature="0" /><path
           style="fill:#fdd44b"
           d="m 129.367,202.347 c -2.41,-1.064 -5.068,-1.665 -7.867,-1.665 -10.785,0 -19.56,8.774 -19.56,19.56 0,2.799 0.601,5.457 1.665,7.867 2.41,1.064 5.068,1.665 7.867,1.665 10.786,0 19.56,-8.774 19.56,-19.559 10e-4,-2.799 -0.601,-5.458 -1.665,-7.868 z"
           id="path7161"
           inkscape:connector-curvature="0" /><path
           style="fill:#fdd44b"
           d="m 97.042,223.371 c 1.176,1.288 2.515,2.419 3.995,3.357 -1.48,-0.937 -2.819,-2.07 -3.995,-3.357 z"
           id="path7163"
           inkscape:connector-curvature="0" /><path
           style="fill:#fdd44b"
           d="m 96.779,223.083 c -0.572,-0.651 -1.11,-1.335 -1.593,-2.058 0.482,0.724 1.021,1.405 1.593,2.058 z"
           id="path7165"
           inkscape:connector-curvature="0" /><path
           style="fill:#fdd44b"
           d="m 93.708,218.351 c -0.355,-0.771 -0.675,-1.561 -0.929,-2.382 0.254,0.821 0.574,1.611 0.929,2.382 z"
           id="path7167"
           inkscape:connector-curvature="0" /><path
           style="fill:#fdd44b"
           d="m 95.166,220.992 c -0.456,-0.686 -0.855,-1.41 -1.223,-2.153 0.368,0.744 0.768,1.467 1.223,2.153 z"
           id="path7169"
           inkscape:connector-curvature="0" /><path
           style="fill:#fdd44b"
           d="m 91.913,210.215 0,0 c 0,0.892 0.081,1.762 0.197,2.622 -0.116,-0.86 -0.197,-1.731 -0.197,-2.622 z"
           id="path7171"
           inkscape:connector-curvature="0" /></g><g
         id="g7173"><path
           style="fill:#fdd44b"
           d="m 168.9,190.95 c 0.813,0.138 1.614,0.31 2.39,0.546 -0.776,-0.235 -1.577,-0.408 -2.39,-0.546 z"
           id="path7175"
           inkscape:connector-curvature="0" /><path
           style="fill:#fdd44b"
           d="m 171.391,191.522 c 0.819,0.253 1.607,0.572 2.376,0.927 -0.77,-0.354 -1.557,-0.675 -2.376,-0.927 z"
           id="path7177"
           inkscape:connector-curvature="0" /><path
           style="fill:#fdd44b"
           d="m 176.448,193.93 c 0.721,0.481 1.401,1.017 2.051,1.588 -0.651,-0.57 -1.329,-1.107 -2.051,-1.588 z"
           id="path7179"
           inkscape:connector-curvature="0" /><path
           style="fill:#fdd44b"
           d="m 174.264,192.688 c 0.736,0.364 1.454,0.761 2.134,1.212 -0.681,-0.451 -1.397,-0.848 -2.134,-1.212 z"
           id="path7181"
           inkscape:connector-curvature="0" /><path
           style="fill:#fdd44b"
           d="m 182.145,199.774 c -0.937,-1.476 -2.065,-2.813 -3.35,-3.987 1.284,1.174 2.415,2.511 3.35,3.987 z"
           id="path7183"
           inkscape:connector-curvature="0" /><path
           style="fill:#fdd44b"
           d="m 165.634,190.654 c 0.89,0 1.761,0.081 2.62,0.197 -0.86,-0.116 -1.73,-0.197 -2.62,-0.197 z"
           id="path7185"
           inkscape:connector-curvature="0" /><path
           style="fill:#fdd44b"
           d="m 182.295,200.02 c 0.456,0.743 0.873,1.514 1.228,2.318 -0.355,-0.805 -0.771,-1.574 -1.228,-2.318 z"
           id="path7187"
           inkscape:connector-curvature="0" /><path
           style="fill:#fdd44b"
           d="m 157.764,228.107 c -0.808,-0.357 -1.582,-0.776 -2.329,-1.235 0.747,0.46 1.52,0.878 2.329,1.235 z"
           id="path7189"
           inkscape:connector-curvature="0" /><path
           style="fill:#fdd44b"
           d="m 151.203,223.371 c 1.176,1.288 2.515,2.419 3.994,3.357 -1.478,-0.937 -2.818,-2.07 -3.994,-3.357 z"
           id="path7191"
           inkscape:connector-curvature="0" /><path
           style="fill:#fdd44b"
           d="m 150.94,223.083 c -0.572,-0.651 -1.11,-1.335 -1.593,-2.058 0.482,0.724 1.021,1.405 1.593,2.058 z"
           id="path7193"
           inkscape:connector-curvature="0" /><path
           style="fill:#fdd44b"
           d="m 146.074,210.215 0,0 c 0,0.892 0.081,1.762 0.197,2.622 -0.116,-0.86 -0.197,-1.731 -0.197,-2.622 z"
           id="path7195"
           inkscape:connector-curvature="0" /><path
           style="fill:#fdd44b"
           d="m 183.528,202.347 c -2.41,-1.064 -5.067,-1.665 -7.867,-1.665 -10.786,0 -19.56,8.774 -19.56,19.56 0,2.799 0.601,5.457 1.665,7.867 2.41,1.064 5.068,1.665 7.867,1.665 10.786,0 19.56,-8.774 19.56,-19.559 10e-4,-2.799 -0.601,-5.457 -1.665,-7.868 z"
           id="path7197"
           inkscape:connector-curvature="0" /><path
           style="fill:#fdd44b"
           d="m 146.918,215.88 c -0.237,-0.779 -0.41,-1.585 -0.549,-2.402 0.138,0.818 0.312,1.622 0.549,2.402 z"
           id="path7199"
           inkscape:connector-curvature="0" /><path
           style="fill:#fdd44b"
           d="m 147.869,218.351 c -0.355,-0.771 -0.675,-1.561 -0.929,-2.382 0.254,0.821 0.574,1.611 0.929,2.382 z"
           id="path7201"
           inkscape:connector-curvature="0" /><path
           style="fill:#fdd44b"
           d="m 149.327,220.992 c -0.456,-0.686 -0.855,-1.41 -1.222,-2.153 0.367,0.744 0.767,1.467 1.222,2.153 z"
           id="path7203"
           inkscape:connector-curvature="0" /></g><g
         id="g7205"><path
           style="fill:#fdd44b"
           d="m 225.552,191.522 c 0.818,0.253 1.607,0.572 2.375,0.926 -0.769,-0.354 -1.556,-0.674 -2.375,-0.926 z"
           id="path7207"
           inkscape:connector-curvature="0" /><path
           style="fill:#fdd44b"
           d="m 228.426,192.689 c 0.734,0.364 1.451,0.759 2.131,1.21 -0.68,-0.45 -1.396,-0.847 -2.131,-1.21 z"
           id="path7209"
           inkscape:connector-curvature="0" /><path
           style="fill:#fdd44b"
           d="m 223.061,190.95 c 0.813,0.138 1.614,0.31 2.39,0.546 -0.776,-0.235 -1.576,-0.408 -2.39,-0.546 z"
           id="path7211"
           inkscape:connector-curvature="0" /><path
           style="fill:#fdd44b"
           d="m 230.609,193.93 c 0.72,0.481 1.4,1.016 2.049,1.586 -0.649,-0.569 -1.328,-1.105 -2.049,-1.586 z"
           id="path7213"
           inkscape:connector-curvature="0" /><path
           style="fill:#fdd44b"
           d="m 236.458,200.024 c 0.454,0.74 0.868,1.506 1.223,2.306 -0.354,-0.8 -0.768,-1.566 -1.223,-2.306 z"
           id="path7215"
           inkscape:connector-curvature="0" /><path
           style="fill:#fdd44b"
           d="m 219.795,190.654 c 0.89,0 1.761,0.081 2.62,0.197 -0.86,-0.116 -1.73,-0.197 -2.62,-0.197 z"
           id="path7217"
           inkscape:connector-curvature="0" /><path
           style="fill:#fdd44b"
           d="m 200.235,210.215 0,0 c 0,0.892 0.081,1.762 0.197,2.622 -0.116,-0.86 -0.197,-1.731 -0.197,-2.622 z"
           id="path7219"
           inkscape:connector-curvature="0" /><path
           style="fill:#fdd44b"
           d="m 236.304,199.771 c -0.936,-1.474 -2.063,-2.81 -3.346,-3.982 1.282,1.173 2.412,2.508 3.346,3.982 z"
           id="path7221"
           inkscape:connector-curvature="0" /><path
           style="fill:#fdd44b"
           d="m 201.079,215.88 c -0.237,-0.779 -0.41,-1.585 -0.549,-2.402 0.138,0.818 0.312,1.622 0.549,2.402 z"
           id="path7223"
           inkscape:connector-curvature="0" /><path
           style="fill:#fdd44b"
           d="m 211.925,228.107 c -0.808,-0.357 -1.582,-0.776 -2.329,-1.235 0.747,0.46 1.52,0.878 2.329,1.235 z"
           id="path7225"
           inkscape:connector-curvature="0" /><path
           style="fill:#fdd44b"
           d="m 237.689,202.347 c -2.41,-1.063 -5.067,-1.665 -7.866,-1.665 -10.786,0 -19.56,8.774 -19.56,19.56 0,2.799 0.601,5.457 1.665,7.867 2.41,1.064 5.068,1.665 7.867,1.665 10.786,0 19.56,-8.774 19.56,-19.559 -10e-4,-2.799 -0.602,-5.458 -1.666,-7.868 z"
           id="path7227"
           inkscape:connector-curvature="0" /><path
           style="fill:#fdd44b"
           d="m 205.364,223.371 c 1.176,1.288 2.515,2.419 3.995,3.357 -1.479,-0.937 -2.819,-2.07 -3.995,-3.357 z"
           id="path7229"
           inkscape:connector-curvature="0" /><path
           style="fill:#fdd44b"
           d="m 205.101,223.083 c -0.572,-0.651 -1.111,-1.335 -1.593,-2.058 0.483,0.724 1.021,1.405 1.593,2.058 z"
           id="path7231"
           inkscape:connector-curvature="0" /><path
           style="fill:#fdd44b"
           d="m 202.031,218.351 c -0.355,-0.771 -0.675,-1.561 -0.929,-2.382 0.253,0.821 0.574,1.611 0.929,2.382 z"
           id="path7233"
           inkscape:connector-curvature="0" /><path
           style="fill:#fdd44b"
           d="m 203.489,220.992 c -0.456,-0.686 -0.855,-1.41 -1.223,-2.153 0.367,0.744 0.767,1.467 1.223,2.153 z"
           id="path7235"
           inkscape:connector-curvature="0" /></g><g
         id="g7237"><path
           style="fill:#fdd44b"
           d="m 282.586,192.688 c 0.736,0.364 1.454,0.761 2.134,1.212 -0.681,-0.451 -1.398,-0.848 -2.134,-1.212 z"
           id="path7239"
           inkscape:connector-curvature="0" /><path
           style="fill:#fdd44b"
           d="m 279.713,191.522 c 0.819,0.253 1.607,0.572 2.376,0.927 -0.77,-0.354 -1.558,-0.675 -2.376,-0.927 z"
           id="path7241"
           inkscape:connector-curvature="0" /><path
           style="fill:#fdd44b"
           d="m 277.222,190.95 c 0.813,0.138 1.615,0.31 2.39,0.546 -0.776,-0.235 -1.577,-0.409 -2.39,-0.546 z"
           id="path7243"
           inkscape:connector-curvature="0" /><path
           style="fill:#fdd44b"
           d="m 290.616,200.019 c 0.456,0.744 0.873,1.514 1.229,2.319 -0.356,-0.805 -0.772,-1.575 -1.229,-2.319 z"
           id="path7245"
           inkscape:connector-curvature="0" /><path
           style="fill:#fdd44b"
           d="m 284.769,193.93 c 0.721,0.481 1.401,1.017 2.051,1.588 -0.65,-0.57 -1.329,-1.107 -2.051,-1.588 z"
           id="path7247"
           inkscape:connector-curvature="0" /><path
           style="fill:#fdd44b"
           d="m 290.468,199.775 c -0.937,-1.476 -2.065,-2.814 -3.351,-3.988 1.284,1.175 2.415,2.512 3.351,3.988 z"
           id="path7249"
           inkscape:connector-curvature="0" /><path
           style="fill:#fdd44b"
           d="m 273.956,190.654 c 0.89,0 1.761,0.081 2.62,0.197 -0.86,-0.116 -1.73,-0.197 -2.62,-0.197 z"
           id="path7251"
           inkscape:connector-curvature="0" /><path
           style="fill:#fdd44b"
           d="m 254.396,210.215 0,0 c 0,0.966 0.077,1.913 0.213,2.842 -0.136,-0.929 -0.213,-1.877 -0.213,-2.842 z"
           id="path7253"
           inkscape:connector-curvature="0" /><path
           style="fill:#fdd44b"
           d="m 263.994,226.998 c 0.224,0.134 0.431,0.293 0.661,0.418 0.01,0.001 0.021,0.002 0.033,0.002 0.03,0.019 0.059,0.039 0.088,0.058 0.287,0.153 0.595,0.27 0.89,0.409 -0.573,-0.27 -1.131,-0.565 -1.672,-0.887 z"
           id="path7255"
           inkscape:connector-curvature="0" /><path
           style="fill:#fdd44b"
           d="m 263.211,226.504 c -0.496,-0.328 -0.975,-0.678 -1.439,-1.048 0.464,0.371 0.942,0.719 1.439,1.048 z"
           id="path7257"
           inkscape:connector-curvature="0" /><path
           style="fill:#fdd44b"
           d="m 255.216,215.776 c -0.179,-0.601 -0.301,-1.224 -0.422,-1.847 0.12,0.623 0.243,1.245 0.422,1.847 z"
           id="path7259"
           inkscape:connector-curvature="0" /><path
           style="fill:#fdd44b"
           d="m 259.795,223.634 c 0.401,0.423 0.813,0.828 1.25,1.214 -0.437,-0.385 -0.85,-0.793 -1.25,-1.214 z"
           id="path7261"
           inkscape:connector-curvature="0" /><path
           style="fill:#fdd44b"
           d="m 291.85,202.347 c -2.41,-1.064 -5.067,-1.665 -7.866,-1.665 -10.786,0 -19.56,8.774 -19.56,19.56 0,2.786 0.597,5.43 1.652,7.831 2.417,1.073 5.072,1.701 7.881,1.701 10.785,0 19.56,-8.774 19.56,-19.559 -0.002,-2.799 -0.603,-5.457 -1.667,-7.868 z"
           id="path7263"
           inkscape:connector-curvature="0" /><path
           style="fill:#fdd44b"
           d="m 256.189,218.346 c -0.241,-0.523 -0.436,-1.07 -0.63,-1.616 0.194,0.547 0.389,1.092 0.63,1.616 z"
           id="path7265"
           inkscape:connector-curvature="0" /><path
           style="fill:#fdd44b"
           d="m 257.503,220.735 c -0.306,-0.476 -0.575,-0.976 -0.84,-1.479 0.265,0.504 0.534,1.002 0.84,1.479 z"
           id="path7267"
           inkscape:connector-curvature="0" /><path
           style="fill:#fdd44b"
           d="m 259.131,222.913 c -0.372,-0.432 -0.714,-0.889 -1.047,-1.353 0.333,0.465 0.675,0.92 1.047,1.353 z"
           id="path7269"
           inkscape:connector-curvature="0" /></g><g
         id="g7271"><path
           style="fill:#fdd44b"
           d="m 147.18,239.541 c 0.741,0.367 1.465,0.766 2.149,1.221 -0.685,-0.455 -1.407,-0.854 -2.149,-1.221 z"
           id="path7273"
           inkscape:connector-curvature="0" /><path
           style="fill:#fdd44b"
           d="m 141.818,237.804 c 0.815,0.138 1.619,0.312 2.397,0.547 -0.778,-0.235 -1.581,-0.409 -2.397,-0.547 z"
           id="path7275"
           inkscape:connector-curvature="0" /><path
           style="fill:#fdd44b"
           d="m 144.309,238.376 c 0.82,0.253 1.61,0.573 2.38,0.928 -0.771,-0.354 -1.56,-0.675 -2.38,-0.928 z"
           id="path7277"
           inkscape:connector-curvature="0" /><path
           style="fill:#fdd44b"
           d="m 149.364,240.783 c 0.724,0.483 1.406,1.021 2.058,1.593 -0.652,-0.573 -1.334,-1.111 -2.058,-1.593 z"
           id="path7279"
           inkscape:connector-curvature="0" /><path
           style="fill:#fdd44b"
           d="m 151.71,242.638 c 1.287,1.176 2.42,2.516 3.357,3.995 -0.938,-1.48 -2.068,-2.819 -3.357,-3.995 z"
           id="path7281"
           inkscape:connector-curvature="0" /><path
           style="fill:#fdd44b"
           d="m 138.553,237.509 c 0.891,0 1.762,0.081 2.621,0.197 -0.859,-0.116 -1.73,-0.197 -2.621,-0.197 z"
           id="path7283"
           inkscape:connector-curvature="0" /><path
           style="fill:#fdd44b"
           d="m 120.788,265.205 c -0.355,-0.77 -0.675,-1.56 -0.928,-2.381 0.253,0.821 0.574,1.61 0.928,2.381 z"
           id="path7285"
           inkscape:connector-curvature="0" /><path
           style="fill:#fdd44b"
           d="m 124.12,270.224 c 1.178,1.291 2.52,2.423 4.003,3.363 -1.482,-0.938 -2.825,-2.074 -4.003,-3.363 z"
           id="path7287"
           inkscape:connector-curvature="0" /><path
           style="fill:#fdd44b"
           d="m 123.861,269.939 c -0.573,-0.652 -1.111,-1.336 -1.595,-2.06 0.483,0.726 1.022,1.407 1.595,2.06 z"
           id="path7289"
           inkscape:connector-curvature="0" /><path
           style="fill:#fdd44b"
           d="m 119.19,259.689 c -0.116,-0.859 -0.197,-1.729 -0.197,-2.62 0,0.891 0.081,1.76 0.197,2.62 z"
           id="path7291"
           inkscape:connector-curvature="0" /><path
           style="fill:#fdd44b"
           d="m 155.211,246.869 c 0.46,0.748 0.879,1.524 1.237,2.333 -2.41,-1.064 -5.068,-1.665 -7.867,-1.665 -10.786,0 -19.56,8.774 -19.56,19.56 0,2.799 0.601,5.457 1.665,7.867 -0.813,-0.359 -1.591,-0.779 -2.341,-1.241 2.976,1.831 6.465,2.907 10.208,2.907 10.786,0 19.56,-8.775 19.56,-19.561 0,-3.74 -1.074,-7.225 -2.902,-10.2 z"
           id="path7293"
           inkscape:connector-curvature="0" /><path
           style="fill:#fdd44b"
           d="m 122.247,267.847 c -0.455,-0.685 -0.854,-1.41 -1.222,-2.152 0.367,0.743 0.767,1.466 1.222,2.152 z"
           id="path7295"
           inkscape:connector-curvature="0" /><path
           style="fill:#fdd44b"
           d="m 119.836,262.732 c -0.236,-0.778 -0.409,-1.581 -0.547,-2.397 0.138,0.816 0.311,1.619 0.547,2.397 z"
           id="path7297"
           inkscape:connector-curvature="0" /></g><g
         id="g7299"><path
           style="fill:#fdd44b"
           d="m 171.389,285.213 c 0.82,0.253 1.61,0.573 2.38,0.928 -0.77,-0.354 -1.559,-0.675 -2.38,-0.928 z"
           id="path7301"
           inkscape:connector-curvature="0" /><path
           style="fill:#fdd44b"
           d="m 174.261,286.378 c 0.741,0.367 1.464,0.765 2.149,1.22 -0.686,-0.454 -1.408,-0.853 -2.149,-1.22 z"
           id="path7303"
           inkscape:connector-curvature="0" /><path
           style="fill:#fdd44b"
           d="m 165.634,284.347 c 0.891,0 1.762,0.08 2.621,0.196 -0.86,-0.116 -1.73,-0.196 -2.621,-0.196 z"
           id="path7305"
           inkscape:connector-curvature="0" /><path
           style="fill:#fdd44b"
           d="m 178.791,289.475 c 1.287,1.176 2.42,2.516 3.357,3.995 -0.938,-1.479 -2.068,-2.819 -3.357,-3.995 z"
           id="path7307"
           inkscape:connector-curvature="0" /><path
           style="fill:#fdd44b"
           d="m 168.9,284.642 c 0.815,0.138 1.618,0.311 2.396,0.547 -0.779,-0.236 -1.581,-0.409 -2.396,-0.547 z"
           id="path7309"
           inkscape:connector-curvature="0" /><path
           style="fill:#fdd44b"
           d="m 176.445,287.62 c 0.723,0.483 1.406,1.021 2.057,1.593 -0.652,-0.572 -1.333,-1.111 -2.057,-1.593 z"
           id="path7311"
           inkscape:connector-curvature="0" /><path
           style="fill:#fdd44b"
           d="m 146.916,309.568 c -0.236,-0.778 -0.409,-1.581 -0.547,-2.396 0.138,0.815 0.312,1.618 0.547,2.396 z"
           id="path7313"
           inkscape:connector-curvature="0" /><path
           style="fill:#fdd44b"
           d="m 150.94,316.775 c -0.572,-0.651 -1.11,-1.334 -1.593,-2.057 0.483,0.723 1.021,1.404 1.593,2.057 z"
           id="path7315"
           inkscape:connector-curvature="0" /><path
           style="fill:#fdd44b"
           d="m 151.203,317.063 c 1.176,1.289 2.516,2.419 3.995,3.357 -1.479,-0.937 -2.819,-2.07 -3.995,-3.357 z"
           id="path7317"
           inkscape:connector-curvature="0" /><path
           style="fill:#fdd44b"
           d="m 182.292,293.706 c 0.459,0.748 0.879,1.524 1.237,2.333 -2.41,-1.064 -5.068,-1.665 -7.867,-1.665 -10.786,0 -19.56,8.774 -19.56,19.56 0,2.799 0.601,5.457 1.665,7.867 -0.81,-0.357 -1.585,-0.777 -2.333,-1.237 2.974,1.828 6.46,2.902 10.2,2.902 10.786,0 19.56,-8.774 19.56,-19.56 0,-3.74 -1.074,-7.226 -2.902,-10.2 z"
           id="path7319"
           inkscape:connector-curvature="0" /><path
           style="fill:#fdd44b"
           d="m 149.326,314.682 c -0.455,-0.685 -0.853,-1.408 -1.22,-2.149 0.367,0.742 0.766,1.464 1.22,2.149 z"
           id="path7321"
           inkscape:connector-curvature="0" /><path
           style="fill:#fdd44b"
           d="m 147.869,312.042 c -0.355,-0.77 -0.675,-1.56 -0.928,-2.38 0.253,0.82 0.573,1.609 0.928,2.38 z"
           id="path7323"
           inkscape:connector-curvature="0" /><path
           style="fill:#fdd44b"
           d="m 146.271,306.527 c -0.116,-0.859 -0.197,-1.73 -0.197,-2.621 0,0.891 0.081,1.762 0.197,2.621 z"
           id="path7325"
           inkscape:connector-curvature="0" /></g><g
         id="g7327"><path
           style="fill:#fdd44b"
           d="m 228.423,286.379 c 0.74,0.367 1.462,0.764 2.145,1.218 -0.684,-0.453 -1.405,-0.852 -2.145,-1.218 z"
           id="path7329"
           inkscape:connector-curvature="0" /><path
           style="fill:#fdd44b"
           d="m 230.607,287.62 c 0.723,0.482 1.405,1.02 2.055,1.591 -0.652,-0.571 -1.332,-1.109 -2.055,-1.591 z"
           id="path7331"
           inkscape:connector-curvature="0" /><path
           style="fill:#fdd44b"
           d="m 225.551,285.213 c 0.82,0.253 1.609,0.573 2.379,0.928 -0.771,-0.355 -1.559,-0.675 -2.379,-0.928 z"
           id="path7333"
           inkscape:connector-curvature="0" /><path
           style="fill:#fdd44b"
           d="m 236.455,293.71 c 0.457,0.745 0.875,1.517 1.231,2.322 -0.356,-0.806 -0.773,-1.577 -1.231,-2.322 z"
           id="path7335"
           inkscape:connector-curvature="0" /><path
           style="fill:#fdd44b"
           d="m 223.061,284.642 c 0.815,0.138 1.618,0.311 2.395,0.547 -0.778,-0.236 -1.58,-0.409 -2.395,-0.547 z"
           id="path7337"
           inkscape:connector-curvature="0" /><path
           style="fill:#fdd44b"
           d="m 236.307,293.467 c -0.937,-1.478 -2.066,-2.816 -3.353,-3.99 1.285,1.175 2.417,2.513 3.353,3.99 z"
           id="path7339"
           inkscape:connector-curvature="0" /><path
           style="fill:#fdd44b"
           d="m 219.795,284.347 c 0.891,0 1.762,0.08 2.621,0.196 -0.86,-0.116 -1.73,-0.196 -2.621,-0.196 z"
           id="path7341"
           inkscape:connector-curvature="0" /><path
           style="fill:#fdd44b"
           d="m 205.101,316.775 c -0.572,-0.651 -1.11,-1.334 -1.593,-2.057 0.483,0.723 1.021,1.404 1.593,2.057 z"
           id="path7343"
           inkscape:connector-curvature="0" /><path
           style="fill:#fdd44b"
           d="m 200.432,306.527 c -0.116,-0.859 -0.197,-1.73 -0.197,-2.621 0,0.891 0.081,1.762 0.197,2.621 z"
           id="path7345"
           inkscape:connector-curvature="0" /><path
           style="fill:#fdd44b"
           d="m 237.689,296.039 c -2.41,-1.064 -5.067,-1.665 -7.867,-1.665 -10.786,0 -19.56,8.774 -19.56,19.56 0,2.799 0.601,5.457 1.665,7.867 -0.81,-0.357 -1.585,-0.777 -2.333,-1.237 2.974,1.828 6.46,2.902 10.2,2.902 10.786,0 19.56,-8.774 19.56,-19.56 0,-2.799 -0.601,-5.457 -1.665,-7.867 z"
           id="path7347"
           inkscape:connector-curvature="0" /><path
           style="fill:#fdd44b"
           d="m 205.364,317.063 c 1.176,1.289 2.516,2.419 3.995,3.357 -1.479,-0.937 -2.819,-2.07 -3.995,-3.357 z"
           id="path7349"
           inkscape:connector-curvature="0" /><path
           style="fill:#fdd44b"
           d="m 201.078,309.568 c -0.236,-0.778 -0.409,-1.581 -0.547,-2.396 0.137,0.815 0.311,1.618 0.547,2.396 z"
           id="path7351"
           inkscape:connector-curvature="0" /><path
           style="fill:#fdd44b"
           d="m 202.03,312.042 c -0.355,-0.77 -0.674,-1.56 -0.928,-2.38 0.253,0.82 0.574,1.609 0.928,2.38 z"
           id="path7353"
           inkscape:connector-curvature="0" /><path
           style="fill:#fdd44b"
           d="m 203.487,314.682 c -0.455,-0.685 -0.853,-1.408 -1.22,-2.149 0.367,0.742 0.766,1.464 1.22,2.149 z"
           id="path7355"
           inkscape:connector-curvature="0" /></g><g
         id="g7357"><path
           style="fill:#fdd44b"
           d="m 201.342,333.299 c 0.74,0.366 1.462,0.764 2.146,1.218 -0.685,-0.453 -1.405,-0.852 -2.146,-1.218 z"
           id="path7359"
           inkscape:connector-curvature="0" /><path
           style="fill:#fdd44b"
           d="m 198.47,332.134 c 0.82,0.253 1.609,0.573 2.379,0.928 -0.77,-0.355 -1.559,-0.675 -2.379,-0.928 z"
           id="path7361"
           inkscape:connector-curvature="0" /><path
           style="fill:#fdd44b"
           d="m 203.526,334.541 c 0.723,0.482 1.406,1.02 2.057,1.592 -0.652,-0.572 -1.333,-1.11 -2.057,-1.592 z"
           id="path7363"
           inkscape:connector-curvature="0" /><path
           style="fill:#fdd44b"
           d="m 195.98,331.562 c 0.815,0.138 1.619,0.311 2.396,0.547 -0.778,-0.235 -1.581,-0.409 -2.396,-0.547 z"
           id="path7365"
           inkscape:connector-curvature="0" /><path
           style="fill:#fdd44b"
           d="m 209.372,340.627 c 0.46,0.748 0.879,1.523 1.237,2.333 -2.41,-1.064 -5.068,-1.665 -7.867,-1.665 -10.786,0 -19.56,8.774 -19.56,19.56 0,2.799 0.601,5.457 1.665,7.867 -0.81,-0.358 -1.585,-0.777 -2.333,-1.237 2.974,1.828 6.46,2.902 10.2,2.902 10.785,0 19.56,-8.774 19.56,-19.56 0,-3.74 -1.073,-7.226 -2.902,-10.2 z"
           id="path7367"
           inkscape:connector-curvature="0" /><path
           style="fill:#fdd44b"
           d="m 192.715,331.267 c 0.891,0 1.762,0.08 2.621,0.196 -0.86,-0.115 -1.731,-0.196 -2.621,-0.196 z"
           id="path7369"
           inkscape:connector-curvature="0" /><path
           style="fill:#fdd44b"
           d="m 205.871,336.395 c 1.287,1.176 2.42,2.516 3.357,3.995 -0.938,-1.479 -2.068,-2.819 -3.357,-3.995 z"
           id="path7371"
           inkscape:connector-curvature="0" /><path
           style="fill:#fdd44b"
           d="m 178.02,363.694 c -0.572,-0.651 -1.11,-1.333 -1.592,-2.057 0.482,0.725 1.02,1.405 1.592,2.057 z"
           id="path7373"
           inkscape:connector-curvature="0" /><path
           style="fill:#fdd44b"
           d="m 173.351,353.446 c -0.116,-0.859 -0.196,-1.729 -0.196,-2.62 0,0.891 0.08,1.761 0.196,2.62 z"
           id="path7375"
           inkscape:connector-curvature="0" /><path
           style="fill:#fdd44b"
           d="m 176.407,361.603 c -0.454,-0.685 -0.853,-1.408 -1.22,-2.149 0.366,0.741 0.765,1.463 1.22,2.149 z"
           id="path7377"
           inkscape:connector-curvature="0" /><path
           style="fill:#fdd44b"
           d="m 178.284,363.985 c 1.175,1.288 2.515,2.418 3.994,3.356 -1.478,-0.937 -2.818,-2.07 -3.994,-3.356 z"
           id="path7379"
           inkscape:connector-curvature="0" /><path
           style="fill:#fdd44b"
           d="m 174.949,358.962 c -0.355,-0.77 -0.674,-1.56 -0.928,-2.38 0.254,0.821 0.574,1.609 0.928,2.38 z"
           id="path7381"
           inkscape:connector-curvature="0" /><path
           style="fill:#fdd44b"
           d="m 173.997,356.489 c -0.236,-0.778 -0.409,-1.581 -0.547,-2.396 0.138,0.815 0.311,1.617 0.547,2.396 z"
           id="path7383"
           inkscape:connector-curvature="0" /></g><g
         id="g7385"><path
           style="fill:#fdd44b"
           d="m 198.47,238.376 c 0.82,0.253 1.609,0.573 2.379,0.928 -0.77,-0.355 -1.559,-0.675 -2.379,-0.928 z"
           id="path7387"
           inkscape:connector-curvature="0" /><path
           style="fill:#fdd44b"
           d="m 173.351,259.689 c -0.116,-0.859 -0.196,-1.729 -0.196,-2.62 0,0.891 0.08,1.76 0.196,2.62 z"
           id="path7389"
           inkscape:connector-curvature="0" /><path
           style="fill:#fdd44b"
           d="m 195.98,237.804 c 0.815,0.138 1.619,0.312 2.396,0.547 -0.778,-0.235 -1.581,-0.409 -2.396,-0.547 z"
           id="path7391"
           inkscape:connector-curvature="0" /><path
           style="fill:#fdd44b"
           d="m 201.342,239.542 c 0.74,0.367 1.462,0.765 2.146,1.218 -0.685,-0.454 -1.405,-0.852 -2.146,-1.218 z"
           id="path7393"
           inkscape:connector-curvature="0" /><path
           style="fill:#fdd44b"
           d="m 203.526,240.783 c 0.723,0.483 1.406,1.02 2.057,1.592 -0.652,-0.571 -1.333,-1.109 -2.057,-1.592 z"
           id="path7395"
           inkscape:connector-curvature="0" /><path
           style="fill:#fdd44b"
           d="m 192.715,237.509 c 0.891,0 1.762,0.081 2.621,0.197 -0.86,-0.116 -1.731,-0.197 -2.621,-0.197 z"
           id="path7397"
           inkscape:connector-curvature="0" /><path
           style="fill:#fdd44b"
           d="m 205.871,242.638 c 1.287,1.176 2.42,2.516 3.357,3.995 -0.938,-1.48 -2.068,-2.819 -3.357,-3.995 z"
           id="path7399"
           inkscape:connector-curvature="0" /><path
           style="fill:#fdd44b"
           d="m 178.022,269.939 c -0.573,-0.652 -1.111,-1.336 -1.594,-2.06 0.482,0.726 1.021,1.407 1.594,2.06 z"
           id="path7401"
           inkscape:connector-curvature="0" /><path
           style="fill:#fdd44b"
           d="m 178.281,270.224 c 1.178,1.291 2.52,2.423 4.002,3.363 -1.481,-0.938 -2.824,-2.074 -4.002,-3.363 z"
           id="path7403"
           inkscape:connector-curvature="0" /><path
           style="fill:#fdd44b"
           d="m 209.372,246.869 c 0.46,0.748 0.879,1.524 1.237,2.333 -2.41,-1.064 -5.068,-1.665 -7.867,-1.665 -10.786,0 -19.56,8.774 -19.56,19.56 0,2.799 0.601,5.457 1.665,7.867 -0.813,-0.359 -1.591,-0.779 -2.341,-1.241 2.976,1.831 6.465,2.907 10.208,2.907 10.785,0 19.56,-8.775 19.56,-19.561 0,-3.74 -1.073,-7.225 -2.902,-10.2 z"
           id="path7405"
           inkscape:connector-curvature="0" /><path
           style="fill:#fdd44b"
           d="m 176.408,267.847 c -0.456,-0.685 -0.854,-1.41 -1.222,-2.152 0.367,0.743 0.767,1.466 1.222,2.152 z"
           id="path7407"
           inkscape:connector-curvature="0" /><path
           style="fill:#fdd44b"
           d="m 174.949,265.205 c -0.355,-0.77 -0.674,-1.56 -0.928,-2.381 0.254,0.821 0.574,1.61 0.928,2.381 z"
           id="path7409"
           inkscape:connector-curvature="0" /><path
           style="fill:#fdd44b"
           d="m 173.998,262.732 c -0.236,-0.778 -0.409,-1.581 -0.548,-2.397 0.138,0.816 0.312,1.619 0.548,2.397 z"
           id="path7411"
           inkscape:connector-curvature="0" /></g><g
         id="g7413"><path
           style="fill:#fdd44b"
           d="m 255.505,239.543 c 0.738,0.365 1.457,0.762 2.139,1.215 -0.682,-0.453 -1.401,-0.85 -2.139,-1.215 z"
           id="path7415"
           inkscape:connector-curvature="0" /><path
           style="fill:#fdd44b"
           d="m 250.142,237.805 c 0.813,0.138 1.615,0.31 2.391,0.546 -0.777,-0.235 -1.577,-0.408 -2.391,-0.546 z"
           id="path7417"
           inkscape:connector-curvature="0" /><path
           style="fill:#fdd44b"
           d="m 246.877,237.509 c 0.89,0 1.76,0.081 2.619,0.197 -0.859,-0.116 -1.729,-0.197 -2.619,-0.197 z"
           id="path7419"
           inkscape:connector-curvature="0" /><path
           style="fill:#fdd44b"
           d="m 252.632,238.377 c 0.819,0.253 1.608,0.572 2.376,0.926 -0.769,-0.354 -1.557,-0.674 -2.376,-0.926 z"
           id="path7421"
           inkscape:connector-curvature="0" /><path
           style="fill:#fdd44b"
           d="m 227.316,257.069 c 0,-1.348 0.137,-2.665 0.398,-3.937 -0.261,1.272 -0.398,2.589 -0.398,3.937 z"
           id="path7423"
           inkscape:connector-curvature="0" /><path
           style="fill:#fdd44b"
           d="m 257.688,240.784 c 0.721,0.482 1.402,1.018 2.052,1.589 -0.65,-0.571 -1.329,-1.108 -2.052,-1.589 z"
           id="path7425"
           inkscape:connector-curvature="0" /><path
           style="fill:#fdd44b"
           d="m 263.537,246.875 c 0.456,0.743 0.873,1.513 1.228,2.317 -0.356,-0.804 -0.772,-1.574 -1.228,-2.317 z"
           id="path7427"
           inkscape:connector-curvature="0" /><path
           style="fill:#fdd44b"
           d="m 263.387,246.629 c -0.937,-1.476 -2.065,-2.814 -3.351,-3.987 1.284,1.174 2.415,2.511 3.351,3.987 z"
           id="path7429"
           inkscape:connector-curvature="0" /><path
           style="fill:#fdd44b"
           d="m 230.571,267.851 c -0.457,-0.687 -0.857,-1.414 -1.225,-2.158 0.368,0.745 0.769,1.471 1.225,2.158 z"
           id="path7431"
           inkscape:connector-curvature="0" /><path
           style="fill:#fdd44b"
           d="m 232.44,270.222 c 1.179,1.293 2.523,2.426 4.006,3.366 -1.483,-0.939 -2.827,-2.075 -4.006,-3.366 z"
           id="path7433"
           inkscape:connector-curvature="0" /><path
           style="fill:#fdd44b"
           d="m 232.184,269.941 c -0.574,-0.653 -1.113,-1.337 -1.597,-2.062 0.484,0.725 1.024,1.408 1.597,2.062 z"
           id="path7435"
           inkscape:connector-curvature="0" /><path
           style="fill:#fdd44b"
           d="m 264.77,249.202 c -2.41,-1.064 -5.067,-1.665 -7.866,-1.665 -10.786,0 -19.56,8.774 -19.56,19.56 0,2.799 0.601,5.457 1.665,7.867 -0.814,-0.359 -1.593,-0.78 -2.344,-1.243 2.977,1.832 6.466,2.909 10.211,2.909 10.786,0 19.56,-8.775 19.56,-19.561 -10e-4,-2.799 -0.603,-5.457 -1.666,-7.867 z"
           id="path7437"
           inkscape:connector-curvature="0" /><path
           style="fill:#fdd44b"
           d="m 229.111,265.207 c -0.355,-0.771 -0.675,-1.562 -0.929,-2.383 0.254,0.821 0.574,1.611 0.929,2.383 z"
           id="path7439"
           inkscape:connector-curvature="0" /><path
           style="fill:#fdd44b"
           d="m 246.875,237.509 0,0 c -9.438,0 -17.335,6.718 -19.162,15.623 1.828,-8.905 9.726,-15.623 19.162,-15.623 z"
           id="path7441"
           inkscape:connector-curvature="0" /><path
           style="fill:#fdd44b"
           d="m 227.316,257.069 c 0,0.891 0.081,1.761 0.197,2.621 -0.117,-0.859 -0.197,-1.73 -0.197,-2.621 z"
           id="path7443"
           inkscape:connector-curvature="0" /><path
           style="fill:#fdd44b"
           d="m 227.611,260.335 c 0.138,0.818 0.312,1.623 0.549,2.403 -0.237,-0.78 -0.41,-1.586 -0.549,-2.403 z"
           id="path7445"
           inkscape:connector-curvature="0" /></g><path
         style="fill:#3f2d20"
         d="m 308.557,210.215 c 0,-17.347 -12.83,-31.749 -29.499,-34.223 1.549,-3.922 2.419,-8.182 2.419,-12.648 0,-19.079 -15.521,-34.601 -34.601,-34.601 -10.958,0 -20.729,5.134 -27.073,13.11 -4.847,-6.101 -11.708,-10.525 -19.567,-12.276 l 0,-31.403 c -0.012,-22.546 2.379,-52.524 23.188,-52.574 0.012,0 0.023,0 0.033,0 3.895,0 7.158,1.629 9.702,4.843 3.2,4.043 4.649,10.163 3.523,14.884 -0.966,4.039 1.53,8.096 5.57,9.06 4.04,0.964 8.097,-1.529 9.06,-5.57 2.192,-9.184 -0.305,-20.06 -6.357,-27.708 -5.386,-6.806 -13.019,-10.551 -21.497,-10.551 -0.022,0 -0.046,0 -0.068,0 -10.068,0.023 -17.479,3.569 -22.939,9.081 -0.521,-1.419 -1.105,-2.844 -1.783,-4.27 -7.912,-16.623 -24.597,-28.438 -49.589,-35.117 -2.342,-0.623 -4.839,-0.076 -6.711,1.46 -1.872,1.535 -2.891,3.888 -2.735,6.307 0.006,0.089 0.433,7.277 -1.289,17.389 -9.956,-2.785 -26.738,-4.269 -44.413,8.22 -2.473,1.747 -3.563,4.712 -3.049,7.506 l -0.006,10e-4 c 0.011,0.06 0.024,0.117 0.036,0.176 0.007,0.033 0.013,0.066 0.019,0.098 3.989,21.094 16.957,31.685 25.989,36.626 -5.829,8.437 -11.155,13.279 -11.211,13.33 -1.812,1.617 -2.733,4.009 -2.471,6.424 0.262,2.414 1.674,4.553 3.791,5.744 15.034,8.451 29.016,12.688 41.787,12.688 6.385,0 12.47,-1.06 18.227,-3.183 7.506,-2.768 13.479,-7.016 18.153,-11.535 l 0,28.073 c -7.861,1.753 -14.723,6.182 -19.571,12.287 -6.342,-7.981 -16.107,-13.121 -27.07,-13.121 -19.079,0 -34.601,15.522 -34.601,34.601 0,4.466 0.859,8.735 2.407,12.658 -16.661,2.48 -29.488,16.872 -29.488,34.213 0,17.338 12.821,31.736 29.479,34.218 -1.545,3.915 -2.398,8.177 -2.398,12.635 0,17.34 12.824,31.731 29.483,34.213 -1.542,3.914 -2.402,8.169 -2.402,12.624 0,17.351 12.838,31.756 29.512,34.224 -1.561,3.934 -2.432,8.213 -2.432,12.696 0,19.079 15.522,34.601 34.601,34.601 19.079,0 34.601,-15.522 34.601,-34.601 0,-4.482 -0.863,-8.764 -2.423,-12.697 16.67,-2.474 29.503,-16.877 29.503,-34.223 0,-4.458 -0.858,-8.715 -2.401,-12.631 16.657,-2.481 29.482,-16.867 29.482,-34.207 0,-4.464 -0.864,-8.727 -2.411,-12.648 16.662,-2.475 29.49,-16.861 29.49,-34.203 z m -34.601,19.559 c -3.316,0 -6.44,-0.835 -9.179,-2.298 -0.03,-0.019 -0.059,-0.039 -0.088,-0.058 -0.012,0 -0.023,-0.001 -0.033,-0.002 -6.105,-3.314 -10.259,-9.781 -10.259,-17.201 0,-10.786 8.774,-19.561 19.56,-19.561 10.786,0 19.56,8.775 19.56,19.561 -0.002,10.785 -8.776,19.559 -19.561,19.559 z m -46.64,27.295 c 0,-10.785 8.774,-19.56 19.559,-19.56 10.786,0 19.56,8.774 19.56,19.56 0,10.786 -8.774,19.561 -19.56,19.561 -10.785,0 -19.559,-8.775 -19.559,-19.561 z m -7.521,66.397 c -10.785,0 -19.56,-8.774 -19.56,-19.56 0,-10.785 8.774,-19.56 19.56,-19.56 10.786,0 19.559,8.774 19.559,19.56 0,10.786 -8.773,19.56 -19.559,19.56 z M 138.553,276.63 c -10.786,0 -19.56,-8.775 -19.56,-19.561 0,-10.785 8.774,-19.56 19.56,-19.56 10.786,0 19.56,8.774 19.56,19.56 0,10.786 -8.774,19.561 -19.56,19.561 z m -27.08,-46.856 c -10.785,0 -19.56,-8.774 -19.56,-19.559 0,-10.786 8.774,-19.561 19.56,-19.561 10.786,0 19.56,8.775 19.56,19.561 0,10.785 -8.775,19.559 -19.56,19.559 z M 161.695,98.979 c -10.864,3.95 -23.837,2.546 -38.663,-4.166 3.412,-4.07 7.57,-9.648 11.462,-16.52 1.155,-2.04 1.319,-4.494 0.401,-6.649 -0.92,-2.155 -2.764,-3.752 -5.036,-4.331 -0.751,-0.204 -17.171,-4.881 -23.006,-24.048 17.564,-9.643 32.577,-1.524 33.214,-1.169 2.03,1.173 4.492,1.332 6.652,0.431 2.164,-0.901 3.784,-2.76 4.381,-5.026 2.014,-7.638 2.935,-14.533 3.336,-19.829 15.299,5.552 25.663,13.566 30.58,24.025 7.098,15.095 0.217,33.648 0.194,33.711 -0.063,0.174 -6.76,17.476 -23.515,23.571 z m 31.02,44.805 c 10.785,0 19.56,8.774 19.56,19.56 0,10.786 -8.774,19.56 -19.56,19.56 -10.786,0 -19.56,-8.774 -19.56,-19.56 0,-10.786 8.774,-19.56 19.56,-19.56 z m 54.16,39.12 c -10.785,0 -19.559,-8.774 -19.559,-19.56 0,-10.785 8.774,-19.56 19.559,-19.56 10.786,0 19.56,8.774 19.56,19.56 0,10.785 -8.774,19.56 -19.56,19.56 z m -7.521,27.311 c 0,10.785 -8.774,19.559 -19.559,19.559 -10.785,0 -19.56,-8.774 -19.56,-19.559 0,-10.786 8.774,-19.561 19.56,-19.561 10.786,0 19.559,8.776 19.559,19.561 z m -27.08,46.854 c 0,10.786 -8.774,19.561 -19.56,19.561 -10.786,0 -19.56,-8.775 -19.56,-19.561 0,-10.785 8.774,-19.56 19.56,-19.56 10.786,0 19.56,8.775 19.56,19.56 z m -27.08,-46.854 c 0,10.785 -8.774,19.559 -19.56,19.559 -10.786,0 -19.56,-8.774 -19.56,-19.559 0,-10.786 8.774,-19.561 19.56,-19.561 10.786,0 19.56,8.776 19.56,19.561 z m -27.081,-46.871 c 0,10.786 -8.774,19.56 -19.56,19.56 -10.786,0 -19.56,-8.774 -19.56,-19.56 0,-10.785 8.774,-19.56 19.56,-19.56 10.786,0 19.56,8.774 19.56,19.56 z m 7.521,121.003 c 10.786,0 19.56,8.774 19.56,19.56 0,10.786 -8.774,19.56 -19.56,19.56 -10.786,0 -19.56,-8.774 -19.56,-19.56 0,-10.786 8.774,-19.56 19.56,-19.56 z m 27.081,46.92 c 10.785,0 19.56,8.774 19.56,19.56 0,10.785 -8.774,19.56 -19.56,19.56 -10.786,0 -19.56,-8.774 -19.56,-19.56 0,-10.786 8.774,-19.56 19.56,-19.56 z"
         id="path7447"
         inkscape:connector-curvature="0" /></g></g></svg>