<?xml version="1.0" encoding="UTF-8" standalone="no"?>
<!-- Generator: Adobe Illustrator 18.0.0, SVG Export Plug-In . SVG Version: 6.00 Build 0)  -->

<svg
   xmlns:dc="http://purl.org/dc/elements/1.1/"
   xmlns:cc="http://creativecommons.org/ns#"
   xmlns:rdf="http://www.w3.org/1999/02/22-rdf-syntax-ns#"
   xmlns:svg="http://www.w3.org/2000/svg"
   xmlns="http://www.w3.org/2000/svg"
   xmlns:sodipodi="http://sodipodi.sourceforge.net/DTD/sodipodi-0.dtd"
   xmlns:inkscape="http://www.inkscape.org/namespaces/inkscape"
   version="1.1"
   id="Capa_1"
   x="0px"
   y="0px"
   viewBox="0 0 399.99999 399.99999"
   xml:space="preserve"
   inkscape:version="0.91 r13725"
   sodipodi:docname="lemon.svg"
   width="400"
   height="400"><metadata
     id="metadata8384"><rdf:RDF><cc:Work
         rdf:about=""><dc:format>image/svg+xml</dc:format><dc:type
           rdf:resource="http://purl.org/dc/dcmitype/StillImage" /><dc:title></dc:title></cc:Work></rdf:RDF></metadata><defs
     id="defs8382" /><sodipodi:namedview
     pagecolor="#ffffff"
     bordercolor="#666666"
     borderopacity="1"
     objecttolerance="10"
     gridtolerance="10"
     guidetolerance="10"
     inkscape:pageopacity="0"
     inkscape:pageshadow="2"
     inkscape:window-width="1280"
     inkscape:window-height="666"
     id="namedview8380"
     showgrid="false"
     inkscape:zoom="0.64922559"
     inkscape:cx="181.755"
     inkscape:cy="181.755"
     inkscape:window-x="-8"
     inkscape:window-y="-8"
     inkscape:window-maximized="1"
     inkscape:current-layer="layer16" /><g
     id="g8350"
     transform="translate(0,36.48999)" /><g
     id="g8352"
     transform="translate(0,36.48999)" /><g
     id="g8354"
     transform="translate(0,36.48999)" /><g
     id="g8356"
     transform="translate(0,36.48999)" /><g
     id="g8358"
     transform="translate(0,36.48999)" /><g
     id="g8360"
     transform="translate(0,36.48999)" /><g
     id="g8362"
     transform="translate(0,36.48999)" /><g
     id="g8364"
     transform="translate(0,36.48999)" /><g
     id="g8366"
     transform="translate(0,36.48999)" /><g
     id="g8368"
     transform="translate(0,36.48999)" /><g
     id="g8370"
     transform="translate(0,36.48999)" /><g
     id="g8372"
     transform="translate(0,36.48999)" /><g
     id="g8374"
     transform="translate(0,36.48999)" /><g
     id="g8376"
     transform="translate(0,36.48999)" /><g
     id="g8378"
     transform="translate(0,36.48999)" /><g
     inkscape:groupmode="layer"
     id="layer16"
     inkscape:label="Bg"><rect
       style="fill:#ffffff;fill-opacity:1;stroke:none;stroke-width:5.00600004;stroke-linecap:butt;stroke-linejoin:miter;stroke-miterlimit:4;stroke-dasharray:none;stroke-opacity:1"
       id="rect8978"
       width="400"
       height="400"
       x="0"
       y="0" /></g><g
     inkscape:groupmode="layer"
     id="layer17"
     inkscape:label="Fruit"><g
       style=""
       id="g8250"
       transform="matrix(1.1003854,0,0,1.1505185,0,-9.1124899)"><path
         style="fill:#fdd44b"
         d="m 15.042,153.37 c 0,3.601 2.361,6.866 5.956,8.993 -0.329,-2.967 -0.5,-5.967 -0.5,-8.995 0,-3.026 0.174,-6.03 0.5,-9.007 -3.597,2.132 -5.956,5.405 -5.956,9.009 z"
         id="path8252"
         inkscape:connector-curvature="0" /><path
         style="fill:#fdd44b"
         d="m 284.947,153.37 c 0,-3.66 -2.438,-6.979 -6.134,-9.107 0.334,3.009 0.512,6.046 0.512,9.105 0,3.056 -0.177,6.09 -0.512,9.099 3.696,-2.125 6.134,-5.437 6.134,-9.097 z"
         id="path8254"
         inkscape:connector-curvature="0" /><path
         style="fill:#fdd44b"
         d="m 339.543,232.105 c -23.75,31.321 -62.738,51.096 -105.618,51.096 -42.409,0 -80.998,-19.35 -104.81,-50.08 17.597,37.599 58.028,63.968 104.981,63.968 47.374,0 88.107,-26.846 105.447,-64.984 z"
         id="path8256"
         inkscape:connector-curvature="0" /><path
         style="fill:#fdd44b"
         d="m 241.617,207.437 0,60.463 c 21.906,-1.362 42.379,-8.487 59.427,-19.945 l -59.427,-40.518 z"
         id="path8258"
         inkscape:connector-curvature="0" /><path
         style="fill:#fdd44b"
         d="m 226.575,207.437 -59.603,40.637 c 17.104,11.448 37.641,18.541 59.603,19.846 l 0,-60.483 z"
         id="path8260"
         inkscape:connector-curvature="0" /><path
         style="fill:#fdd44b"
         d="m 255.33,198.583 58.194,39.678 c 12.164,-10.921 21.767,-24.397 27.788,-39.678 l -85.982,0 z"
         id="path8262"
         inkscape:connector-curvature="0" /><path
         style="fill:#fdd44b"
         d="m 212.861,198.583 -86.33,0 c 6.045,15.343 15.704,28.866 27.942,39.811 l 58.388,-39.811 z"
         id="path8264"
         inkscape:connector-curvature="0" /><g
         id="g8266"><path
           style="fill:#fdd44b"
           d="m 242.568,102.486 c -0.832,-0.873 -1.688,-1.733 -2.561,-2.581 0.873,0.848 1.729,1.708 2.561,2.581 z"
           id="path8268"
           inkscape:connector-curvature="0" /><path
           style="fill:#fdd44b"
           d="m 185.558,70.768 c 1.552,0.388 3.094,0.794 4.616,1.231 -1.522,-0.437 -3.063,-0.843 -4.616,-1.231 z"
           id="path8270"
           inkscape:connector-curvature="0" /><path
           style="fill:#fdd44b"
           d="m 198.089,74.538 c 1.317,0.467 2.616,0.957 3.905,1.46 -1.29,-0.503 -2.589,-0.993 -3.905,-1.46 z"
           id="path8272"
           inkscape:connector-curvature="0" /><path
           style="fill:#fdd44b"
           d="m 178.094,69.098 c 2.056,0.398 4.091,0.837 6.101,1.318 -2.01,-0.48 -4.044,-0.92 -6.101,-1.318 z"
           id="path8274"
           inkscape:connector-curvature="0" /><path
           style="fill:#fdd44b"
           d="m 192.163,72.596 c 1.312,0.398 2.613,0.812 3.901,1.245 -1.288,-0.433 -2.589,-0.846 -3.901,-1.245 z"
           id="path8276"
           inkscape:connector-curvature="0" /><path
           style="fill:#fdd44b"
           d="m 171.843,68.042 c 1.597,0.237 3.18,0.506 4.752,0.793 -1.572,-0.287 -3.154,-0.556 -4.752,-0.793 z"
           id="path8278"
           inkscape:connector-curvature="0" /><path
           style="fill:#fdd44b"
           d="m 158.58,66.696 c 1.504,0.086 3.003,0.188 4.49,0.318 -1.487,-0.13 -2.985,-0.232 -4.49,-0.318 z"
           id="path8280"
           inkscape:connector-curvature="0" /><path
           style="fill:#fdd44b"
           d="m 165.393,67.239 c 1.426,0.147 2.843,0.316 4.252,0.503 -1.409,-0.186 -2.825,-0.355 -4.252,-0.503 z"
           id="path8282"
           inkscape:connector-curvature="0" /><path
           style="fill:#fdd44b"
           d="m 215.834,82.383 c 1.207,0.65 2.401,1.312 3.573,1.995 -1.172,-0.683 -2.366,-1.345 -3.573,-1.995 z"
           id="path8284"
           inkscape:connector-curvature="0" /><path
           style="fill:#fdd44b"
           d="m 235.482,95.767 c 1.118,0.958 2.212,1.933 3.274,2.928 -1.062,-0.995 -2.156,-1.969 -3.274,-2.928 z"
           id="path8286"
           inkscape:connector-curvature="0" /><path
           style="fill:#fdd44b"
           d="m 149.912,66.421 c 2.217,0 4.416,0.06 6.602,0.155 -2.187,-0.095 -4.385,-0.155 -6.602,-0.155 z"
           id="path8288"
           inkscape:connector-curvature="0" /><polygon
           style="fill:#fdd44b"
           points="78.698,107.077 78.686,107.076 78.685,107.076 "
           id="polygon8290" /><path
           style="fill:#fdd44b"
           d="m 225.905,88.463 c 1.185,0.803 2.343,1.628 3.483,2.467 -1.141,-0.838 -2.298,-1.664 -3.483,-2.467 z"
           id="path8292"
           inkscape:connector-curvature="0" /><path
           style="fill:#fdd44b"
           d="m 203.713,76.669 c 1.79,0.728 3.556,1.485 5.288,2.282 -1.731,-0.797 -3.498,-1.553 -5.288,-2.282 z"
           id="path8294"
           inkscape:connector-curvature="0" /><path
           style="fill:#fdd44b"
           d="m 221.087,85.383 c 1.101,0.668 2.184,1.351 3.252,2.048 -1.068,-0.697 -2.151,-1.38 -3.252,-2.048 z"
           id="path8296"
           inkscape:connector-curvature="0" /><path
           style="fill:#fdd44b"
           d="m 209.117,79.002 c 1.781,0.823 3.524,1.689 5.24,2.582 -1.716,-0.893 -3.458,-1.759 -5.24,-2.582 z"
           id="path8298"
           inkscape:connector-curvature="0" /><path
           style="fill:#fdd44b"
           d="m 230.431,91.687 c 1.474,1.112 2.911,2.254 4.305,3.425 -1.394,-1.172 -2.831,-2.313 -4.305,-3.425 z"
           id="path8300"
           inkscape:connector-curvature="0" /><path
           style="fill:#fdd44b"
           d="m 39.265,175.332 c -0.342,-0.995 -0.66,-1.997 -0.957,-3.005 0.296,1.008 0.614,2.01 0.957,3.005 z"
           id="path8302"
           inkscape:connector-curvature="0" /><path
           style="fill:#fdd44b"
           d="m 112.201,184.639 144.97,0 c 4.72,-10 7.112,-20.319 7.112,-30.722 0,-18.719 -7.848,-36.335 -21.137,-50.539 -20.41,-14.37 -47.697,-23.308 -77.643,-23.308 -18.652,0 -36.457,3.345 -52.029,9.391 -0.478,-0.096 -1.642,-0.176 -1.642,-0.176 l 0,-0.019 c 3,0 4.104,0.794 5.508,2.187 1.393,1.404 2.287,3.334 2.287,5.319 0,1.976 -0.757,3.909 -2.15,5.313 -1.404,1.404 -3.316,2.204 -5.302,2.204 -1.975,0 -3.899,-0.803 -5.303,-2.206 -1.403,-1.404 -2.2,-3.339 -2.2,-5.316 0,-1.451 0.441,-2.871 1.22,-4.081 -0.007,0.01 -0.015,0.018 -0.021,0.028 -8.921,4.16 -17.034,9.226 -24.124,15.025 -0.019,-0.009 -0.041,-0.012 -0.06,-0.02 0.854,0.373 1.647,0.89 2.314,1.552 1.393,1.403 2.196,3.339 2.196,5.324 0,1.975 -0.802,3.911 -2.196,5.314 -1.404,1.404 -3.339,2.206 -5.315,2.206 -1.985,0 -3.921,-0.802 -5.324,-2.206 -0.877,-0.883 -1.486,-1.988 -1.843,-3.17 0.05,0.165 0.08,0.337 0.141,0.498 -12.93,14.085 -20.527,31.199 -20.527,49.64 0,18.579 7.767,35.994 21.124,50.292 -1.366,-0.962 -2.697,-1.952 -3.999,-2.962 12.514,9.713 28.049,17.247 45.622,21.674 -5.93,-13.87 -9.198,-28.446 -9.198,-44.273 -0.002,-4.151 3.365,-6.969 7.519,-6.969 z m 103.623,-75.367 c 1.403,-1.394 3.338,-2.196 5.314,-2.196 1.985,0 3.921,0.802 5.324,2.196 1.394,1.403 2.206,3.339 2.206,5.324 0,1.975 -0.812,3.911 -2.206,5.314 -1.403,1.404 -3.339,2.206 -5.324,2.206 -1.976,0 -3.911,-0.802 -5.314,-2.206 -1.395,-1.403 -2.206,-3.339 -2.206,-5.314 -0.001,-1.984 0.811,-3.92 2.206,-5.324 z M 182.301,91.443 c 1.404,-1.394 3.339,-2.197 5.325,-2.197 1.975,0 3.921,0.803 5.314,2.197 1.403,1.404 2.206,3.339 2.206,5.324 0,1.976 -0.803,3.921 -2.206,5.315 -1.394,1.404 -3.339,2.205 -5.314,2.205 -1.986,0 -3.921,-0.802 -5.325,-2.205 -1.394,-1.404 -2.196,-3.339 -2.196,-5.315 0,-1.985 0.802,-3.92 2.196,-5.324 z m -37.704,-7.611 c 1.394,-1.404 3.33,-2.206 5.315,-2.206 1.986,0 3.921,0.802 5.314,2.206 1.404,1.393 2.206,3.339 2.206,5.314 0,1.975 -0.802,3.921 -2.206,5.314 -1.394,1.404 -3.339,2.206 -5.314,2.206 -1.985,0 -3.921,-0.802 -5.315,-2.206 -1.404,-1.394 -2.206,-3.328 -2.206,-5.314 0,-1.984 0.802,-3.92 2.206,-5.314 z"
           id="path8304"
           inkscape:connector-curvature="0" /><path
           style="fill:#fdd44b"
           d="m 56.638,203.633 c -0.902,-0.966 -1.777,-1.948 -2.627,-2.942 0.85,0.994 1.725,1.975 2.627,2.942 z"
           id="path8306"
           inkscape:connector-curvature="0" /><path
           style="fill:#fdd44b"
           d="m 53.34,199.897 c -0.823,-0.986 -1.622,-1.984 -2.393,-2.996 0.772,1.012 1.57,2.01 2.393,2.996 z"
           id="path8308"
           inkscape:connector-curvature="0" /><path
           style="fill:#fdd44b"
           d="m 63.813,210.551 c -1.091,-0.949 -2.158,-1.914 -3.193,-2.898 1.036,0.985 2.103,1.949 3.193,2.898 z"
           id="path8310"
           inkscape:connector-curvature="0" /><path
           style="fill:#fdd44b"
           d="m 50.547,196.385 c -0.903,-1.203 -1.77,-2.423 -2.598,-3.659 0.828,1.237 1.695,2.456 2.598,3.659 z"
           id="path8312"
           inkscape:connector-curvature="0" /><path
           style="fill:#fdd44b"
           d="m 67.728,213.789 c -1.081,-0.85 -2.138,-1.717 -3.172,-2.6 1.034,0.883 2.091,1.75 3.172,2.6 z"
           id="path8314"
           inkscape:connector-curvature="0" /><path
           style="fill:#fdd44b"
           d="m 80.508,107.332 c -0.097,-0.025 -0.189,-0.067 -0.288,-0.088 0.099,0.021 0.191,0.063 0.288,0.088 z"
           id="path8316"
           inkscape:connector-curvature="0" /><path
           style="fill:#fdd44b"
           d="m 57.031,204.061 c 1.078,1.14 2.189,2.26 3.337,3.359 -1.148,-1.098 -2.259,-2.219 -3.337,-3.359 z"
           id="path8318"
           inkscape:connector-curvature="0" /><path
           style="fill:#fdd44b"
           d="m 71.303,115.977 c -0.075,-0.396 -0.111,-0.799 -0.121,-1.204 0.01,0.406 0.044,0.809 0.121,1.204 z"
           id="path8320"
           inkscape:connector-curvature="0" /><path
           style="fill:#fdd44b"
           d="m 36.923,166.825 c -0.253,-1.23 -0.467,-2.468 -0.651,-3.713 0.184,1.244 0.398,2.483 0.651,3.713 z"
           id="path8322"
           inkscape:connector-curvature="0" /><path
           style="fill:#fdd44b"
           d="m 47.651,192.264 c -0.695,-1.053 -1.36,-2.119 -1.999,-3.195 0.639,1.076 1.304,2.142 1.999,3.195 z"
           id="path8324"
           inkscape:connector-curvature="0" /><path
           style="fill:#fdd44b"
           d="m 37.991,171.252 c -0.371,-1.34 -0.71,-2.689 -0.998,-4.049 0.288,1.36 0.627,2.708 0.998,4.049 z"
           id="path8326"
           inkscape:connector-curvature="0" /><path
           style="fill:#fdd44b"
           d="m 35.686,157.567 c -0.088,-1.393 -0.147,-2.791 -0.147,-4.199 0,1.407 0.059,2.805 0.147,4.199 z"
           id="path8328"
           inkscape:connector-curvature="0" /><path
           style="fill:#fdd44b"
           d="m 36.104,161.85 c -0.13,-1.007 -0.235,-2.02 -0.319,-3.036 0.084,1.016 0.19,2.028 0.319,3.036 z"
           id="path8330"
           inkscape:connector-curvature="0" /><path
           style="fill:#fdd44b"
           d="m 45.079,188.084 c -0.569,-0.991 -1.113,-1.991 -1.634,-2.999 0.521,1.008 1.065,2.008 1.634,2.999 z"
           id="path8332"
           inkscape:connector-curvature="0" /><path
           style="fill:#fdd44b"
           d="m 43.013,184.258 c -0.641,-1.278 -1.248,-2.569 -1.81,-3.874 0.562,1.305 1.169,2.595 1.81,3.874 z"
           id="path8334"
           inkscape:connector-curvature="0" /><path
           style="fill:#fdd44b"
           d="m 41.005,179.898 c -0.477,-1.129 -0.921,-2.268 -1.338,-3.415 0.417,1.147 0.861,2.286 1.338,3.415 z"
           id="path8336"
           inkscape:connector-curvature="0" /></g><path
         style="fill:#3f2d20"
         d="m 149.912,96.668 c 1.975,0 3.921,-0.802 5.314,-2.206 1.404,-1.394 2.206,-3.339 2.206,-5.314 0,-1.975 -0.802,-3.921 -2.206,-5.314 -1.394,-1.404 -3.329,-2.206 -5.314,-2.206 -1.985,0 -3.921,0.802 -5.315,2.206 -1.404,1.394 -2.206,3.329 -2.206,5.314 0,1.986 0.802,3.921 2.206,5.314 1.393,1.403 3.33,2.206 5.315,2.206 z"
         id="path8338"
         inkscape:connector-curvature="0" /><path
         style="fill:#3f2d20"
         d="m 78.685,122.118 c 1.976,0 3.911,-0.802 5.315,-2.206 1.394,-1.403 2.196,-3.339 2.196,-5.314 0,-1.985 -0.802,-3.921 -2.196,-5.324 -1.404,-1.394 -3.339,-2.196 -5.315,-2.196 -1.985,0 -3.931,0.802 -5.324,2.196 -1.394,1.403 -2.197,3.339 -2.197,5.324 0,1.975 0.803,3.911 2.197,5.314 1.403,1.404 3.339,2.206 5.324,2.206 z"
         id="path8340"
         inkscape:connector-curvature="0" /><path
         style="fill:#3f2d20"
         d="m 221.138,122.118 c 1.985,0 3.921,-0.802 5.324,-2.206 1.394,-1.403 2.206,-3.339 2.206,-5.314 0,-1.985 -0.812,-3.921 -2.206,-5.324 -1.403,-1.394 -3.339,-2.196 -5.324,-2.196 -1.976,0 -3.911,0.802 -5.314,2.196 -1.395,1.403 -2.206,3.339 -2.206,5.324 0,1.975 0.812,3.911 2.206,5.314 1.403,1.404 3.338,2.206 5.314,2.206 z"
         id="path8342"
         inkscape:connector-curvature="0" /><path
         style="fill:#3f2d20"
         d="m 187.626,104.288 c 1.975,0 3.921,-0.802 5.314,-2.205 1.403,-1.394 2.206,-3.339 2.206,-5.315 0,-1.985 -0.803,-3.92 -2.206,-5.324 -1.394,-1.394 -3.339,-2.197 -5.314,-2.197 -1.986,0 -3.921,0.803 -5.325,2.197 -1.394,1.404 -2.196,3.339 -2.196,5.324 0,1.976 0.802,3.911 2.196,5.315 1.404,1.403 3.339,2.205 5.325,2.205 z"
         id="path8344"
         inkscape:connector-curvature="0" /><path
         style="fill:#3f2d20"
         d="m 112.197,104.288 c 1.986,0 3.921,-0.802 5.325,-2.205 1.394,-1.404 2.196,-3.339 2.196,-5.315 0,-1.985 -0.802,-3.92 -2.196,-5.324 -1.404,-1.394 -3.339,-2.197 -5.325,-2.197 -1.975,0 -3.91,0.803 -5.315,2.197 -1.403,1.404 -2.206,3.339 -2.206,5.324 0,1.976 0.803,3.911 2.206,5.315 1.405,1.403 3.34,2.205 5.315,2.205 z"
         id="path8346"
         inkscape:connector-curvature="0" /><path
         style="fill:#3f2d20"
         d="m 355.989,183.541 -82.413,0 c 0.531,-1.346 1.036,-2.696 1.491,-4.057 14.16,-2.286 24.921,-13.122 24.921,-26.114 0,-12.988 -10.752,-23.821 -24.905,-26.113 -5.828,-17.55 -17.54,-33.585 -34.374,-46.632 -24.335,-18.86 -56.58,-29.246 -90.798,-29.246 -34.218,0 -66.463,10.386 -90.798,29.246 C 42.27,93.678 30.554,109.723 24.729,127.284 10.663,129.636 0,140.435 0,153.37 c 0,12.948 10.689,23.757 24.779,26.092 12.245,36.623 49.71,65.639 98.254,73.686 22.636,35.303 63.946,58.983 111.063,58.983 71.359,0 129.413,-54.311 129.413,-121.068 10e-4,-4.155 -3.366,-7.522 -7.52,-7.522 z m -226.874,49.58 c 23.812,30.729 62.401,50.08 104.81,50.08 42.88,0 81.868,-19.775 105.618,-51.096 -17.34,38.138 -58.073,64.984 -105.447,64.984 -46.953,0 -87.384,-26.369 -104.981,-63.968 z m 135.169,-79.753 c 0,10.404 -2.392,20.534 -7.112,30.173 l -144.97,0 c -4.154,0 -7.521,3.367 -7.521,7.521 0,15.827 3.268,30.951 9.198,44.822 C 67.705,224.253 35.54,191.212 35.54,153.368 c 0,-47.943 51.308,-86.947 114.372,-86.947 63.064,0 114.372,39.004 114.372,86.947 z m -137.753,45.215 86.33,0 -58.388,39.811 c -12.238,-10.946 -21.896,-24.468 -27.942,-39.811 z m 100.044,8.854 0,60.483 c -21.962,-1.305 -42.499,-8.398 -59.603,-19.846 l 59.603,-40.637 z m 15.042,0 59.427,40.518 c -17.048,11.457 -37.521,18.583 -59.427,19.945 l 0,-60.463 z m 71.907,30.823 -58.194,-39.678 85.981,0 c -6.02,15.281 -15.623,28.757 -27.787,39.678 z m -34.711,-93.997 c 3.696,2.128 6.134,5.447 6.134,9.107 0,3.66 -2.438,6.973 -6.134,9.097 0.335,-3.009 0.512,-6.043 0.512,-9.099 0,-3.059 -0.178,-6.096 -0.512,-9.105 z m -257.816,18.1 c -3.595,-2.127 -5.956,-5.392 -5.956,-8.993 0,-3.604 2.36,-6.876 5.957,-9.009 -0.326,2.978 -0.5,5.982 -0.5,9.007 0,3.028 0.17,6.027 0.499,8.995 z"
         id="path8348"
         inkscape:connector-curvature="0" /></g></g></svg>