<?xml version="1.0" encoding="UTF-8" standalone="no"?>
<!-- Generator: Adobe Illustrator 18.0.0, SVG Export Plug-In . SVG Version: 6.00 Build 0)  -->

<svg
   xmlns:dc="http://purl.org/dc/elements/1.1/"
   xmlns:cc="http://creativecommons.org/ns#"
   xmlns:rdf="http://www.w3.org/1999/02/22-rdf-syntax-ns#"
   xmlns:svg="http://www.w3.org/2000/svg"
   xmlns="http://www.w3.org/2000/svg"
   xmlns:sodipodi="http://sodipodi.sourceforge.net/DTD/sodipodi-0.dtd"
   xmlns:inkscape="http://www.inkscape.org/namespaces/inkscape"
   version="1.1"
   id="Capa_1"
   x="0px"
   y="0px"
   viewBox="0 0 400.00002 400.00002"
   xml:space="preserve"
   inkscape:version="0.91 r13725"
   sodipodi:docname="lettuce.svg"
   width="400"
   height="400"><metadata
     id="metadata9142"><rdf:RDF><cc:Work
         rdf:about=""><dc:format>image/svg+xml</dc:format><dc:type
           rdf:resource="http://purl.org/dc/dcmitype/StillImage" /><dc:title></dc:title></cc:Work></rdf:RDF></metadata><defs
     id="defs9140" /><sodipodi:namedview
     pagecolor="#ffffff"
     bordercolor="#666666"
     borderopacity="1"
     objecttolerance="10"
     gridtolerance="10"
     guidetolerance="10"
     inkscape:pageopacity="0"
     inkscape:pageshadow="2"
     inkscape:window-width="1280"
     inkscape:window-height="666"
     id="namedview9138"
     showgrid="false"
     inkscape:zoom="0.92"
     inkscape:cx="160.35934"
     inkscape:cy="160.35848"
     inkscape:window-x="-8"
     inkscape:window-y="-8"
     inkscape:window-maximized="1"
     inkscape:current-layer="layer18" /><g
     id="g9108"
     transform="translate(0,79.282016)" /><g
     id="g9110"
     transform="translate(0,79.282016)" /><g
     id="g9112"
     transform="translate(0,79.282016)" /><g
     id="g9114"
     transform="translate(0,79.282016)" /><g
     id="g9116"
     transform="translate(0,79.282016)" /><g
     id="g9118"
     transform="translate(0,79.282016)" /><g
     id="g9120"
     transform="translate(0,79.282016)" /><g
     id="g9122"
     transform="translate(0,79.282016)" /><g
     id="g9124"
     transform="translate(0,79.282016)" /><g
     id="g9126"
     transform="translate(0,79.282016)" /><g
     id="g9128"
     transform="translate(0,79.282016)" /><g
     id="g9130"
     transform="translate(0,79.282016)" /><g
     id="g9132"
     transform="translate(0,79.282016)" /><g
     id="g9134"
     transform="translate(0,79.282016)" /><g
     id="g9136"
     transform="translate(0,79.282016)" /><g
     inkscape:groupmode="layer"
     id="layer18"
     inkscape:label="Bg"><rect
       style="fill:#ffffff;fill-opacity:1;stroke:none;stroke-width:5.00600004;stroke-linecap:butt;stroke-linejoin:miter;stroke-miterlimit:4;stroke-dasharray:none;stroke-opacity:1"
       id="rect9749"
       width="400.00003"
       height="400.00003"
       x="0"
       y="6.6757189e-006" /></g><g
     inkscape:groupmode="layer"
     id="layer19"
     inkscape:label="Fruit"><g
       style=""
       id="g8982"
       transform="matrix(1.2471988,0,0,1.2111104,0,5.7869353)"><g
         id="g8984"><path
           style="fill:#84bd93"
           d="m 304.379,171.685 c -6.832,-1.982 -13.496,-2.859 -21.13,-2.859 -28.589,0 -54.084,14.214 -70.084,37.686 0,-0.001 0,-0.001 0,-0.001 9,14.464 19.373,43.49 7.203,75.204 7.565,-2.472 14.592,-5.434 20.885,-8.812 2.964,-4.646 13.099,-21.798 18.288,-47.575 -3.365,-0.25 -7.082,-1.137 -10.728,-3.282 -7.089,-4.171 -11.561,-11.677 -13.319,-22.309 -0.678,-4.097 2.102,-7.969 6.2,-8.647 4.098,-0.675 7.973,2.094 8.65,6.193 0.997,6.026 3.058,9.996 6.123,11.799 1.731,1.019 3.705,1.294 5.407,1.276 0.883,-8.495 1.162,-17.666 0.502,-27.438 -0.279,-4.144 2.854,-7.73 6.998,-8.011 4.135,-0.251 7.73,2.854 8.011,6.998 2.015,29.851 -3.711,54.489 -10.151,71.971 25.123,-24.854 34.124,-57.711 37.145,-82.193 z"
           id="path8986"
           inkscape:connector-curvature="0" /><path
           style="fill:#84bd93"
           d="m 304.405,171.49 c 0.19,-1.554 0.35,-3.06 0.494,-4.541 -0.145,1.482 -0.304,2.989 -0.494,4.541 z"
           id="path8988"
           inkscape:connector-curvature="0" /><path
           style="fill:#84bd93"
           d="m 304.985,166.14 c 0.162,-1.736 0.298,-3.424 0.405,-5.044 -0.107,1.62 -0.242,3.306 -0.405,5.044 z"
           id="path8990"
           inkscape:connector-curvature="0" /></g><g
         id="g8992"><path
           style="fill:#84bd93"
           d="m 195.769,204.543 c -9.079,-13.633 -20.883,-25.129 -35.552,-32.548 -2.11,-1.068 -3.596,-3.065 -4.01,-5.394 -2.868,-16.124 -13.233,-36.862 -30.211,-51.966 1.629,1.452 3.207,2.947 4.714,4.493 -3.171,-2.243 -6.517,-4.294 -10.055,-6.083 -20.415,-10.323 -43.245,-9.934 -66.073,1.103 -3.155,2.191 -10.192,5.631 -27.245,13.456 0.624,62.138 13.408,106.293 38.96,134.375 0.802,0.952 1.616,1.887 2.445,2.806 8.218,6.096 17.071,10.748 26.169,14.261 -5.027,-6.817 -10.39,-15.191 -14.98,-24.821 -9.257,-19.42 -12.923,-38.862 -11.053,-57.722 -3.218,-2.927 -8.028,-7.963 -11.876,-14.806 -5.934,-10.551 -10.737,-27.442 0.082,-47.988 1.936,-3.675 6.485,-5.087 10.159,-3.151 3.675,1.936 5.086,6.484 3.15,10.159 -8.604,16.341 -3.608,29.355 2.12,37.419 2.946,-9.846 7.467,-19.47 13.572,-28.776 2.279,-3.475 6.941,-4.441 10.414,-2.162 3.473,2.279 4.441,6.941 2.162,10.413 -14.251,21.72 -18.539,44.712 -12.864,68.589 8.705,-4.288 23.264,-15.437 26.143,-42.699 0.438,-4.129 4.117,-7.101 8.27,-6.689 4.131,0.437 7.125,4.138 6.689,8.27 -3.814,36.124 -24.661,50.334 -36.498,55.551 0.944,2.367 1.972,4.74 3.107,7.121 9.537,20.009 22.965,34.187 27.367,38.531 15.719,2.931 30.988,3.528 43.731,3.528 13.641,0 25.955,-1.17 37.102,-3.283 0.092,-0.202 0.189,-0.403 0.3,-0.598 22.817,-40.198 -6.229,-81.374 -6.239,-81.389 z"
           id="path8994"
           inkscape:connector-curvature="0" /><path
           style="fill:#84bd93"
           d="m 67.46,263.823 c -0.479,-0.367 -0.961,-0.728 -1.435,-1.105 0.474,0.378 0.956,0.738 1.435,1.105 z"
           id="path8996"
           inkscape:connector-curvature="0" /><path
           style="fill:#84bd93"
           d="m 119.637,109.502 c -1.298,-0.953 -2.633,-1.864 -3.995,-2.746 1.36,0.883 2.698,1.793 3.995,2.746 z"
           id="path8998"
           inkscape:connector-curvature="0" /><path
           style="fill:#84bd93"
           d="m 125.15,113.909 c -1.321,-1.146 -2.679,-2.256 -4.078,-3.328 1.396,1.074 2.758,2.182 4.078,3.328 z"
           id="path9000"
           inkscape:connector-curvature="0" /><path
           style="fill:#84bd93"
           d="m 114.105,105.758 c -1.856,-1.143 -3.753,-2.235 -5.722,-3.231 1.969,0.996 3.867,2.087 5.722,3.231 z"
           id="path9002"
           inkscape:connector-curvature="0" /></g><g
         id="g9004"><path
           style="fill:#84bd93"
           d="m 293.182,110.308 c 0.11,0.769 0.224,1.533 0.321,2.319 -0.097,-0.785 -0.211,-1.55 -0.321,-2.319 z"
           id="path9006"
           inkscape:connector-curvature="0" /><path
           style="fill:#84bd93"
           d="m 293.738,114.762 c 0.088,0.827 0.182,1.646 0.257,2.491 -0.075,-0.844 -0.169,-1.664 -0.257,-2.491 z"
           id="path9008"
           inkscape:connector-curvature="0" /><path
           style="fill:#84bd93"
           d="m 292.48,105.999 c 0.133,0.723 0.266,1.446 0.387,2.185 -0.121,-0.739 -0.254,-1.461 -0.387,-2.185 z"
           id="path9010"
           inkscape:connector-curvature="0" /><path
           style="fill:#84bd93"
           d="m 294.402,123.555 c 0.102,2.226 0.16,4.506 0.174,6.84 -0.013,-2.333 -0.071,-4.613 -0.174,-6.84 z"
           id="path9012"
           inkscape:connector-curvature="0" /><path
           style="fill:#84bd93"
           d="m 294.543,135.047 c 0.02,-1.047 0.046,-2.102 0.048,-3.129 -0.002,1.027 -0.028,2.082 -0.048,3.129 z"
           id="path9014"
           inkscape:connector-curvature="0" /><path
           style="fill:#84bd93"
           d="m 294.149,119.33 c 0.067,0.905 0.141,1.8 0.192,2.724 -0.051,-0.924 -0.126,-1.819 -0.192,-2.724 z"
           id="path9016"
           inkscape:connector-curvature="0" /><path
           style="fill:#84bd93"
           d="m 290.65,97.933 c 0.175,0.636 0.346,1.278 0.509,1.929 -0.163,-0.652 -0.334,-1.294 -0.509,-1.929 z"
           id="path9018"
           inkscape:connector-curvature="0" /><path
           style="fill:#84bd93"
           d="m 291.636,101.871 c 0.155,0.681 0.308,1.365 0.45,2.062 -0.143,-0.698 -0.296,-1.381 -0.45,-2.062 z"
           id="path9020"
           inkscape:connector-curvature="0" /><path
           style="fill:#84bd93"
           d="m 281.759,78.401 c 0.215,0.298 0.415,0.62 0.626,0.927 -0.211,-0.307 -0.411,-0.629 -0.626,-0.927 z"
           id="path9022"
           inkscape:connector-curvature="0" /><path
           style="fill:#84bd93"
           d="m 283.593,81.148 c 0.241,0.388 0.466,0.8 0.699,1.2 -0.232,-0.4 -0.458,-0.812 -0.699,-1.2 z"
           id="path9024"
           inkscape:connector-curvature="0" /><path
           style="fill:#84bd93"
           d="m 289.522,94.182 c 0.194,0.591 0.381,1.19 0.564,1.796 -0.182,-0.605 -0.37,-1.205 -0.564,-1.796 z"
           id="path9026"
           inkscape:connector-curvature="0" /><path
           style="fill:#84bd93"
           d="m 146.266,114.03 c -1.577,-1.854 -3.204,-3.681 -4.922,-5.448 1.718,1.767 3.343,3.596 4.922,5.448 z"
           id="path9028"
           inkscape:connector-curvature="0" /><path
           style="fill:#84bd93"
           d="m 279.786,86.745 c -8.865,-10.501 -19.678,-12.651 -25.084,-13.26 -6.69,7.534 -8.044,13.246 -10.657,24.415 -0.527,2.249 -1.091,4.659 -1.746,7.275 -0.541,2.163 -2.015,3.974 -4.024,4.944 -2.008,0.97 -4.344,0.998 -6.374,0.079 -11.737,-5.314 -24.234,-8.009 -37.145,-8.009 -18.625,0 -34.006,4.188 -47.486,13.008 -0.053,-0.064 -0.11,-0.125 -0.162,-0.189 12.054,14.469 19.913,31.106 23.16,45.291 12.131,6.711 22.639,15.836 30.951,26.831 7.636,-11.536 17.642,-21.384 29.41,-28.873 15.787,-10.042 34.063,-15.351 52.854,-15.351 3.754,0 7.297,0.195 10.749,0.582 0.132,-2.251 0.217,-4.448 0.278,-6.617 -0.689,-22.294 -5.666,-39.396 -14.724,-50.126 z"
           id="path9030"
           inkscape:connector-curvature="0" /><path
           style="fill:#84bd93"
           d="m 285.285,84.099 c 0.24,0.452 0.467,0.923 0.698,1.388 -0.231,-0.464 -0.457,-0.936 -0.698,-1.388 z"
           id="path9032"
           inkscape:connector-curvature="0" /><path
           style="fill:#84bd93"
           d="m 288.251,90.623 c 0.212,0.546 0.414,1.105 0.616,1.666 -0.201,-0.562 -0.404,-1.12 -0.616,-1.666 z"
           id="path9034"
           inkscape:connector-curvature="0" /><path
           style="fill:#84bd93"
           d="m 286.839,87.261 c 0.228,0.5 0.444,1.016 0.662,1.531 -0.218,-0.515 -0.434,-1.031 -0.662,-1.531 z"
           id="path9036"
           inkscape:connector-curvature="0" /></g><g
         id="g9038"><path
           style="fill:#84bd93"
           d="m 122.922,45.422 c -0.353,-0.076 -0.707,-0.153 -1.064,-0.225 0.357,0.072 0.71,0.149 1.064,0.225 z"
           id="path9040"
           inkscape:connector-curvature="0" /><path
           style="fill:#84bd93"
           d="M 237.781,60.17 C 217.537,47.071 194.373,40.424 168.685,40.424 c -13.909,0 -27.429,2.171 -40.258,6.365 l 0,0 c 18.351,5.313 31.085,16.55 37.346,33.066 8.994,-2.393 18.628,-3.586 28.982,-3.586 12.027,0 23.75,2.006 34.96,5.971 1.989,-8.471 3.797,-15.439 8.521,-22.761 -0.147,0.229 -0.312,0.461 -0.455,0.691 z"
           id="path9042"
           inkscape:connector-curvature="0" /><path
           style="fill:#84bd93"
           d="m 238.882,58.498 c 0.636,-0.937 1.298,-1.878 2.041,-2.833 -0.743,0.955 -1.408,1.897 -2.041,2.833 z"
           id="path9044"
           inkscape:connector-curvature="0" /></g><g
         id="g9046"><path
           style="fill:#84bd93"
           d="m 125.87,61.833 c 0.391,0.129 0.777,0.275 1.165,0.412 -0.389,-0.137 -0.774,-0.284 -1.165,-0.412 z"
           id="path9048"
           inkscape:connector-curvature="0" /><path
           style="fill:#84bd93"
           d="m 110.425,58.757 c 0.419,0.039 0.839,0.078 1.261,0.124 -0.423,-0.046 -0.841,-0.086 -1.261,-0.124 z"
           id="path9050"
           inkscape:connector-curvature="0" /><path
           style="fill:#84bd93"
           d="m 128.646,62.832 c 0.41,0.16 0.813,0.336 1.219,0.506 -0.405,-0.17 -0.809,-0.346 -1.219,-0.506 z"
           id="path9052"
           inkscape:connector-curvature="0" /><path
           style="fill:#84bd93"
           d="m 123.057,60.982 c 0.301,0.083 0.599,0.182 0.899,0.269 -0.3,-0.087 -0.598,-0.186 -0.899,-0.269 z"
           id="path9054"
           inkscape:connector-curvature="0" /><path
           style="fill:#84bd93"
           d="m 113.263,59.07 c 0.424,0.054 0.847,0.105 1.272,0.166 -0.426,-0.061 -0.848,-0.113 -1.272,-0.166 z"
           id="path9056"
           inkscape:connector-curvature="0" /><path
           style="fill:#84bd93"
           d="m 119.198,60.064 c 0.354,0.074 0.708,0.139 1.061,0.219 -0.353,-0.079 -0.707,-0.144 -1.061,-0.219 z"
           id="path9058"
           inkscape:connector-curvature="0" /><path
           style="fill:#84bd93"
           d="m 116.17,59.496 c 0.409,0.068 0.817,0.13 1.226,0.205 -0.41,-0.076 -0.818,-0.138 -1.226,-0.205 z"
           id="path9060"
           inkscape:connector-curvature="0" /><path
           style="fill:#84bd93"
           d="m 131.363,63.988 c 0.414,0.19 0.823,0.394 1.231,0.596 -0.408,-0.202 -0.816,-0.405 -1.231,-0.596 z"
           id="path9062"
           inkscape:connector-curvature="0" /><path
           style="fill:#84bd93"
           d="m 143.669,72.567 c 0.306,0.316 0.619,0.621 0.916,0.95 -0.296,-0.329 -0.61,-0.634 -0.916,-0.95 z"
           id="path9064"
           inkscape:connector-curvature="0" /><path
           style="fill:#84bd93"
           d="m 142.442,71.334 c -0.336,-0.316 -0.684,-0.612 -1.03,-0.913 0.346,0.301 0.694,0.597 1.03,0.913 z"
           id="path9066"
           inkscape:connector-curvature="0" /><path
           style="fill:#84bd93"
           d="m 145.877,75.069 c 0.23,0.286 0.473,0.555 0.696,0.851 -0.223,-0.296 -0.466,-0.565 -0.696,-0.851 z"
           id="path9068"
           inkscape:connector-curvature="0" /><path
           style="fill:#84bd93"
           d="m 136.58,66.818 c 0.392,0.248 0.782,0.502 1.166,0.764 -0.385,-0.262 -0.774,-0.515 -1.166,-0.764 z"
           id="path9070"
           inkscape:connector-curvature="0" /><path
           style="fill:#84bd93"
           d="m 134.012,65.313 c 0.407,0.219 0.808,0.448 1.208,0.681 -0.4,-0.233 -0.801,-0.462 -1.208,-0.681 z"
           id="path9072"
           inkscape:connector-curvature="0" /><path
           style="fill:#84bd93"
           d="m 103.365,58.375 c -0.371,-0.006 -0.742,-0.014 -1.108,-0.016 0.365,0.003 0.737,0.01 1.108,0.016 z"
           id="path9074"
           inkscape:connector-curvature="0" /><path
           style="fill:#84bd93"
           d="m 139.047,68.513 c 0.373,0.277 0.746,0.554 1.111,0.846 -0.365,-0.292 -0.737,-0.569 -1.111,-0.846 z"
           id="path9076"
           inkscape:connector-curvature="0" /><path
           style="fill:#84bd93"
           d="m 86.421,59.41 c 0.162,-0.022 0.324,-0.045 0.493,-0.067 -0.169,0.022 -0.329,0.044 -0.493,0.067 z"
           id="path9078"
           inkscape:connector-curvature="0" /><path
           style="fill:#84bd93"
           d="m 84.98,59.619 c 0.119,-0.018 0.241,-0.037 0.366,-0.055 -0.126,0.018 -0.245,0.036 -0.366,0.055 z"
           id="path9080"
           inkscape:connector-curvature="0" /><path
           style="fill:#84bd93"
           d="m 82.763,59.985 c 0.016,-0.003 0.034,-0.006 0.049,-0.009 -0.016,0.003 -0.033,0.006 -0.049,0.009 z"
           id="path9082"
           inkscape:connector-curvature="0" /><path
           style="fill:#84bd93"
           d="m 83.76,59.813 c 0.067,-0.011 0.139,-0.023 0.209,-0.034 -0.071,0.011 -0.141,0.022 -0.209,0.034 z"
           id="path9084"
           inkscape:connector-curvature="0" /><path
           style="fill:#84bd93"
           d="m 57.59,82.309 c -1.125,0.261 -2.26,0.546 -3.405,0.856 1.145,-0.311 2.279,-0.594 3.405,-0.856 z"
           id="path9086"
           inkscape:connector-curvature="0" /><path
           style="fill:#84bd93"
           d="m 48.165,85.026 0,0.001 c 2,-0.547 3.173,-1.027 4.737,-1.478 -1.563,0.45 -2.737,0.93 -4.737,1.477 z"
           id="path9088"
           inkscape:connector-curvature="0" /><path
           style="fill:#84bd93"
           d="m 146.597,75.954 c -21.685,-14.143 -55.375,-6.94 -55.825,-6.84 -0.025,0.006 -0.05,0.006 -0.074,0.011 -0.027,0.006 -0.054,0.016 -0.081,0.021 -8.155,1.653 -20.84,6.054 -27.719,12.076 -1.297,0.221 -2.61,0.481 -3.934,0.767 23.673,-5.124 42.994,0.435 56.207,7.116 5.278,2.67 10.204,5.827 14.783,9.333 6.72,-5.587 13.916,-10.083 21.624,-13.542 -1.335,-3.38 -3.023,-6.341 -4.981,-8.942 z"
           id="path9090"
           inkscape:connector-curvature="0" /><path
           style="fill:#84bd93"
           d="m 92.223,58.764 c 0.144,-0.012 0.28,-0.026 0.426,-0.038 -0.146,0.012 -0.281,0.026 -0.426,0.038 z"
           id="path9092"
           inkscape:connector-curvature="0" /><path
           style="fill:#84bd93"
           d="m 97.242,58.445 c 0.256,-0.01 0.524,-0.016 0.784,-0.025 -0.261,0.009 -0.528,0.015 -0.784,0.025 z"
           id="path9094"
           inkscape:connector-curvature="0" /><path
           style="fill:#84bd93"
           d="m 99.696,58.374 c 0.327,-0.006 0.662,-0.007 0.994,-0.009 -0.333,0.002 -0.667,0.003 -0.994,0.009 z"
           id="path9096"
           inkscape:connector-curvature="0" /><path
           style="fill:#84bd93"
           d="m 104.912,58.412 c 0.388,0.013 0.781,0.029 1.173,0.047 -0.393,-0.018 -0.784,-0.035 -1.173,-0.047 z"
           id="path9098"
           inkscape:connector-curvature="0" /><path
           style="fill:#84bd93"
           d="m 89.979,58.978 c 0.201,-0.021 0.394,-0.043 0.601,-0.064 -0.207,0.021 -0.399,0.043 -0.601,0.064 z"
           id="path9100"
           inkscape:connector-curvature="0" /><path
           style="fill:#84bd93"
           d="m 88.09,59.193 c 0.189,-0.023 0.374,-0.046 0.569,-0.069 -0.196,0.022 -0.379,0.045 -0.569,0.069 z"
           id="path9102"
           inkscape:connector-curvature="0" /><path
           style="fill:#84bd93"
           d="m 107.636,58.541 c 0.409,0.025 0.819,0.053 1.231,0.083 -0.413,-0.03 -0.822,-0.058 -1.231,-0.083 z"
           id="path9104"
           inkscape:connector-curvature="0" /></g><path
         style="fill:#3f2d20"
         d="M 309.196,145.291 C 311.445,109.522 305.426,82.92 291.278,66.163 282.054,55.236 269.819,48.965 254.898,47.513 229.618,26.8 198.449,15.864 164.606,15.864 c -32.322,0 -62.803,10.398 -88.268,30.088 -7.727,1.781 -34.179,9.045 -41.126,26.285 -0.195,0.482 -0.339,0.983 -0.43,1.495 L 31.431,92.601 C 26.448,95.174 14.839,100.652 4.394,105.427 1.717,106.652 0,109.325 0,112.269 c 0,76.01 17.256,128.012 52.752,158.976 34.537,30.126 80.378,33.61 111.854,33.61 51.296,0 91.167,-15.401 118.51,-45.775 23.078,-25.637 36.078,-61.262 37.596,-103.028 0.188,-5.282 -3.574,-8.076 -11.516,-10.761 z m -31.811,36.616 c -0.28,-4.144 -3.875,-7.249 -8.01,-6.998 -4.144,0.28 -7.277,3.866 -6.998,8.01 0.66,9.772 0.382,18.943 -0.501,27.438 -1.703,0.018 -3.675,-0.258 -5.407,-1.276 -3.065,-1.803 -5.125,-5.773 -6.121,-11.799 -0.678,-4.099 -4.549,-6.869 -8.647,-6.193 -4.098,0.678 -6.87,4.55 -6.193,8.647 1.759,10.633 6.245,18.139 13.334,22.31 3.646,2.145 7.393,3.032 10.757,3.282 -5.189,25.777 -15.266,42.93 -18.23,47.576 -6.293,3.377 -13.203,6.34 -20.768,8.811 14.017,-36.524 -3.134,-69.496 -10.192,-80.749 14.766,-26.638 42.379,-43.017 73.074,-43.017 8.011,0 14.693,0.951 21.908,3.147 -1.645,24.825 -9.194,64.131 -38.156,92.782 6.439,-17.482 12.166,-42.12 10.15,-71.971 z m -75.377,104.024 c -0.112,0.196 -0.209,0.397 -0.301,0.598 -11.146,2.113 -23.46,3.283 -37.101,3.283 -12.743,0 -28.012,-0.597 -43.731,-3.528 -4.402,-4.344 -17.829,-18.523 -27.366,-38.531 -1.135,-2.382 -2.163,-4.754 -3.107,-7.121 11.837,-5.217 32.684,-19.427 36.498,-55.551 0.436,-4.132 -2.559,-7.833 -6.689,-8.27 -4.153,-0.411 -7.832,2.561 -8.27,6.689 -2.879,27.262 -17.438,38.411 -26.143,42.699 -5.675,-23.877 -1.387,-46.87 12.864,-68.589 2.279,-3.472 1.311,-8.135 -2.162,-10.413 -3.472,-2.279 -8.135,-1.312 -10.414,2.162 -6.106,9.306 -10.627,18.929 -13.572,28.776 -5.728,-8.063 -10.724,-21.078 -2.12,-37.419 1.936,-3.675 0.525,-8.223 -3.15,-10.159 -3.674,-1.936 -8.223,-0.524 -10.159,3.151 -10.819,20.546 -6.016,37.437 -0.082,47.988 3.847,6.843 8.658,11.879 11.876,14.806 -1.87,18.86 1.796,38.302 11.053,57.722 4.59,9.629 9.953,18.004 14.98,24.82 -11.394,-4.4 -22.421,-10.546 -32.271,-19.137 -31.303,-27.306 -46.884,-74.054 -47.574,-142.824 17.053,-7.825 24.09,-11.265 27.245,-13.456 22.827,-11.036 45.658,-11.426 66.073,-1.103 27.501,13.907 44.068,42.963 47.823,64.074 0.414,2.329 1.9,4.327 4.01,5.394 14.669,7.419 26.474,18.914 35.552,32.548 0.009,0.018 29.055,41.194 6.238,81.391 z M 81.098,60.309 c 0.028,-0.006 0.054,-0.016 0.081,-0.022 0.024,-0.005 0.049,-0.005 0.075,-0.011 0.578,-0.129 55.875,-11.953 70.325,24.62 -7.709,3.459 -14.904,7.955 -21.624,13.541 -4.579,-3.507 -9.505,-6.664 -14.783,-9.333 -15.19,-7.68 -38.447,-13.895 -67.117,-4.077 l 1.382,-7.783 C 53.541,68.762 70.88,62.38 81.098,60.309 Z m 198.687,15.557 c 11.302,13.388 16.259,36.684 14.446,67.622 -3.453,-0.387 -6.996,-0.582 -10.749,-0.582 -18.791,0 -37.067,5.309 -52.854,15.351 -11.769,7.488 -21.774,17.337 -29.41,28.873 -8.312,-10.995 -18.82,-20.12 -30.951,-26.831 -3.74,-16.338 -13.579,-35.937 -28.924,-51.718 14.876,-11.744 32.002,-17.271 53.412,-17.271 12.911,0 25.407,2.695 37.145,8.009 2.03,0.918 4.366,0.891 6.374,-0.079 2.008,-0.97 3.482,-2.781 4.024,-4.944 0.655,-2.616 1.219,-5.026 1.746,-7.275 2.613,-11.169 3.967,-16.882 10.657,-24.415 5.407,0.609 16.219,2.76 25.084,13.26 z m -50.069,6.374 c -11.21,-3.965 -22.932,-5.971 -34.96,-5.971 -10.355,0 -19.989,1.193 -28.982,3.586 -7.6,-20.049 -24.715,-32.339 -49.87,-35.669 -2.411,-0.319 -4.789,-0.538 -7.11,-0.681 17.252,-8.281 36.147,-12.6 55.813,-12.6 28.792,0 54.425,8.328 76.316,24.76 -6.83,8.788 -8.877,16.648 -11.207,26.575 z"
         id="path9106"
         inkscape:connector-curvature="0" /></g></g></svg>