<?xml version="1.0" encoding="UTF-8" standalone="no"?>
<!-- Generator: Adobe Illustrator 18.0.0, SVG Export Plug-In . SVG Version: 6.00 Build 0)  -->

<svg
   xmlns:dc="http://purl.org/dc/elements/1.1/"
   xmlns:cc="http://creativecommons.org/ns#"
   xmlns:rdf="http://www.w3.org/1999/02/22-rdf-syntax-ns#"
   xmlns:svg="http://www.w3.org/2000/svg"
   xmlns="http://www.w3.org/2000/svg"
   xmlns:sodipodi="http://sodipodi.sourceforge.net/DTD/sodipodi-0.dtd"
   xmlns:inkscape="http://www.inkscape.org/namespaces/inkscape"
   version="1.1"
   id="Capa_1"
   x="0px"
   y="0px"
   viewBox="0 0 400.00002 400.00002"
   xml:space="preserve"
   inkscape:version="0.91 r13725"
   sodipodi:docname="orange.svg"
   width="400"
   height="400"><metadata
     id="metadata9879"><rdf:RDF><cc:Work
         rdf:about=""><dc:format>image/svg+xml</dc:format><dc:type
           rdf:resource="http://purl.org/dc/dcmitype/StillImage" /><dc:title></dc:title></cc:Work></rdf:RDF></metadata><defs
     id="defs9877" /><sodipodi:namedview
     pagecolor="#ffffff"
     bordercolor="#666666"
     borderopacity="1"
     objecttolerance="10"
     gridtolerance="10"
     guidetolerance="10"
     inkscape:pageopacity="0"
     inkscape:pageshadow="2"
     inkscape:window-width="1280"
     inkscape:window-height="666"
     id="namedview9875"
     showgrid="false"
     inkscape:zoom="0.65298717"
     inkscape:cx="180.70799"
     inkscape:cy="180.70799"
     inkscape:window-x="-8"
     inkscape:window-y="-8"
     inkscape:window-maximized="1"
     inkscape:current-layer="layer28" /><g
     id="g9845"
     transform="translate(0,38.584015)" /><g
     id="g9847"
     transform="translate(0,38.584015)" /><g
     id="g9849"
     transform="translate(0,38.584015)" /><g
     id="g9851"
     transform="translate(0,38.584015)" /><g
     id="g9853"
     transform="translate(0,38.584015)" /><g
     id="g9855"
     transform="translate(0,38.584015)" /><g
     id="g9857"
     transform="translate(0,38.584015)" /><g
     id="g9859"
     transform="translate(0,38.584015)" /><g
     id="g9861"
     transform="translate(0,38.584015)" /><g
     id="g9863"
     transform="translate(0,38.584015)" /><g
     id="g9865"
     transform="translate(0,38.584015)" /><g
     id="g9867"
     transform="translate(0,38.584015)" /><g
     id="g9869"
     transform="translate(0,38.584015)" /><g
     id="g9871"
     transform="translate(0,38.584015)" /><g
     id="g9873"
     transform="translate(0,38.584015)" /><g
     inkscape:groupmode="layer"
     id="layer28"
     inkscape:label="Bg"><rect
       style="fill:#ffffff;fill-opacity:1;stroke:none;stroke-width:5.00600004;stroke-linecap:butt;stroke-linejoin:miter;stroke-miterlimit:4;stroke-dasharray:none;stroke-opacity:1"
       id="rect13529"
       width="400.00003"
       height="400.00003"
       x="0"
       y="6.6757189e-006" /></g><g
     inkscape:groupmode="layer"
     id="layer29"
     inkscape:label="Fruit"><g
       style=""
       id="g9753"
       transform="matrix(1.195929,0,0,1.1067588,-16.113349,-3.4405723e-4)"><g
         id="g9755"><path
           style="fill:#ef8829"
           d="m 207.978,133.396 c 0.759,-0.324 1.563,-0.621 2.405,-0.888 -0.843,0.268 -1.645,0.564 -2.405,0.888 z"
           id="path9757"
           inkscape:connector-curvature="0" /><path
           style="fill:#ef8829"
           d="m 201.54,137.269 c 0.464,-0.376 0.975,-0.758 1.518,-1.14 -0.545,0.382 -1.053,0.763 -1.518,1.14 z"
           id="path9759"
           inkscape:connector-curvature="0" /><path
           style="fill:#ef8829"
           d="m 210.908,132.353 c 0.9,-0.265 1.831,-0.506 2.823,-0.686 -0.993,0.181 -1.923,0.421 -2.823,0.686 z"
           id="path9761"
           inkscape:connector-curvature="0" /><path
           style="fill:#ef8829"
           d="m 200.098,138.525 c 0.353,-0.33 0.748,-0.677 1.172,-1.031 -0.425,0.354 -0.819,0.7 -1.172,1.031 z"
           id="path9763"
           inkscape:connector-curvature="0" /><path
           style="fill:#ef8829"
           d="m 213.73,131.668 c 1.091,1.582 1.876,2.798 2.48,3.828 -0.68,-1.27 -1.486,-2.554 -2.48,-3.828 z"
           id="path9765"
           inkscape:connector-curvature="0" /><path
           style="fill:#ef8829"
           d="m 244.686,146.127 c 0.668,0.477 1.333,0.96 1.99,1.452 -0.657,-0.492 -1.321,-0.975 -1.99,-1.452 z"
           id="path9767"
           inkscape:connector-curvature="0" /><path
           style="fill:#ef8829"
           d="m 250.133,150.286 c 0.609,0.495 1.229,0.977 1.827,1.485 -0.598,-0.507 -1.217,-0.99 -1.827,-1.485 z"
           id="path9769"
           inkscape:connector-curvature="0" /><path
           style="fill:#ef8829"
           d="m 205.498,134.604 c 0.634,-0.351 1.316,-0.686 2.027,-1.005 -0.712,0.32 -1.392,0.654 -2.027,1.005 z"
           id="path9771"
           inkscape:connector-curvature="0" /><path
           style="fill:#ef8829"
           d="m 239.134,142.393 c 0.605,0.379 1.195,0.779 1.792,1.169 -0.598,-0.39 -1.187,-0.79 -1.792,-1.169 z"
           id="path9773"
           inkscape:connector-curvature="0" /><path
           style="fill:#ef8829"
           d="m 261.269,160.645 c 0.674,0.721 1.327,1.462 1.982,2.201 -0.656,-0.74 -1.307,-1.48 -1.982,-2.201 z"
           id="path9775"
           inkscape:connector-curvature="0" /><path
           style="fill:#ef8829"
           d="m 265.616,165.595 c 0.656,0.79 1.306,1.584 1.94,2.392 -0.634,-0.808 -1.284,-1.601 -1.94,-2.392 z"
           id="path9777"
           inkscape:connector-curvature="0" /><path
           style="fill:#ef8829"
           d="m 203.453,135.86 c 0.581,-0.392 1.193,-0.783 1.86,-1.158 -0.668,0.375 -1.279,0.765 -1.86,1.158 z"
           id="path9779"
           inkscape:connector-curvature="0" /><path
           style="fill:#ef8829"
           d="m 258.176,157.491 c -0.503,-0.497 -0.986,-1.013 -1.499,-1.5 0.513,0.487 0.996,1.003 1.499,1.5 z"
           id="path9781"
           inkscape:connector-curvature="0" /><path
           style="fill:#ef8829"
           d="m 183.72,137.16 c 0.004,-0.414 0.042,-0.829 0.114,-1.241 -0.072,0.413 -0.11,0.827 -0.114,1.241 z"
           id="path9783"
           inkscape:connector-curvature="0" /><path
           style="fill:#ef8829"
           d="m 199.957,138.654 c -0.387,0.367 -0.718,0.705 -1.015,1.022 0.295,-0.315 0.631,-0.657 1.015,-1.022 z"
           id="path9785"
           inkscape:connector-curvature="0" /><path
           style="fill:#ef8829"
           d="m 184.34,134.253 c 0.178,-0.412 0.38,-0.817 0.637,-1.203 -0.257,0.387 -0.459,0.792 -0.637,1.203 z"
           id="path9787"
           inkscape:connector-curvature="0" /><path
           style="fill:#ef8829"
           d="m 183.912,135.59 c 0.074,-0.329 0.169,-0.654 0.288,-0.975 -0.119,0.321 -0.215,0.645 -0.288,0.975 z"
           id="path9789"
           inkscape:connector-curvature="0" /><path
           style="fill:#ef8829"
           d="m 70.947,247.67 c -0.137,-1.293 -0.228,-2.599 -0.319,-3.905 0.092,1.306 0.182,2.612 0.319,3.905 z"
           id="path9791"
           inkscape:connector-curvature="0" /><path
           style="fill:#ef8829"
           d="m 91.054,300.267 c -0.767,-1.066 -1.526,-2.137 -2.255,-3.23 0.729,1.094 1.489,2.164 2.255,3.23 z"
           id="path9793"
           inkscape:connector-curvature="0" /><path
           style="fill:#ef8829"
           d="m 106.888,317.977 c -1.316,-1.186 -2.603,-2.402 -3.86,-3.649 1.257,1.247 2.544,2.464 3.86,3.649 z"
           id="path9795"
           inkscape:connector-curvature="0" /><path
           style="fill:#ef8829"
           d="m 94.788,305.18 c -0.964,-1.194 -1.911,-2.402 -2.825,-3.636 0.914,1.235 1.861,2.442 2.825,3.636 z"
           id="path9797"
           inkscape:connector-curvature="0" /><path
           style="fill:#ef8829"
           d="m 84.821,290.568 c -0.57,-0.997 -1.133,-1.999 -1.672,-3.016 0.539,1.017 1.102,2.018 1.672,3.016 z"
           id="path9799"
           inkscape:connector-curvature="0" /><path
           style="fill:#ef8829"
           d="m 87.779,295.447 c -0.653,-1.016 -1.3,-2.037 -1.92,-3.076 0.62,1.039 1.267,2.059 1.92,3.076 z"
           id="path9801"
           inkscape:connector-curvature="0" /><path
           style="fill:#ef8829"
           d="m 184.181,139.81 c -0.105,-0.291 -0.196,-0.586 -0.264,-0.887 0.069,0.301 0.159,0.596 0.264,0.887 z"
           id="path9803"
           inkscape:connector-curvature="0" /><path
           style="fill:#ef8829"
           d="m 268.09,168.698 c -6.472,-5.784 -23.465,-19.208 -33.665,-22.017 -0.215,-2.987 -0.184,-2.999 -0.456,-4.495 0.795,5.44 0.314,9.29 0.264,9.631 -0.531,3.756 -3.751,6.468 -7.437,6.468 -0.35,0 -0.705,-0.025 -1.063,-0.076 -4.091,-0.579 -6.947,-4.351 -6.4,-8.44 0.04,-0.34 0.436,-4.156 -0.991,-9.074 0.145,0.573 0.292,1.179 0.473,1.9 -1.477,-0.74 -9.025,-3.008 -20.739,-1.943 0.192,-0.232 0.443,-0.518 0.726,-0.825 -0.821,0.892 -1.276,1.521 -1.342,1.615 -1.444,2.169 -3.811,3.334 -6.228,3.334 -1.438,0 -2.891,-0.412 -4.182,-1.27 -1.207,-0.804 -2.084,-1.91 -2.642,-3.143 0.103,0.226 0.203,0.454 0.329,0.67 -23.67,2.104 -45.217,11.703 -62.237,26.412 -0.348,0.244 -0.679,0.511 -0.982,0.812 1.403,-1.394 3.338,-2.196 5.314,-2.196 1.985,0 3.921,0.802 5.324,2.196 1.395,1.403 2.206,3.339 2.206,5.315 0,1.985 -0.812,3.921 -2.206,5.324 -1.404,1.394 -3.339,2.196 -5.324,2.196 -1.976,0 -3.911,-0.802 -5.314,-2.196 -1.404,-1.404 -2.206,-3.339 -2.206,-5.324 0,-1.975 0.802,-3.911 2.206,-5.315 -0.089,0.089 -0.168,0.186 -0.252,0.279 -22.724,20.233 -37.063,49.691 -37.063,82.438 0,25.223 8.51,48.492 22.801,67.102 19.558,17.579 45.4,28.297 73.704,28.297 60.867,0 110.385,-49.519 110.385,-110.386 -0.001,-25.319 -8.611,-48.644 -23.003,-67.289 z M 92.376,241.962 c -1.394,-1.404 -2.196,-3.339 -2.196,-5.315 0,-1.985 0.802,-3.92 2.196,-5.324 1.404,-1.394 3.339,-2.206 5.314,-2.206 1.986,0 3.921,0.813 5.325,2.206 1.403,1.404 2.206,3.339 2.206,5.324 0,1.976 -0.803,3.911 -2.206,5.315 -1.404,1.394 -3.339,2.205 -5.325,2.205 -1.974,0 -3.909,-0.811 -5.314,-2.205 z m 19.244,36.671 c -1.395,1.404 -3.339,2.206 -5.315,2.206 -1.975,0 -3.92,-0.802 -5.314,-2.206 -1.404,-1.393 -2.206,-3.339 -2.206,-5.315 0,-1.985 0.803,-3.921 2.206,-5.314 1.394,-1.404 3.339,-2.206 5.314,-2.206 1.976,0 3.921,0.802 5.315,2.206 1.403,1.393 2.205,3.329 2.205,5.314 0,1.975 -0.802,3.921 -2.205,5.315 z m 0,-73.513 c -1.395,1.393 -3.329,2.196 -5.315,2.196 -1.985,0 -3.92,-0.802 -5.314,-2.196 -1.404,-1.404 -2.206,-3.339 -2.206,-5.325 0,-1.975 0.803,-3.91 2.206,-5.314 1.394,-1.403 3.339,-2.206 5.314,-2.206 1.976,0 3.911,0.803 5.315,2.206 1.403,1.404 2.205,3.339 2.205,5.314 0,1.986 -0.802,3.921 -2.205,5.325 z m 20.536,98.602 c -1.404,1.393 -3.339,2.196 -5.324,2.196 -1.976,0 -3.911,-0.802 -5.314,-2.196 -1.404,-1.404 -2.206,-3.349 -2.206,-5.325 0,-1.975 0.802,-3.92 2.206,-5.314 1.403,-1.404 3.338,-2.206 5.314,-2.206 1.985,0 3.921,0.803 5.324,2.206 1.395,1.394 2.196,3.339 2.196,5.314 0.001,1.976 -0.801,3.921 -2.196,5.325 z m 6.619,-42.958 c -1.394,1.403 -3.329,2.205 -5.315,2.205 -1.975,0 -3.92,-0.802 -5.314,-2.205 -1.404,-1.394 -2.206,-3.339 -2.206,-5.315 0,-1.985 0.803,-3.92 2.206,-5.324 1.395,-1.393 3.339,-2.196 5.314,-2.196 1.976,0 3.921,0.803 5.315,2.196 1.404,1.404 2.205,3.339 2.205,5.324 0,1.976 -0.802,3.911 -2.205,5.315 z m 0,-38.918 c -1.394,1.405 -3.329,2.206 -5.315,2.206 -1.975,0 -3.92,-0.802 -5.314,-2.206 -1.404,-1.393 -2.206,-3.339 -2.206,-5.314 0,-1.985 0.803,-3.921 2.206,-5.324 1.395,-1.395 3.339,-2.197 5.314,-2.197 1.976,0 3.921,0.802 5.315,2.197 1.404,1.403 2.205,3.339 2.205,5.324 0,1.975 -0.802,3.921 -2.205,5.314 z"
           id="path9805"
           inkscape:connector-curvature="0" /><path
           style="fill:#ef8829"
           d="m 183.826,138.432 c -0.046,-0.286 -0.074,-0.575 -0.086,-0.866 0.013,0.291 0.04,0.579 0.086,0.866 z"
           id="path9807"
           inkscape:connector-curvature="0" /><path
           style="fill:#ef8829"
           d="m 72.757,259.017 c -0.232,-1.091 -0.433,-2.193 -0.632,-3.296 0.2,1.103 0.4,2.205 0.632,3.296 z"
           id="path9809"
           inkscape:connector-curvature="0" /><path
           style="fill:#ef8829"
           d="m 74.092,264.552 c -0.283,-1.056 -0.54,-2.123 -0.792,-3.192 0.252,1.069 0.509,2.135 0.792,3.192 z"
           id="path9811"
           inkscape:connector-curvature="0" /><path
           style="fill:#ef8829"
           d="m 71.708,253.39 c -0.184,-1.154 -0.328,-2.32 -0.476,-3.485 0.147,1.165 0.292,2.331 0.476,3.485 z"
           id="path9813"
           inkscape:connector-curvature="0" /><path
           style="fill:#ef8829"
           d="m 95.343,305.887 c 2.376,2.897 4.895,5.671 7.549,8.312 -2.654,-2.641 -5.172,-5.416 -7.549,-8.312 z"
           id="path9815"
           inkscape:connector-curvature="0" /><path
           style="fill:#ef8829"
           d="m 82.141,285.589 c -0.502,-0.993 -0.994,-1.993 -1.467,-3.003 0.473,1.011 0.965,2.009 1.467,3.003 z"
           id="path9817"
           inkscape:connector-curvature="0" /><path
           style="fill:#ef8829"
           d="m 70.483,241.87 c -0.103,-1.948 -0.16,-3.908 -0.16,-5.881 0,1.973 0.058,3.933 0.16,5.881 z"
           id="path9819"
           inkscape:connector-curvature="0" /><path
           style="fill:#ef8829"
           d="m 79.729,280.5 c -0.442,-0.999 -0.871,-2.006 -1.284,-3.02 0.413,1.014 0.842,2.02 1.284,3.02 z"
           id="path9821"
           inkscape:connector-curvature="0" /><path
           style="fill:#ef8829"
           d="m 77.582,275.296 c -0.387,-1.012 -0.757,-2.033 -1.115,-3.06 0.358,1.027 0.728,2.047 1.115,3.06 z"
           id="path9823"
           inkscape:connector-curvature="0" /><path
           style="fill:#ef8829"
           d="m 75.702,269.979 c -0.335,-1.031 -0.648,-2.072 -0.953,-3.117 0.305,1.044 0.618,2.085 0.953,3.117 z"
           id="path9825"
           inkscape:connector-curvature="0" /></g><path
         style="fill:#3f2d20"
         d="m 133.46,209.011 c -1.975,0 -3.92,0.802 -5.314,2.197 -1.403,1.403 -2.206,3.339 -2.206,5.324 0,1.975 0.803,3.921 2.206,5.315 1.395,1.404 3.339,2.206 5.314,2.206 1.986,0 3.921,-0.802 5.315,-2.206 1.403,-1.393 2.205,-3.339 2.205,-5.315 0,-1.985 -0.802,-3.921 -2.205,-5.324 -1.394,-1.395 -3.339,-2.197 -5.315,-2.197 z"
         id="path9827"
         inkscape:connector-curvature="0" /><path
         style="fill:#3f2d20"
         d="m 133.46,247.928 c -1.975,0 -3.92,0.803 -5.314,2.196 -1.403,1.404 -2.206,3.339 -2.206,5.324 0,1.976 0.803,3.921 2.206,5.316 1.395,1.403 3.339,2.205 5.314,2.205 1.986,0 3.921,-0.802 5.315,-2.205 1.403,-1.404 2.205,-3.339 2.205,-5.316 0,-1.985 -0.802,-3.92 -2.205,-5.324 -1.394,-1.393 -3.339,-2.196 -5.315,-2.196 z"
         id="path9829"
         inkscape:connector-curvature="0" /><path
         style="fill:#3f2d20"
         d="m 126.832,290.876 c -1.976,0 -3.911,0.803 -5.314,2.206 -1.404,1.394 -2.206,3.339 -2.206,5.314 0,1.976 0.802,3.921 2.206,5.325 1.403,1.393 3.338,2.196 5.314,2.196 1.985,0 3.921,-0.802 5.324,-2.196 1.395,-1.404 2.197,-3.349 2.197,-5.325 0,-1.975 -0.802,-3.92 -2.197,-5.314 -1.403,-1.402 -3.339,-2.206 -5.324,-2.206 z"
         id="path9831"
         inkscape:connector-curvature="0" /><path
         style="fill:#3f2d20"
         d="m 126.832,181.094 c 1.985,0 3.921,-0.802 5.324,-2.196 1.395,-1.404 2.206,-3.339 2.206,-5.324 0,-1.975 -0.812,-3.911 -2.206,-5.314 -1.403,-1.395 -3.339,-2.197 -5.324,-2.197 -1.976,0 -3.911,0.802 -5.314,2.197 -1.404,1.403 -2.206,3.339 -2.206,5.314 0,1.985 0.802,3.921 2.206,5.324 1.403,1.394 3.338,2.196 5.314,2.196 z"
         id="path9833"
         inkscape:connector-curvature="0" /><path
         style="fill:#3f2d20"
         d="m 106.305,192.274 c -1.975,0 -3.92,0.803 -5.315,2.206 -1.403,1.404 -2.206,3.339 -2.206,5.314 0,1.986 0.803,3.921 2.206,5.325 1.395,1.393 3.33,2.195 5.315,2.195 1.986,0 3.921,-0.802 5.315,-2.195 1.403,-1.404 2.205,-3.339 2.205,-5.325 0,-1.975 -0.802,-3.91 -2.205,-5.314 -1.404,-1.403 -3.339,-2.206 -5.315,-2.206 z"
         id="path9835"
         inkscape:connector-curvature="0" /><path
         style="fill:#3f2d20"
         d="m 105.222,236.647 c 0,-1.985 -0.803,-3.92 -2.206,-5.324 -1.404,-1.393 -3.339,-2.206 -5.325,-2.206 -1.975,0 -3.91,0.813 -5.314,2.206 -1.394,1.404 -2.195,3.339 -2.195,5.324 0,1.976 0.802,3.911 2.195,5.315 1.404,1.394 3.339,2.205 5.314,2.205 1.986,0 3.921,-0.812 5.325,-2.205 1.404,-1.404 2.206,-3.339 2.206,-5.315 z"
         id="path9837"
         inkscape:connector-curvature="0" /><path
         style="fill:#3f2d20"
         d="m 106.305,265.798 c -1.975,0 -3.92,0.802 -5.315,2.206 -1.403,1.393 -2.206,3.329 -2.206,5.315 0,1.975 0.803,3.921 2.206,5.314 1.395,1.404 3.339,2.206 5.315,2.206 1.976,0 3.921,-0.802 5.315,-2.206 1.403,-1.393 2.205,-3.339 2.205,-5.314 0,-1.985 -0.802,-3.921 -2.205,-5.315 -1.394,-1.405 -3.339,-2.206 -5.315,-2.206 z"
         id="path9839"
         inkscape:connector-curvature="0" /><path
         style="fill:#3f2d20"
         d="m 228.629,120.085 c 10.321,-13.64 33.961,-42.056 59.333,-53.45 3.788,-1.701 6.122,-5.513 4.848,-9.466 -1.275,-3.954 -5.515,-6.124 -9.466,-4.848 -9.575,3.089 -18.718,8.52 -27.1,15.001 C 253.318,55.647 247.033,38.696 233.758,25.42 221.797,13.459 208.072,7.08 198.663,3.834 185.085,-0.85 176.218,-1.244 172.305,2.664 c 0,0 -0.991,0.85 -1.676,2.556 -1.884,4.689 -1.016,12.632 2.836,23.8 3.245,9.409 9.624,23.136 21.585,35.096 12.86,12.86 29.17,19.159 40.79,22.202 -10.408,11.331 -18.267,22.417 -22.378,28.593 -10.445,-2.829 -21.424,-4.348 -32.755,-4.348 -69.16,0 -125.425,56.265 -125.425,125.426 0,69.161 56.266,125.427 125.425,125.427 69.162,0 125.426,-56.266 125.426,-125.427 0.001,-52.197 -32.051,-97.042 -77.504,-115.904 z m -5.507,-84.03 c 11.31,11.31 16.516,26.467 18.833,36.257 -9.797,-2.315 -24.956,-7.521 -36.268,-18.834 -12.95,-12.949 -18.553,-29.142 -20.345,-37.77 8.625,1.79 24.826,7.393 37.78,20.347 z M 70.323,235.989 c 0,-60.866 49.519,-110.385 110.384,-110.385 3.623,0 7.206,0.181 10.743,0.524 -4.142,3.497 -6.283,6.638 -6.473,6.922 -2.301,3.458 -1.385,8.155 2.072,10.458 1.291,0.858 2.744,1.27 4.182,1.27 2.417,0 4.785,-1.165 6.228,-3.334 0.243,-0.35 5.593,-7.841 16.271,-9.776 6.624,8.489 5.664,17.568 5.601,18.102 -0.546,4.089 2.309,7.862 6.401,8.44 0.358,0.051 0.713,0.076 1.064,0.076 3.686,0 6.906,-2.713 7.436,-6.468 0.059,-0.406 0.748,-5.719 -0.838,-12.807 34.345,18.733 57.698,55.18 57.698,96.979 0,60.867 -49.518,110.386 -110.385,110.386 C 119.842,346.374 70.323,296.856 70.323,235.989 Z"
         id="path9841"
         inkscape:connector-curvature="0" /><path
         style="fill:#84bd93"
         d="M 241.955,72.312 C 239.638,62.521 234.432,47.365 223.122,36.055 210.168,23.1 193.967,17.498 185.342,15.708 c 1.792,8.628 7.395,24.821 20.345,37.77 11.312,11.314 26.471,16.52 36.268,18.834 z"
         id="path9843"
         inkscape:connector-curvature="0" /></g></g></svg>