<?xml version="1.0" encoding="UTF-8" standalone="no"?>
<!-- Generator: Adobe Illustrator 18.0.0, SVG Export Plug-In . SVG Version: 6.00 Build 0)  -->

<svg
   xmlns:dc="http://purl.org/dc/elements/1.1/"
   xmlns:cc="http://creativecommons.org/ns#"
   xmlns:rdf="http://www.w3.org/1999/02/22-rdf-syntax-ns#"
   xmlns:svg="http://www.w3.org/2000/svg"
   xmlns="http://www.w3.org/2000/svg"
   xmlns:sodipodi="http://sodipodi.sourceforge.net/DTD/sodipodi-0.dtd"
   xmlns:inkscape="http://www.inkscape.org/namespaces/inkscape"
   version="1.1"
   id="Capa_1"
   x="0px"
   y="0px"
   viewBox="0 0 400.00001 400.00001"
   xml:space="preserve"
   inkscape:version="0.91 r13725"
   sodipodi:docname="pineapple.svg"
   width="400"
   height="400"><metadata
     id="metadata4285"><rdf:RDF><cc:Work
         rdf:about=""><dc:format>image/svg+xml</dc:format><dc:type
           rdf:resource="http://purl.org/dc/dcmitype/StillImage" /><dc:title></dc:title></cc:Work></rdf:RDF></metadata><defs
     id="defs4283" /><sodipodi:namedview
     pagecolor="#ffffff"
     bordercolor="#666666"
     borderopacity="1"
     objecttolerance="10"
     gridtolerance="10"
     guidetolerance="10"
     inkscape:pageopacity="1"
     inkscape:pageshadow="2"
     inkscape:window-width="1280"
     inkscape:window-height="666"
     id="namedview4281"
     showgrid="false"
     inkscape:zoom="1.2427299"
     inkscape:cx="199.963"
     inkscape:cy="199.963"
     inkscape:window-x="-8"
     inkscape:window-y="-8"
     inkscape:window-maximized="1"
     inkscape:current-layer="layer3" /><g
     id="g4251"
     transform="translate(0,0.07400513)" /><g
     id="g4253"
     transform="translate(0,0.07400513)" /><g
     id="g4255"
     transform="translate(0,0.07400513)" /><g
     id="g4257"
     transform="translate(0,0.07400513)" /><g
     id="g4259"
     transform="translate(0,0.07400513)" /><g
     id="g4261"
     transform="translate(0,0.07400513)" /><g
     id="g4263"
     transform="translate(0,0.07400513)" /><g
     id="g4265"
     transform="translate(0,0.07400513)" /><g
     id="g4267"
     transform="translate(0,0.07400513)" /><g
     id="g4269"
     transform="translate(0,0.07400513)" /><g
     id="g4271"
     transform="translate(0,0.07400513)" /><g
     id="g4273"
     transform="translate(0,0.07400513)" /><g
     id="g4275"
     transform="translate(0,0.07400513)" /><g
     id="g4277"
     transform="translate(0,0.07400513)" /><g
     id="g4279"
     transform="translate(0,0.07400513)" /><g
     inkscape:groupmode="layer"
     id="layer4"
     inkscape:label="Bg"
     style="display:inline"><rect
       style="fill:#ffffff;fill-opacity:1;stroke:none;stroke-width:5.00600004;stroke-linecap:butt;stroke-linejoin:miter;stroke-miterlimit:4;stroke-dasharray:none;stroke-opacity:1"
       id="rect4298"
       width="400"
       height="400"
       x="0"
       y="0" /></g><g
     inkscape:groupmode="layer"
     id="layer3"
     inkscape:label="Fruit"
     style="display:inline"><g
       id="g4137"
       transform="matrix(1.0047847,0,0,1.00018,-0.9207666,0)"><path
         style="fill:#ef8829"
         d="m 281.904,329.918 -14.235,8.215 8.714,5.029 c 2.092,-4.111 3.931,-8.529 5.521,-13.244 z"
         id="path4139"
         inkscape:connector-curvature="0" /><polygon
         style="fill:#ef8829"
         points="200.236,195.397 162.822,216.988 200.236,238.58 237.647,216.988 "
         id="polygon4141" /><path
         style="fill:#ef8829"
         d="m 287.413,306.26 -34.719,-20.038 -37.486,21.635 37.414,21.593 34.251,-19.767 c 0.19,-1.131 0.372,-2.267 0.54,-3.423 z"
         id="path4143"
         inkscape:connector-curvature="0" /><path
         style="fill:#ef8829"
         d="m 212.594,384.267 -12.431,-7.174 -12.491,7.209 c 3.952,0.374 8.038,0.583 12.292,0.583 4.375,0 8.572,-0.222 12.63,-0.618 z"
         id="path4145"
         inkscape:connector-curvature="0" /><path
         style="fill:#ef8829"
         d="m 241.643,171.498 -26.362,15.215 37.412,21.591 14.524,-8.382 c -7.256,-11.341 -15.952,-21.05 -25.574,-28.424 z"
         id="path4147"
         inkscape:connector-curvature="0" /><path
         style="fill:#ef8829"
         d="m 252.622,346.817 -37.412,21.592 19.501,11.256 c 13.827,-4.725 25.032,-12.676 33.634,-23.774 l -15.723,-9.074 z"
         id="path4149"
         inkscape:connector-curvature="0" /><path
         style="fill:#ef8829"
         d="m 267.466,216.831 11.835,6.83 c -1.469,-3.726 -3.081,-7.357 -4.822,-10.878 l -7.013,4.048 z"
         id="path4151"
         inkscape:connector-curvature="0" /><path
         style="fill:#ef8829"
         d="m 289.421,276.593 c 0,-3.792 -0.159,-7.563 -0.458,-11.303 l -21.222,12.249 21.315,12.301 c 0.241,-4.273 0.365,-8.687 0.365,-13.247 z"
         id="path4153"
         inkscape:connector-curvature="0" /><path
         style="fill:#ef8829"
         d="m 215.009,247.107 37.684,21.748 34.057,-19.655 c -0.288,-1.477 -0.592,-2.947 -0.922,-4.407 l -33.407,-19.279 -37.412,21.593 z"
         id="path4155"
         inkscape:connector-curvature="0" /><polygon
         style="fill:#ef8829"
         points="162.749,338.133 200.163,359.725 237.575,338.133 200.161,316.541 "
         id="polygon4157" /><polygon
         style="fill:#ef8829"
         points="237.647,277.539 199.963,255.79 162.477,277.424 200.161,299.173 "
         id="polygon4159" /><g
         id="g4161"><g
           id="g4163"><path
             style="fill:#84bd93"
             d="m 234.035,72.157 c 0.05,-1.935 0.049,-3.811 0.008,-5.611 0.041,1.8 0.042,3.677 -0.008,5.611 z"
             id="path4165"
             inkscape:connector-curvature="0" /><path
             style="fill:#84bd93"
             d="m 233.776,61.119 c 0.06,0.764 0.11,1.559 0.152,2.371 -0.042,-0.812 -0.091,-1.607 -0.152,-2.371 z"
             id="path4167"
             inkscape:connector-curvature="0" /><path
             style="fill:#84bd93"
             d="m 233.95,63.935 c 0.034,0.713 0.062,1.443 0.082,2.188 -0.02,-0.746 -0.048,-1.475 -0.082,-2.188 z"
             id="path4169"
             inkscape:connector-curvature="0" /><path
             style="fill:#84bd93"
             d="m 232.58,52.93 c 0.119,0.472 0.23,0.992 0.337,1.538 -0.106,-0.545 -0.218,-1.066 -0.337,-1.538 z"
             id="path4171"
             inkscape:connector-curvature="0" /><path
             style="fill:#84bd93"
             d="m 232.786,63.236 c -3.046,3.892 -7.349,11.796 -10.962,21.748 0.708,4.25 1.332,8.62 1.835,12.989 2.769,-3.959 5.856,-7.95 9.115,-11.468 0.749,-4.816 1.141,-9.722 1.26,-14.331 -0.254,-3.619 -0.689,-6.714 -1.248,-8.938 z"
             id="path4173"
             inkscape:connector-curvature="0" /><path
             style="fill:#84bd93"
             d="m 233.011,54.977 c 0.075,0.409 0.146,0.834 0.214,1.278 -0.068,-0.445 -0.139,-0.869 -0.214,-1.278 z"
             id="path4175"
             inkscape:connector-curvature="0" /><path
             style="fill:#84bd93"
             d="m 233.313,56.848 c 0.071,0.503 0.138,1.027 0.2,1.568 -0.063,-0.541 -0.129,-1.064 -0.2,-1.568 z"
             id="path4177"
             inkscape:connector-curvature="0" /><path
             style="fill:#84bd93"
             d="m 233.563,58.838 c 0.079,0.725 0.151,1.478 0.212,2.262 -0.062,-0.784 -0.133,-1.537 -0.212,-2.262 z"
             id="path4179"
             inkscape:connector-curvature="0" /></g><g
           id="g4181"><path
             style="fill:#84bd93"
             d="m 250.165,92.522 c 0.016,0.157 0.028,0.324 0.041,0.489 -0.013,-0.165 -0.026,-0.331 -0.041,-0.489 z"
             id="path4183"
             inkscape:connector-curvature="0" /><path
             style="fill:#84bd93"
             d="m 223.403,127.39 c 0.097,-0.115 0.204,-0.218 0.294,-0.339 -0.09,0.12 -0.197,0.224 -0.294,0.339 z"
             id="path4185"
             inkscape:connector-curvature="0" /><path
             style="fill:#84bd93"
             d="m 250.278,94.289 c 0.007,0.185 0.016,0.363 0.02,0.555 -0.004,-0.191 -0.013,-0.369 -0.02,-0.555 z"
             id="path4187"
             inkscape:connector-curvature="0" /><path
             style="fill:#84bd93"
             d="m 250.278,97.424 c 0.007,-0.224 0.019,-0.459 0.023,-0.676 -0.005,0.217 -0.016,0.452 -0.023,0.676 z"
             id="path4189"
             inkscape:connector-curvature="0" /><path
             style="fill:#84bd93"
             d="m 222.796,128.048 c -0.127,0.118 -0.266,0.221 -0.4,0.33 0.134,-0.109 0.272,-0.211 0.4,-0.33 z"
             id="path4191"
             inkscape:connector-curvature="0" /><path
             style="fill:#84bd93"
             d="m 250.216,98.904 c -0.018,0.333 -0.039,0.672 -0.062,1.016 0.023,-0.344 0.044,-0.683 0.062,-1.016 z"
             id="path4193"
             inkscape:connector-curvature="0" /><path
             style="fill:#84bd93"
             d="m 249.955,102.383 c 0.037,-0.379 0.064,-0.739 0.095,-1.108 -0.031,0.369 -0.058,0.729 -0.095,1.108 z"
             id="path4195"
             inkscape:connector-curvature="0" /><path
             style="fill:#84bd93"
             d="m 221.275,129.132 c 0.159,-0.087 0.317,-0.173 0.469,-0.271 -0.152,0.098 -0.31,0.184 -0.469,0.271 z"
             id="path4197"
             inkscape:connector-curvature="0" /></g><path
           style="fill:#84bd93"
           d="m 219.856,129.595 c -0.001,0.021 -0.009,0.042 -0.01,0.063 0.163,-0.061 0.315,-0.109 0.492,-0.184 -0.084,0.036 -0.396,0.088 -0.482,0.121 z"
           id="path4199"
           inkscape:connector-curvature="0" /><g
           id="g4201"><path
             style="fill:#84bd93"
             d="m 205.301,77.696 c 0.46,2.069 0.926,4.26 1.386,6.539 0.028,-0.116 0.059,-0.241 0.087,-0.356 -0.465,-2.161 -0.965,-4.215 -1.473,-6.183 z"
             id="path4203"
             inkscape:connector-curvature="0" /><path
             style="fill:#84bd93"
             d="m 248.459,105.808 c -0.112,0.121 -0.223,0.241 -0.341,0.354 -6.079,6.36 -15.007,17.648 -21.278,30.39 -0.618,1.256 -8.015,3.051 -8.015,-3.965 l 0,-0.326 c 0,-0.851 0.756,-1.723 0.812,-2.604 -1.144,0.429 -1.669,0.549 -3.056,0.227 -3.406,-0.793 -4.757,-3.828 -4.757,-7.325 l 0,-0.326 c 0,-11.517 -2.462,-25.966 -4.889,-37.999 -3.089,12.797 -9.111,32.186 -6.111,48.027 l 0,0.323 c 0,3.496 -2.919,6.532 -6.325,7.325 -3.404,0.79 -7.163,-0.866 -8.708,-4.002 -0.979,-1.988 -2.138,-3.935 -3.198,-5.838 0.035,-10e-4 0.006,-0.012 0.04,-0.013 -2.87,0.027 -5.671,-1.542 -6.969,-4.176 -6.269,-12.73 -14.591,-24.012 -20.668,-30.374 -0.141,-0.134 0.111,-0.275 -0.019,-0.42 -1.747,-1.793 -4.153,-3.163 -4.153,-4.017 0,0.004 0,0.009 0,0.013 0,0.855 2.376,2.219 4.115,4.004 0.13,0.145 0.05,0.286 0.191,0.42 1.558,1.631 3.153,3.59 4.926,5.809 -1.327,7.813 1.651,29.721 8.617,46.827 -0.967,0.423 -1.961,1.697 -2.921,1.697 10e-4,0 -0.011,0 -0.011,0 10.933,-6 22.458,-8.393 34.229,-8.393 11.761,0 23.283,2.558 34.207,7.817 2.613,-1.133 5.509,-7.49 6.725,-10.375 4.658,-11.053 7.632,-24.196 8.819,-34.29 -0.406,0.392 -0.828,0.764 -1.262,1.21 z"
             id="path4205"
             inkscape:connector-curvature="0" /></g><g
           id="g4207"><path
             style="fill:#84bd93"
             d="m 200.696,21.417 c 0.078,0.248 0.154,0.52 0.231,0.776 -0.078,-0.257 -0.154,-0.528 -0.231,-0.776 z"
             id="path4209"
             inkscape:connector-curvature="0" /><path
             style="fill:#84bd93"
             d="m 201.415,23.869 c 0.092,0.332 0.181,0.682 0.272,1.026 -0.091,-0.344 -0.18,-0.693 -0.272,-1.026 z"
             id="path4211"
             inkscape:connector-curvature="0" /><path
             style="fill:#84bd93"
             d="m 202.111,26.556 c 0.094,0.387 0.187,0.784 0.279,1.182 -0.093,-0.399 -0.185,-0.794 -0.279,-1.182 z"
             id="path4213"
             inkscape:connector-curvature="0" /><path
             style="fill:#84bd93"
             d="m 197.228,43.017 c -0.763,0.189 -1.506,0.451 -2.224,0.811 0.718,-0.361 1.463,-0.618 2.224,-0.811 z"
             id="path4215"
             inkscape:connector-curvature="0" /><path
             style="fill:#84bd93"
             d="m 202.593,28.649 c -1.205,3.792 -2.376,8.722 -3.237,14.046 -0.319,0.017 -0.621,0.1 -0.933,0.141 0.51,-0.07 1.011,-0.175 1.54,-0.175 1.759,0 3.408,0.388 4.961,1.168 -0.437,-5.281 -1.3,-10.546 -2.331,-15.18 z"
             id="path4217"
             inkscape:connector-curvature="0" /></g><g
           id="g4219"><path
             style="fill:#84bd93"
             d="m 171.529,59.493 c 0.099,0.18 0.199,0.37 0.298,0.554 -0.099,-0.184 -0.198,-0.374 -0.298,-0.554 z"
             id="path4221"
             inkscape:connector-curvature="0" /><path
             style="fill:#84bd93"
             d="m 169.968,56.795 c 0.098,0.161 0.196,0.325 0.296,0.491 -0.1,-0.166 -0.198,-0.329 -0.296,-0.491 z"
             id="path4223"
             inkscape:connector-curvature="0" /><path
             style="fill:#84bd93"
             d="m 173.065,62.421 c 0.081,0.16 0.161,0.318 0.241,0.481 -0.08,-0.163 -0.16,-0.32 -0.241,-0.481 z"
             id="path4225"
             inkscape:connector-curvature="0" /><path
             style="fill:#84bd93"
             d="m 171.177,91.2 c -0.198,-0.246 -0.396,-0.485 -0.596,-0.729 0.199,0.243 0.399,0.484 0.596,0.729 z"
             id="path4227"
             inkscape:connector-curvature="0" /><path
             style="fill:#84bd93"
             d="m 168.548,54.59 c 0.067,0.098 0.132,0.19 0.2,0.29 -0.069,-0.101 -0.134,-0.192 -0.2,-0.29 z"
             id="path4229"
             inkscape:connector-curvature="0" /><path
             style="fill:#84bd93"
             d="m 174.134,64.643 c -1.21,7.13 -1.475,19.2 0.3,30.782 0.623,0.848 1.239,1.698 1.834,2.548 0.789,-6.881 1.859,-13.801 3.134,-20.17 -1.625,-4.88 -3.449,-9.309 -5.268,-13.16 z"
             id="path4231"
             inkscape:connector-curvature="0" /></g><path
           style="fill:#ffffff"
           d="m 175.157,96.429 c 0.371,0.515 0.751,1.029 1.111,1.544 0.01,-0.084 0.022,-0.169 0.031,-0.254 -0.377,-0.436 -0.758,-0.865 -1.142,-1.29 z"
           id="path4233"
           inkscape:connector-curvature="0" /><path
           style="fill:#ef8829"
           d="m 120.533,276.593 c 0,2.69 0.049,5.321 0.135,7.909 l 11.99,-6.92 -21.679,-12.511 9.682,5.588 c -0.084,1.971 -0.128,3.949 -0.128,5.934 z"
           id="path4235"
           inkscape:connector-curvature="0" /><path
           style="fill:#ef8829"
           d="m 171.8,178.986 c -13.234,8.038 -20.023,17.676 -26.867,27.677 l -12.079,-6.971 14.922,8.612 37.412,-21.592 -13.388,-7.726 z"
           id="path4237"
           inkscape:connector-curvature="0" /><path
           style="fill:#ef8829"
           d="m 219.453,166.937 c -3.127,-0.514 -6.284,-0.799 -9.461,-0.799 -7.712,0 -15.304,1.583 -22.617,4.469 l 12.86,7.422 26.865,-15.505 -7.647,4.413 z"
           id="path4239"
           inkscape:connector-curvature="0" /><path
           style="fill:#ef8829"
           d="m 147.776,225.672 -33.753,19.48 12.444,-7.182 c -1.469,3.105 -3.615,8.714 -4.37,16.15 l 25.607,14.778 37.486,-21.634 -37.414,-21.592 z"
           id="path4241"
           inkscape:connector-curvature="0" /><path
           style="fill:#ef8829"
           d="m 130.523,339.364 2.134,-1.232 -14.734,-8.504 11.459,6.614 c 0.362,1.039 0.743,2.08 1.141,3.122 z"
           id="path4243"
           inkscape:connector-curvature="0" /><path
           style="fill:#ef8829"
           d="m 147.432,286.109 -25.434,14.678 c 0.277,3.391 0.851,8.679 2.019,14.992 l 23.685,13.67 37.414,-21.592 -37.684,-21.748 z"
           id="path4245"
           inkscape:connector-curvature="0" /><path
           style="fill:#ef8829"
           d="m 147.702,346.816 -15.997,9.233 5.224,-3.015 c 6.425,11.246 15.559,21.269 28.545,26.711 l 19.642,-11.336 -37.414,-21.593 z"
           id="path4247"
           inkscape:connector-curvature="0" /></g><path
         style="fill:#3f2d20"
         d="m 274.609,184.167 c -8.102,-11.084 -17.192,-20.175 -26.955,-27.108 3.134,-3.75 5.402,-8.374 7.109,-12.425 4.078,-9.678 20.753,-60.537 1.543,-68.635 -2.391,-1.009 -4.867,-1.144 -7.37,-0.603 0.249,-5.271 0.206,-10.546 -0.166,-15.283 -0.427,-5.424 -1.723,-21.931 -12.584,-24.234 -6.085,-1.29 -11.542,2.729 -16.136,8.727 -0.513,-7.61 -1.857,-16.075 -3.76,-23.345 C 213.9,12.134 209.605,0 199.965,0 c -9.64,0 -13.935,12.134 -16.326,21.261 -1.906,7.271 -3.249,15.734 -3.762,23.342 -4.593,-5.994 -10.049,-10.009 -16.136,-8.723 -10.86,2.303 -12.155,18.813 -12.582,24.237 -0.372,4.737 -0.415,10.011 -0.167,15.281 -2.505,-0.541 -4.978,-0.406 -7.37,0.602 -19.209,8.096 -2.534,58.957 1.545,68.635 1.7,4.038 3.964,8.669 7.104,12.427 -9.763,6.933 -18.851,16.023 -26.953,27.106 -18.972,25.951 -29.854,59.639 -29.854,92.426 0,36.567 7.556,65.598 22.457,86.287 17.705,24.582 45.308,37.047 82.043,37.047 36.735,0 64.338,-12.464 82.043,-37.047 14.901,-20.69 22.457,-49.721 22.457,-86.287 -0.002,-32.787 -10.883,-66.475 -29.855,-92.427 z m 12.141,65.033 -34.057,19.655 -37.684,-21.748 37.412,-21.592 33.407,19.279 c 0.33,1.46 0.634,2.929 0.922,4.406 z m -124.273,28.224 37.486,-21.635 37.684,21.749 -37.486,21.634 -37.684,-21.748 z m 75.098,60.709 -37.412,21.592 -37.414,-21.592 37.412,-21.592 37.414,21.592 z m -37.339,-142.737 37.412,21.592 -37.412,21.592 -37.414,-21.592 37.414,-21.592 z m -0.002,-17.367 -27.106,-15.644 c 8.59,-4.046 17.631,-6.275 26.836,-6.275 9.313,0 18.457,2.279 27.135,6.414 l -26.865,15.505 z m 74.245,34.754 c 1.741,3.521 3.353,7.152 4.822,10.878 l -11.836,-6.831 7.014,-4.047 z m -7.262,-12.861 -14.524,8.382 -37.412,-21.591 26.362,-15.215 c 9.622,7.374 18.318,17.083 25.574,28.424 z M 232.58,52.93 c 1.639,6.518 2.245,20.395 0.194,33.575 -3.259,3.519 -6.345,7.509 -9.115,11.468 -0.791,-6.88 -1.859,-13.799 -3.134,-20.168 3.804,-11.419 8.697,-20.582 12.055,-24.875 z M 199.965,19.236 c 2.06,5.706 4.177,15.164 4.959,24.593 -1.553,-0.78 -3.202,-1.168 -4.961,-1.168 -1.759,0 -3.408,0.388 -4.959,1.167 0.782,-9.428 2.899,-18.886 4.961,-24.592 z M 167.346,52.93 c 3.359,4.292 8.253,13.453 12.056,24.872 -1.275,6.369 -2.344,13.289 -3.134,20.17 -2.771,-3.957 -5.858,-7.947 -9.115,-11.465 -2.052,-13.182 -1.446,-27.059 0.193,-33.577 z m -17.388,38.138 c 1.257,0.854 2.81,2.224 4.558,4.017 0.129,0.145 0.263,0.286 0.403,0.42 6.077,6.362 14.321,17.644 20.59,30.374 1.545,3.136 5.073,4.792 8.477,4.002 3.406,-0.793 5.839,-3.829 5.839,-7.325 l 0,-0.323 c 0,-24.787 9.512,-58.309 11,-61.573 1.49,3.268 11,38.372 11,61.573 l 0,0.326 c 0,3.497 1.572,6.532 4.978,7.325 3.402,0.788 6.489,-0.866 8.034,-4.003 6.271,-12.741 14.313,-24.029 20.393,-30.389 0.118,-0.113 0.125,-0.233 0.236,-0.355 1.767,-1.819 3.287,-3.208 4.556,-4.07 1.45,7.788 -1.753,30.308 -9.094,47.725 -1.217,2.885 -4.128,9.148 -6.741,10.281 -10.925,-5.26 -22.457,-8.005 -34.218,-8.005 -11.771,0 -23.308,2.751 -34.24,8.017 -1.835,-0.839 -4.271,-4.531 -6.7,-10.294 -7.34,-17.416 -10.518,-39.935 -9.071,-47.723 z m 8.557,80.251 26.673,15.393 -37.412,21.592 -14.922,-8.612 c 7.288,-11.334 16.013,-21.027 25.661,-28.373 z m -33.068,41.466 7.282,4.202 -12.258,7.076 c 1.51,-3.866 3.172,-7.632 4.976,-11.278 z m -11.424,32.367 12.444,-7.182 21.309,-12.298 37.414,21.593 -37.486,21.634 -25.607,-14.778 -8.879,-5.125 c 0.253,-1.287 0.517,-2.57 0.805,-3.844 z m -3.517,31.441 c 0,-3.866 0.162,-7.71 0.474,-11.522 l 21.679,12.511 -21.765,12.562 c -0.255,-4.369 -0.388,-8.882 -0.388,-13.551 z m 2.504,32.833 c -0.174,-1.045 -0.341,-2.097 -0.497,-3.165 l 9.485,-5.474 25.434,-14.678 37.684,21.749 -37.414,21.592 -23.685,-13.67 -11.007,-6.354 z m 10.627,33.912 c -2.174,-4.247 -4.08,-8.816 -5.715,-13.709 l 11.459,6.614 3.275,1.89 -2.134,1.232 -6.885,3.973 z m 41.837,36.407 c -13.878,-4.692 -25.13,-12.613 -33.769,-23.695 l 5.224,-3.015 10.773,-6.218 37.414,21.593 -19.642,11.335 z m 34.489,5.14 c -4.254,0 -8.339,-0.209 -12.292,-0.583 l 12.491,-7.209 12.431,7.174 c -4.057,0.396 -8.254,0.618 -12.63,0.618 z m 34.748,-5.22 -19.501,-11.256 37.412,-21.592 15.723,9.074 c -8.602,11.098 -19.806,19.049 -33.634,23.774 z m 41.672,-36.503 -8.714,-5.029 14.234,-8.215 c -1.589,4.715 -3.428,9.133 -5.52,13.244 z m 10.49,-33.48 -34.251,19.768 -37.414,-21.593 37.486,-21.635 34.719,20.038 c -0.168,1.155 -0.35,2.292 -0.54,3.422 z M 267.74,277.539 288.962,265.29 c 0.3,3.74 0.458,7.511 0.458,11.303 0,4.559 -0.124,8.974 -0.366,13.247 L 267.74,277.539 Z"
         id="path4249"
         inkscape:connector-curvature="0" /></g></g></svg>