<?xml version="1.0" encoding="UTF-8" standalone="no"?>
<!-- Generator: Adobe Illustrator 18.0.0, SVG Export Plug-In . SVG Version: 6.00 Build 0)  -->

<svg
   xmlns:dc="http://purl.org/dc/elements/1.1/"
   xmlns:cc="http://creativecommons.org/ns#"
   xmlns:rdf="http://www.w3.org/1999/02/22-rdf-syntax-ns#"
   xmlns:svg="http://www.w3.org/2000/svg"
   xmlns="http://www.w3.org/2000/svg"
   xmlns:sodipodi="http://sodipodi.sourceforge.net/DTD/sodipodi-0.dtd"
   xmlns:inkscape="http://www.inkscape.org/namespaces/inkscape"
   version="1.1"
   id="Capa_1"
   x="0px"
   y="0px"
   viewBox="0 0 400 400"
   xml:space="preserve"
   inkscape:version="0.91 r13725"
   sodipodi:docname="pumpkin.svg"
   width="400"
   height="400"><metadata
     id="metadata11235"><rdf:RDF><cc:Work
         rdf:about=""><dc:format>image/svg+xml</dc:format><dc:type
           rdf:resource="http://purl.org/dc/dcmitype/StillImage" /><dc:title></dc:title></cc:Work></rdf:RDF></metadata><defs
     id="defs11233" /><sodipodi:namedview
     pagecolor="#ffffff"
     bordercolor="#666666"
     borderopacity="1"
     objecttolerance="10"
     gridtolerance="10"
     guidetolerance="10"
     inkscape:pageopacity="0"
     inkscape:pageshadow="2"
     inkscape:window-width="1280"
     inkscape:window-height="666"
     id="namedview11231"
     showgrid="false"
     inkscape:zoom="0.73668735"
     inkscape:cx="160.1765"
     inkscape:cy="160.1765"
     inkscape:window-x="-8"
     inkscape:window-y="-8"
     inkscape:window-maximized="1"
     inkscape:current-layer="layer24" /><g
     id="g11201"
     transform="translate(0,79.647003)" /><g
     id="g11203"
     transform="translate(0,79.647003)" /><g
     id="g11205"
     transform="translate(0,79.647003)" /><g
     id="g11207"
     transform="translate(0,79.647003)" /><g
     id="g11209"
     transform="translate(0,79.647003)" /><g
     id="g11211"
     transform="translate(0,79.647003)" /><g
     id="g11213"
     transform="translate(0,79.647003)" /><g
     id="g11215"
     transform="translate(0,79.647003)" /><g
     id="g11217"
     transform="translate(0,79.647003)" /><g
     id="g11219"
     transform="translate(0,79.647003)" /><g
     id="g11221"
     transform="translate(0,79.647003)" /><g
     id="g11223"
     transform="translate(0,79.647003)" /><g
     id="g11225"
     transform="translate(0,79.647003)" /><g
     id="g11227"
     transform="translate(0,79.647003)" /><g
     id="g11229"
     transform="translate(0,79.647003)" /><g
     inkscape:groupmode="layer"
     id="layer24"
     inkscape:label="Bg"><rect
       style="fill:#ffffff;fill-opacity:1;stroke:none;stroke-width:5.00600004;stroke-linecap:butt;stroke-linejoin:miter;stroke-miterlimit:4;stroke-dasharray:none;stroke-opacity:1"
       id="rect13431"
       width="400"
       height="400"
       x="0"
       y="0" /></g><g
     inkscape:groupmode="layer"
     id="layer25"
     inkscape:label="Fruit"><g
       style=""
       id="g11083"
       transform="matrix(1.2505315,0,0,1.0613292,-0.30638021,30)"><path
         style="fill:#84bd93"
         d="m 158.038,47.492 0,33.068 c 0,0 6,-0.307 9,0 l 0,-29.889 c 0,-2.783 -0.991,-15.923 8.129,-21.857 3.756,-2.444 6.871,-3.171 12.871,-2.188 l 0,-4.045 c 0,-0.26 -3.069,-0.406 -4.563,-0.406 -13.961,0 -25.437,11.358 -25.437,25.317 z"
         id="path11085"
         inkscape:connector-curvature="0" /><g
         id="g11087"><path
           style="fill:#ef8829"
           d="m 213.173,200.224 c 0,-19.581 -2.865,-38.118 -7.791,-54.014 4.926,15.897 7.791,34.433 7.791,54.014 l 0,0 z"
           id="path11089"
           inkscape:connector-curvature="0" /><path
           style="fill:#ef8829"
           d="m 193.682,119.481 c 3.283,5.404 6.247,11.564 8.814,18.33 -2.567,-6.766 -5.531,-12.925 -8.814,-18.33 z"
           id="path11091"
           inkscape:connector-curvature="0" /><path
           style="fill:#ef8829"
           d="m 115.078,146.21 c 0.896,-2.89 1.859,-5.693 2.886,-8.399 -1.027,2.706 -1.99,5.509 -2.886,8.399 z"
           id="path11093"
           inkscape:connector-curvature="0" /><path
           style="fill:#ef8829"
           d="m 202.496,137.811 c 1.027,2.706 1.991,5.509 2.887,8.399 -0.896,-2.89 -1.86,-5.693 -2.887,-8.399 z"
           id="path11095"
           inkscape:connector-curvature="0" /><path
           style="fill:#ef8829"
           d="m 117.964,137.811 c 2.568,-6.766 5.531,-12.925 8.814,-18.33 -3.283,5.405 -6.246,11.564 -8.814,18.33 z"
           id="path11097"
           inkscape:connector-curvature="0" /><path
           style="fill:#ef8829"
           d="m 115.078,146.21 c -4.926,15.897 -7.791,34.433 -7.791,54.014 l 0,0 c 0,-19.581 2.865,-38.117 7.791,-54.014 z"
           id="path11099"
           inkscape:connector-curvature="0" /><path
           style="fill:#ef8829"
           d="m 212.918,210.18 c 0.164,-3.284 0.255,-6.602 0.255,-9.955 0,3.353 -0.09,6.672 -0.255,9.955 z"
           id="path11101"
           inkscape:connector-curvature="0" /><path
           style="fill:#ef8829"
           d="m 160.23,115.403 c -26.974,0 -50.012,42.517 -52.682,94.928 2.658,52.433 25.699,94.98 52.682,94.98 26.983,0 50.023,-42.546 52.682,-94.978 -2.669,-52.411 -25.707,-94.93 -52.682,-94.93 z"
           id="path11103"
           inkscape:connector-curvature="0" /><path
           style="fill:#ef8829"
           d="m 107.542,210.169 c -0.164,-3.28 -0.255,-6.595 -0.255,-9.944 0,3.349 0.091,6.664 0.255,9.944 z"
           id="path11105"
           inkscape:connector-curvature="0" /></g><g
         id="g11107"><path
           style="fill:#ef8829"
           d="m 17.245,217.149 c -0.396,-2.437 -0.717,-4.91 -0.994,-7.402 0.276,2.492 0.599,4.964 0.994,7.402 z"
           id="path11109"
           inkscape:connector-curvature="0" /><path
           style="fill:#ef8829"
           d="m 16.122,208.577 c -0.248,-2.396 -0.441,-4.815 -0.578,-7.254 0.137,2.44 0.331,4.857 0.578,7.254 z"
           id="path11111"
           inkscape:connector-curvature="0" /><path
           style="fill:#ef8829"
           d="m 18.708,224.807 c -0.547,-2.497 -1.035,-5.029 -1.453,-7.598 0.418,2.569 0.907,5.1 1.453,7.598 z"
           id="path11113"
           inkscape:connector-curvature="0" /><path
           style="fill:#ef8829"
           d="m 15.487,200.085 c -0.121,-2.525 -0.2,-5.065 -0.2,-7.626 -0.001,2.561 0.079,5.101 0.2,7.626 z"
           id="path11115"
           inkscape:connector-curvature="0" /><path
           style="fill:#ef8829"
           d="m 35.533,197.711 c 0,-30.714 7.358,-59.702 20.716,-81.647 -6.227,4.546 -12.019,10.851 -17.116,18.802 -11.927,18.606 -18.496,43.491 -18.496,70.076 0,17.391 2.828,34.042 8.112,48.697 1.558,3.093 3.226,6.073 5.034,8.893 7.897,12.319 17.451,20.735 27.73,24.674 -1.796,-2.431 -3.531,-5.004 -5.193,-7.726 C 42.915,257.521 35.533,228.482 35.533,197.711 Z"
           id="path11117"
           inkscape:connector-curvature="0" /><path
           style="fill:#ef8829"
           d="m 20.602,232.399 c -0.67,-2.389 -1.283,-4.817 -1.829,-7.286 0.545,2.47 1.16,4.897 1.829,7.286 z"
           id="path11119"
           inkscape:connector-curvature="0" /><path
           style="fill:#ef8829"
           d="m 28.745,253.633 c -3.235,-6.426 -5.918,-13.407 -8.019,-20.794 2.099,7.391 4.783,14.368 8.019,20.794 z"
           id="path11121"
           inkscape:connector-curvature="0" /></g><g
         id="g11123"><path
           style="fill:#ef8829"
           d="m 50.842,207.257 c 0.142,2.625 0.349,5.224 0.607,7.802 -0.257,-2.577 -0.465,-5.177 -0.607,-7.802 z"
           id="path11125"
           inkscape:connector-curvature="0" /><path
           style="fill:#ef8829"
           d="m 51.6,216.489 c 0.28,2.576 0.611,5.128 1.006,7.648 -0.395,-2.519 -0.726,-5.072 -1.006,-7.648 z"
           id="path11127"
           inkscape:connector-curvature="0" /><path
           style="fill:#ef8829"
           d="m 56.623,152.945 c 0.88,-3.063 1.852,-6.055 2.915,-8.967 -1.063,2.912 -2.035,5.905 -2.915,8.967 z"
           id="path11129"
           inkscape:connector-curvature="0" /><path
           style="fill:#ef8829"
           d="m 55.372,157.591 c -3.148,12.523 -4.798,26.098 -4.798,40.12 l 0,0 c 0,-14.021 1.65,-27.597 4.798,-40.12 z"
           id="path11131"
           inkscape:connector-curvature="0" /><path
           style="fill:#ef8829"
           d="m 52.785,225.209 c 0.864,5.281 1.978,10.421 3.331,15.388 -1.354,-4.966 -2.467,-10.107 -3.331,-15.388 z"
           id="path11133"
           inkscape:connector-curvature="0" /><path
           style="fill:#ef8829"
           d="m 119.532,103.44 c 0.251,-0.327 0.492,-0.677 0.745,-0.998 -0.254,0.322 -0.495,0.67 -0.745,0.998 z"
           id="path11135"
           inkscape:connector-curvature="0" /><path
           style="fill:#ef8829"
           d="m 61.489,256.43 c -0.903,-2.181 -1.746,-4.419 -2.542,-6.697 0.796,2.279 1.639,4.516 2.542,6.697 z"
           id="path11137"
           inkscape:connector-curvature="0" /><path
           style="fill:#ef8829"
           d="m 50.574,197.712 c 0,2.8 0.084,5.576 0.214,8.336 -0.13,-2.759 -0.214,-5.535 -0.214,-8.336 z"
           id="path11139"
           inkscape:connector-curvature="0" /><path
           style="fill:#ef8829"
           d="m 58.55,248.58 c -0.773,-2.28 -1.497,-4.602 -2.161,-6.969 0.664,2.367 1.388,4.688 2.161,6.969 z"
           id="path11141"
           inkscape:connector-curvature="0" /><path
           style="fill:#ef8829"
           d="m 116.677,107.35 c -0.07,0.102 -0.145,0.192 -0.214,0.294 -0.284,-0.008 -0.566,-0.022 -0.85,-0.022 -15.23,0 -29.829,10.173 -41.105,28.643 -11.983,19.63 -18.583,45.886 -18.583,73.93 0,19.258 3.113,37.674 8.945,53.678 -1.075,-2.154 -2.081,-4.383 -3.041,-6.656 2.158,5.109 4.597,9.946 7.33,14.424 11.276,18.473 25.875,28.645 41.106,28.645 3.532,0 7.037,-0.566 10.491,-1.659 -17.363,-21.553 -28.508,-57.255 -28.508,-98.404 -0.002,-37.82 9.425,-71.012 24.429,-92.873 z"
           id="path11143"
           inkscape:connector-curvature="0" /></g><g
         id="g11145"><path
           style="fill:#ef8829"
           d="m 267.748,224.137 c 0.395,-2.519 0.726,-5.072 1.006,-7.648 -0.28,2.576 -0.611,5.129 -1.006,7.648 z"
           id="path11147"
           inkscape:connector-curvature="0" /><path
           style="fill:#ef8829"
           d="m 266.104,233.022 c 0.555,-2.563 1.033,-5.175 1.464,-7.813 -0.431,2.638 -0.908,5.25 -1.464,7.813 z"
           id="path11149"
           inkscape:connector-curvature="0" /><path
           style="fill:#ef8829"
           d="m 266.104,233.025 c -0.556,2.567 -1.188,5.084 -1.865,7.568 0.677,-2.484 1.309,-5.001 1.865,-7.568 z"
           id="path11151"
           inkscape:connector-curvature="0" /><path
           style="fill:#ef8829"
           d="m 269.779,197.711 c 0,-14.022 -1.65,-27.597 -4.798,-40.12 3.148,12.523 4.798,26.099 4.798,40.12 l 0,0 z"
           id="path11153"
           inkscape:connector-curvature="0" /><path
           style="fill:#ef8829"
           d="m 268.904,215.059 c 0.258,-2.578 0.466,-5.177 0.608,-7.802 -0.143,2.625 -0.35,5.225 -0.608,7.802 z"
           id="path11155"
           inkscape:connector-curvature="0" /><path
           style="fill:#ef8829"
           d="m 269.565,206.049 c 0.131,-2.76 0.215,-5.536 0.215,-8.336 -10e-4,2.8 -0.085,5.576 -0.215,8.336 z"
           id="path11157"
           inkscape:connector-curvature="0" /><path
           style="fill:#ef8829"
           d="m 261.804,248.58 c 0.773,-2.28 1.496,-4.6 2.16,-6.966 -0.664,2.366 -1.388,4.686 -2.16,6.966 z"
           id="path11159"
           inkscape:connector-curvature="0" /><path
           style="fill:#ef8829"
           d="m 260.816,143.978 c 1.063,2.912 2.035,5.904 2.915,8.967 -0.88,-3.062 -1.853,-6.055 -2.915,-8.967 z"
           id="path11161"
           inkscape:connector-curvature="0" /><path
           style="fill:#ef8829"
           d="m 255.486,263.871 c 1.074,-2.152 2.078,-4.378 3.037,-6.648 -0.959,2.271 -1.963,4.497 -3.037,6.648 z"
           id="path11163"
           inkscape:connector-curvature="0" /><path
           style="fill:#ef8829"
           d="m 258.866,256.426 c 0.903,-2.18 1.745,-4.416 2.541,-6.693 -0.796,2.277 -1.639,4.514 -2.541,6.693 z"
           id="path11165"
           inkscape:connector-curvature="0" /><path
           style="fill:#ef8829"
           d="m 264.43,210.196 c 0,-28.044 -6.6,-54.3 -18.583,-73.93 -11.276,-18.471 -25.875,-28.643 -41.106,-28.643 -0.256,0 -0.511,0.012 -0.768,0.02 14.892,21.864 24.242,54.924 24.242,92.583 0,41.164 -11.154,76.876 -28.527,98.428 3.425,1.073 6.901,1.635 10.402,1.635 15.231,0 29.829,-10.172 41.106,-28.645 1.518,-2.486 2.947,-5.08 4.29,-7.769 5.831,-16.006 8.944,-34.421 8.944,-53.679 z"
           id="path11167"
           inkscape:connector-curvature="0" /><path
           style="fill:#ef8829"
           d="m 210.09,95.138 0,0 c -4.648,0 -9.235,0.944 -13.714,2.81 0.003,0.003 0.006,0.007 0.009,0.01 4.477,-1.866 9.06,-2.82 13.705,-2.82 z"
           id="path11169"
           inkscape:connector-curvature="0" /></g><g
         id="g11171"><path
           style="fill:#ef8829"
           d="m 140.038,85.323 0,-3.66 c -6,-1.069 -9.093,-1.649 -13.949,-1.649 -2.99,0 -5.787,0.246 -8.321,0.652 -0.073,-0.011 -0.164,-0.014 -0.237,-0.025 6.513,0.961 12.91,3.21 18.996,6.746 1.135,-0.727 3.511,-1.397 3.511,-2.019 0,-0.015 0,-0.029 0,-0.045 z"
           id="path11173"
           inkscape:connector-curvature="0" /><path
           style="fill:#ef8829"
           d="m 114.635,80.312 c -0.246,-0.022 -0.491,-0.057 -0.737,-0.076 0.247,0.018 0.491,0.054 0.737,0.076 z"
           id="path11175"
           inkscape:connector-curvature="0" /></g><g
         id="g11177"><path
           style="fill:#ef8829"
           d="m 201.712,74.162 c -0.2,-0.007 -0.385,-0.025 -0.587,-0.03 -0.066,-0.002 -0.129,0.007 -0.195,0.006 0.267,10e-4 0.518,0.019 0.782,0.024 z"
           id="path11179"
           inkscape:connector-curvature="0" /><path
           style="fill:#ef8829"
           d="m 195.607,80.014 c -4.847,0 -12.08,0.493 -14.714,1.559 l -0.288,3.292 c 0,0.169 0.339,1.109 0.329,1.276 0.863,0.484 2.348,0.674 3.195,1.214 6.135,-3.555 12.604,-5.809 19.171,-6.749 -2.398,-0.361 -4.894,-0.592 -7.693,-0.592 z"
           id="path11181"
           inkscape:connector-curvature="0" /></g><g
         id="g11183"><path
           style="fill:#ef8829"
           d="m 291.603,253.642 c 5.285,-14.655 8.113,-31.307 8.113,-48.699 0,-26.585 -6.569,-51.47 -18.496,-70.076 -5.096,-7.95 -10.888,-14.254 -17.114,-18.801 13.358,21.944 20.715,50.931 20.715,81.645 0,30.771 -7.383,59.809 -20.787,81.769 -1.665,2.728 -3.403,5.306 -5.203,7.74 10.281,-3.943 19.84,-12.362 27.74,-24.687 5.567,-8.684 9.95,-18.75 13.059,-29.705 -2.103,7.394 -4.788,14.383 -8.027,20.814 z"
           id="path11185"
           inkscape:connector-curvature="0" /><path
           style="fill:#ef8829"
           d="m 304.866,200.085 c 0.121,-2.526 0.201,-5.065 0.201,-7.626 -0.001,2.561 -0.08,5.101 -0.201,7.626 z"
           id="path11187"
           inkscape:connector-curvature="0" /><path
           style="fill:#ef8829"
           d="m 286.57,122.383 c 10.437,16.28 16.77,37.368 18.191,60.196 -1.42,-22.828 -7.754,-43.917 -18.19,-60.196 -10.846,-16.92 -24.816,-26.491 -39.498,-27.179 l 0,0 c 14.683,0.688 28.652,10.261 39.497,27.179 z"
           id="path11189"
           inkscape:connector-curvature="0" /><path
           style="fill:#ef8829"
           d="m 304.808,201.323 c -0.136,2.439 -0.33,4.858 -0.578,7.255 0.247,-2.397 0.442,-4.815 0.578,-7.255 z"
           id="path11191"
           inkscape:connector-curvature="0" /><path
           style="fill:#ef8829"
           d="m 299.748,232.411 c 0.671,-2.395 1.287,-4.828 1.834,-7.304 -0.548,2.475 -1.162,4.909 -1.834,7.304 z"
           id="path11193"
           inkscape:connector-curvature="0" /><path
           style="fill:#ef8829"
           d="m 303.107,217.15 c 0.395,-2.438 0.718,-4.911 0.995,-7.405 -0.277,2.493 -0.599,4.968 -0.995,7.405 z"
           id="path11195"
           inkscape:connector-curvature="0" /><path
           style="fill:#ef8829"
           d="m 301.642,224.822 c 0.547,-2.504 1.038,-5.042 1.456,-7.618 -0.419,2.575 -0.908,5.114 -1.456,7.618 z"
           id="path11197"
           inkscape:connector-curvature="0" /></g><path
         style="fill:#3f2d20"
         d="M 299.234,114.265 C 285.373,92.645 266.697,80.563 246.535,80.118 240.232,67.521 222.091,59.091 201.125,59.091 c -6.863,0 -13.578,0.925 -19.704,2.66 l 0,-11.36 c 0,-0.194 -0.011,-0.427 -0.026,-0.619 -0.263,-3.406 0.628,-7.621 1.765,-8.353 0.493,-0.321 3.21,-0.509 8.995,2.683 2.33,1.285 5.165,1.246 7.456,-0.11 2.291,-1.351 3.698,-3.815 3.698,-6.475 l 0,-26.095 c 0,-2.768 -1.52,-5.31 -3.956,-6.622 C 193.518,1.659 186.913,0 180.255,0 158.001,0 139.896,18.105 139.896,40.358 l 0,21.303 c -6.031,-1.671 -12.619,-2.57 -19.341,-2.57 -21.02,0 -39.101,8.508 -45.403,21.009 -0.06,0 -0.118,-0.004 -0.177,-0.004 -20.605,0 -39.731,12.135 -53.856,34.168 -13.461,20.998 -20.874,48.768 -20.874,78.195 0,29.425 7.413,57.195 20.875,78.192 14.125,22.035 33.252,34.171 53.856,34.171 1.275,0 2.559,-0.053 3.841,-0.149 9.681,6.98 20.345,10.656 31.447,10.656 7.583,0 15.003,-1.727 22.125,-5.139 8.458,6.543 17.867,10.163 27.842,10.163 9.96,0 19.354,-3.608 27.801,-10.131 7.102,3.392 14.499,5.108 22.058,5.108 11.102,0 21.766,-3.676 31.447,-10.656 1.284,0.096 2.568,0.149 3.843,0.149 20.604,0 39.73,-12.135 53.855,-34.171 13.461,-20.997 20.874,-48.767 20.874,-78.192 -10e-4,-29.428 -7.414,-57.198 -20.875,-78.195 z M 110.263,300.287 c -15.23,0 -29.829,-10.172 -41.105,-28.645 -11.983,-19.63 -18.583,-45.886 -18.583,-73.931 0,-28.044 6.6,-54.3 18.583,-73.93 11.276,-18.471 25.875,-28.643 41.105,-28.643 4.672,0 9.283,0.962 13.785,2.85 -19.235,20.993 -31.802,58.54 -31.802,102.237 0,41.149 11.145,76.851 28.508,98.404 -3.454,1.092 -6.959,1.658 -10.491,1.658 z M 73.28,95.204 c -6.193,5.509 -11.902,12.452 -16.961,20.739 -13.404,21.959 -20.787,50.998 -20.787,81.768 0,30.771 7.383,59.81 20.787,81.769 1.662,2.722 3.397,5.296 5.193,7.726 -10.279,-3.939 -19.833,-12.355 -27.73,-24.674 -11.927,-18.606 -18.496,-43.491 -18.496,-70.074 0,-26.585 6.569,-51.47 18.496,-70.076 10.846,-16.917 24.815,-26.49 39.498,-27.178 z m 66.618,-9.836 c -1.163,0.623 -2.315,1.293 -3.45,2.019 -8.324,-4.836 -17.11,-7.292 -26.185,-7.292 -5.99,0 -11.852,1.075 -17.502,3.157 -0.343,-0.123 9.593,-9.121 27.794,-9.121 6.994,0 13.689,1.179 19.341,3.333 l 0,7.858 c 0,0.017 0.002,0.031 0.002,0.046 z m -32.611,114.856 c 0,-56.964 24.244,-105.087 52.943,-105.087 28.698,0 52.943,48.123 52.943,105.087 0,56.962 -24.245,105.087 -52.943,105.087 -28.698,0 -52.943,-48.125 -52.943,-105.087 z m 47.65,-159.866 c 0,-13.958 11.357,-25.316 25.318,-25.316 2.729,0 5.442,0.443 8.012,1.298 l 0,10.286 c -5.103,-0.983 -9.56,-0.257 -13.315,2.188 -9.12,5.934 -8.76,19.074 -8.574,21.857 l 0,29.889 c -2.023,-0.308 -4.074,-0.464 -6.149,-0.464 -1.784,0 -3.548,0.121 -5.293,0.35 l 0,-40.088 z m 72.656,42.895 c -5.65,-2.082 -11.513,-3.157 -17.503,-3.157 -9.055,0 -17.82,2.444 -26.127,7.258 -0.847,-0.541 -1.704,-1.05 -2.567,-1.534 0.01,-0.166 0.024,-0.329 0.024,-0.497 l 0,-7.719 c 5.724,-2.242 12.549,-3.633 19.704,-3.472 18.056,0.402 27.117,8.886 26.469,9.121 z m 0.622,116.971 c 0,-43.724 -12.585,-81.291 -31.839,-102.276 4.479,-1.866 9.066,-2.81 13.714,-2.81 15.231,0 29.83,10.173 41.106,28.643 11.983,19.63 18.583,45.886 18.583,73.93 0,28.044 -6.6,54.3 -18.583,73.931 -11.277,18.473 -25.875,28.645 -41.106,28.645 -3.501,0 -6.976,-0.562 -10.402,-1.635 17.373,-21.551 28.527,-57.263 28.527,-98.428 z m 35.819,79.256 c 13.404,-21.959 20.787,-50.998 20.787,-81.769 0,-30.77 -7.383,-59.809 -20.787,-81.768 -5.059,-8.286 -10.768,-15.23 -16.961,-20.739 14.682,0.688 28.651,10.259 39.498,27.178 11.926,18.604 18.495,43.491 18.495,70.076 0,26.583 -6.569,51.47 -18.495,70.074 -7.9,12.325 -17.458,20.745 -27.74,24.687 1.8,-2.433 3.538,-5.011 5.203,-7.739 z"
         id="path11199"
         inkscape:connector-curvature="0" /></g></g></svg>