<?xml version="1.0" encoding="UTF-8" standalone="no"?>
<!-- Generator: Adobe Illustrator 18.0.0, SVG Export Plug-In . SVG Version: 6.00 Build 0)  -->

<svg
   xmlns:dc="http://purl.org/dc/elements/1.1/"
   xmlns:cc="http://creativecommons.org/ns#"
   xmlns:rdf="http://www.w3.org/1999/02/22-rdf-syntax-ns#"
   xmlns:svg="http://www.w3.org/2000/svg"
   xmlns="http://www.w3.org/2000/svg"
   xmlns:sodipodi="http://sodipodi.sourceforge.net/DTD/sodipodi-0.dtd"
   xmlns:inkscape="http://www.inkscape.org/namespaces/inkscape"
   version="1.1"
   id="Capa_1"
   x="0px"
   y="0px"
   viewBox="0 0 399.99999 399.99999"
   xml:space="preserve"
   inkscape:version="0.91 r13725"
   sodipodi:docname="turnip.svg"
   width="400"
   height="400"><metadata
     id="metadata11952"><rdf:RDF><cc:Work
         rdf:about=""><dc:format>image/svg+xml</dc:format><dc:type
           rdf:resource="http://purl.org/dc/dcmitype/StillImage" /><dc:title></dc:title></cc:Work></rdf:RDF></metadata><defs
     id="defs11950" /><sodipodi:namedview
     pagecolor="#ffffff"
     bordercolor="#666666"
     borderopacity="1"
     objecttolerance="10"
     gridtolerance="10"
     guidetolerance="10"
     inkscape:pageopacity="0"
     inkscape:pageshadow="2"
     inkscape:window-width="1280"
     inkscape:window-height="666"
     id="namedview11948"
     showgrid="false"
     inkscape:zoom="0.6407924"
     inkscape:cx="184.147"
     inkscape:cy="184.147"
     inkscape:window-x="-8"
     inkscape:window-y="-8"
     inkscape:window-maximized="1"
     inkscape:current-layer="layer22" /><g
     id="g11918"
     transform="translate(0,31.705994)" /><g
     id="g11920"
     transform="translate(0,31.705994)" /><g
     id="g11922"
     transform="translate(0,31.705994)" /><g
     id="g11924"
     transform="translate(0,31.705994)" /><g
     id="g11926"
     transform="translate(0,31.705994)" /><g
     id="g11928"
     transform="translate(0,31.705994)" /><g
     id="g11930"
     transform="translate(0,31.705994)" /><g
     id="g11932"
     transform="translate(0,31.705994)" /><g
     id="g11934"
     transform="translate(0,31.705994)" /><g
     id="g11936"
     transform="translate(0,31.705994)" /><g
     id="g11938"
     transform="translate(0,31.705994)" /><g
     id="g11940"
     transform="translate(0,31.705994)" /><g
     id="g11942"
     transform="translate(0,31.705994)" /><g
     id="g11944"
     transform="translate(0,31.705994)" /><g
     id="g11946"
     transform="translate(0,31.705994)" /><g
     inkscape:groupmode="layer"
     id="layer22"
     inkscape:label="Bg"><rect
       style="fill:#ffffff;fill-opacity:1;stroke:none;stroke-width:5.00600004;stroke-linecap:butt;stroke-linejoin:miter;stroke-miterlimit:4;stroke-dasharray:none;stroke-opacity:1"
       id="rect13367"
       width="400"
       height="400"
       x="0"
       y="0" /></g><g
     inkscape:groupmode="layer"
     id="layer23"
     inkscape:label="Fruit"><g
       style=""
       id="g11778"
       transform="matrix(1.1079538,0,0,1.0860888,-4.0272917,0)"><g
         id="g11780"><path
           style="fill:#84bd93"
           d="m 97.625,44.814 c -0.201,-0.152 -0.396,-0.31 -0.59,-0.471 0.194,0.162 0.388,0.319 0.59,0.471 z"
           id="path11782"
           inkscape:connector-curvature="0" /><path
           style="fill:#84bd93"
           d="m 100.166,46.399 c -0.278,-0.142 -0.553,-0.29 -0.823,-0.447 0.27,0.157 0.544,0.304 0.823,0.447 z"
           id="path11784"
           inkscape:connector-curvature="0" /><path
           style="fill:#84bd93"
           d="m 112.458,84.253 c 0.154,0.181 0.315,0.352 0.477,0.526 -0.161,-0.173 -0.323,-0.346 -0.477,-0.526 z"
           id="path11786"
           inkscape:connector-curvature="0" /><path
           style="fill:#84bd93"
           d="m 114.706,59.755 c -0.061,0.097 -0.122,0.195 -0.187,0.289 0.065,-0.094 0.126,-0.191 0.187,-0.289 z"
           id="path11788"
           inkscape:connector-curvature="0" /><path
           style="fill:#84bd93"
           d="m 115.765,56.901 c -0.004,0.027 -0.006,0.055 -0.011,0.082 0.005,-0.027 0.007,-0.054 0.011,-0.082 z"
           id="path11790"
           inkscape:connector-curvature="0" /><path
           style="fill:#84bd93"
           d="m 114.396,86.178 c 0.134,0.114 0.258,0.238 0.395,0.348 -0.138,-0.11 -0.261,-0.235 -0.395,-0.348 z"
           id="path11792"
           inkscape:connector-curvature="0" /><path
           style="fill:#84bd93"
           d="m 115.356,58.482 c -0.006,0.015 -0.014,0.03 -0.02,0.045 0.006,-0.015 0.014,-0.029 0.02,-0.045 z"
           id="path11794"
           inkscape:connector-curvature="0" /><path
           style="fill:#84bd93"
           d="m 137.843,31.283 c 0.485,0.427 0.963,0.871 1.441,1.313 -0.478,-0.442 -0.956,-0.886 -1.441,-1.313 z"
           id="path11796"
           inkscape:connector-curvature="0" /><path
           style="fill:#84bd93"
           d="m 93.544,40.435 c -0.045,-0.069 -0.086,-0.14 -0.129,-0.21 0.044,0.07 0.084,0.14 0.129,0.21 z"
           id="path11798"
           inkscape:connector-curvature="0" /><path
           style="fill:#84bd93"
           d="m 134.423,28.427 c 0.412,0.324 0.815,0.67 1.223,1.004 -0.408,-0.334 -0.811,-0.68 -1.223,-1.004 z"
           id="path11800"
           inkscape:connector-curvature="0" /><path
           style="fill:#84bd93"
           d="m 94.989,42.338 c 0.177,0.206 0.359,0.404 0.546,0.602 -0.187,-0.196 -0.369,-0.397 -0.546,-0.602 z"
           id="path11802"
           inkscape:connector-curvature="0" /><path
           style="fill:#84bd93"
           d="M 92.299,38.067 C 92.208,37.86 92.122,37.65 92.04,37.438 c 0.082,0.213 0.168,0.421 0.259,0.629 z"
           id="path11804"
           inkscape:connector-curvature="0" /><path
           style="fill:#84bd93"
           d="m 142.65,35.875 c -0.492,-0.507 -0.987,-1.005 -1.487,-1.495 0.5,0.49 0.995,0.988 1.487,1.495 z"
           id="path11806"
           inkscape:connector-curvature="0" /><path
           style="fill:#84bd93"
           d="m 146.765,116.806 c 0.154,0.181 0.315,0.352 0.476,0.526 -0.161,-0.174 -0.322,-0.347 -0.476,-0.526 z"
           id="path11808"
           inkscape:connector-curvature="0" /><path
           style="fill:#84bd93"
           d="m 145.143,114.566 c 0.051,0.085 0.092,0.176 0.144,0.26 -0.052,-0.084 -0.093,-0.176 -0.144,-0.26 z"
           id="path11810"
           inkscape:connector-curvature="0" /><path
           style="fill:#84bd93"
           d="m 149.097,119.078 c -0.137,-0.109 -0.261,-0.234 -0.395,-0.347 0.135,0.113 0.258,0.237 0.395,0.347 z"
           id="path11812"
           inkscape:connector-curvature="0" /><path
           style="fill:#84bd93"
           d="m 143.851,111.912 c 0.082,0.212 0.168,0.419 0.258,0.627 -0.09,-0.206 -0.176,-0.415 -0.258,-0.627 z"
           id="path11814"
           inkscape:connector-curvature="0" /><path
           style="fill:#84bd93"
           d="m 151.732,120.783 c -0.218,-0.116 -0.438,-0.228 -0.65,-0.353 0.212,0.126 0.431,0.236 0.65,0.353 z"
           id="path11816"
           inkscape:connector-curvature="0" /><path
           style="fill:#84bd93"
           d="m 176.163,102.619 c -7.147,-28.385 -18.406,-50.87 -32.919,-66.111 -1.555,-1.272 -3.135,-2.483 -4.751,-3.604 -13.2,-9.152 -24.588,-10.526 -27.496,-10.731 -8.617,2.304 -14.023,11.019 -12.136,19.839 0.35,1.634 0.953,3.164 1.735,4.577 2.319,1.105 4.881,1.739 7.563,1.667 3.125,-0.055 5.927,1.754 7.126,4.613 0.338,0.806 0.511,1.647 0.557,2.488 3.093,-0.023 5.858,1.774 7.047,4.609 1.198,2.858 0.518,6.159 -1.711,8.314 -4.231,4.088 -6.022,9.953 -4.795,15.69 0.35,1.636 0.953,3.166 1.735,4.579 2.195,1.044 4.607,1.676 7.144,1.676 1.186,0 2.383,-0.127 3.557,-0.379 1.955,-0.417 3.793,-1.163 5.467,-2.219 1.233,-0.777 2.624,-1.158 4.007,-1.158 1.878,0 3.562,0.702 4.998,2.065 1.431,1.358 2.129,3.175 2.129,5.042 0,0 0,-0.002 0,-0.002 0,-0.001 0.257,-0.008 0.296,-0.008 1.878,0 3.832,0.702 5.268,2.065 2.495,2.367 3.111,6.124 1.433,9.126 -2.003,3.58 -2.61,7.758 -1.752,11.763 0.35,1.637 0.965,3.168 1.747,4.582 2.196,1.044 4.613,1.676 7.15,1.676 1.186,0 2.386,-0.127 3.561,-0.379 4.567,-0.977 8.601,-3.807 11.064,-7.765 2.296,-3.685 2.998,-7.952 1.976,-12.015 z"
           id="path11818"
           inkscape:connector-curvature="0" /><path
           style="fill:#84bd93"
           d="m 145.771,94.558 c -0.004,0.052 -0.01,0.105 -0.015,0.157 0.005,-0.052 0.012,-0.105 0.015,-0.157 z"
           id="path11820"
           inkscape:connector-curvature="0" /><path
           style="fill:#84bd93"
           d="m 110.98,82.273 c -0.052,-0.083 -0.093,-0.174 -0.144,-0.258 0.052,0.084 0.092,0.175 0.144,0.258 z"
           id="path11822"
           inkscape:connector-curvature="0" /><path
           style="fill:#84bd93"
           d="m 117.426,88.23 c -0.218,-0.116 -0.439,-0.228 -0.651,-0.353 0.213,0.126 0.432,0.237 0.651,0.353 z"
           id="path11824"
           inkscape:connector-curvature="0" /><path
           style="fill:#84bd93"
           d="m 145.338,96.607 c -0.133,0.358 -0.286,0.712 -0.477,1.054 0.19,-0.343 0.346,-0.695 0.477,-1.054 z"
           id="path11826"
           inkscape:connector-curvature="0" /><path
           style="fill:#84bd93"
           d="m 109.803,79.989 c -0.09,-0.208 -0.177,-0.417 -0.259,-0.629 0.082,0.213 0.169,0.421 0.259,0.629 z"
           id="path11828"
           inkscape:connector-curvature="0" /><path
           style="fill:#84bd93"
           d="m 145.631,95.568 c -0.031,0.143 -0.073,0.283 -0.112,0.424 0.038,-0.141 0.083,-0.281 0.112,-0.424 z"
           id="path11830"
           inkscape:connector-curvature="0" /></g><g
         id="g11832"><path
           style="fill:#84bd93"
           d="m 227.195,34.313 c -0.546,0.534 -1.086,1.078 -1.623,1.632 0.536,-0.554 1.078,-1.098 1.623,-1.632 z"
           id="path11834"
           inkscape:connector-curvature="0" /><path
           style="fill:#84bd93"
           d="m 228.905,32.688 c 0.529,-0.491 1.059,-0.981 1.595,-1.453 -0.536,0.471 -1.065,0.962 -1.595,1.453 z"
           id="path11836"
           inkscape:connector-curvature="0" /><path
           style="fill:#84bd93"
           d="m 237.401,25.563 c 13.193,-9.147 24.577,-10.975 27.491,-10.975 -0.002,0 -0.004,0 -0.007,0 -2.82,0 -14.243,1.793 -27.488,10.975 -0.185,0.128 -0.362,0.274 -0.545,0.404 0.184,-0.131 0.363,-0.276 0.549,-0.404 z"
           id="path11838"
           inkscape:connector-curvature="0" /><path
           style="fill:#84bd93"
           d="m 217.19,120.441 c -0.199,0.117 -0.404,0.221 -0.608,0.33 0.204,-0.11 0.409,-0.213 0.608,-0.33 z"
           id="path11840"
           inkscape:connector-curvature="0" /><path
           style="fill:#84bd93"
           d="m 224.197,112.503 c 0.079,-0.184 0.156,-0.367 0.228,-0.555 -0.073,0.187 -0.15,0.371 -0.228,0.555 z"
           id="path11842"
           inkscape:connector-curvature="0" /><path
           style="fill:#84bd93"
           d="m 219.536,118.776 c -0.111,0.094 -0.214,0.198 -0.328,0.289 0.114,-0.091 0.216,-0.195 0.328,-0.289 z"
           id="path11844"
           inkscape:connector-curvature="0" /><path
           style="fill:#84bd93"
           d="m 221.075,117.303 c 0.145,-0.157 0.29,-0.311 0.429,-0.474 -0.139,0.163 -0.284,0.318 -0.429,0.474 z"
           id="path11846"
           inkscape:connector-curvature="0" /><path
           style="fill:#84bd93"
           d="m 272.869,19.888 c -0.109,-0.117 -0.225,-0.224 -0.336,-0.338 0.111,0.113 0.228,0.222 0.336,0.338 z"
           id="path11848"
           inkscape:connector-curvature="0" /><path
           style="fill:#84bd93"
           d="m 274.82,22.429 c -0.046,-0.073 -0.082,-0.15 -0.129,-0.222 -0.048,-0.075 -0.114,-0.134 -0.163,-0.208 0.096,0.145 0.2,0.283 0.292,0.43 z"
           id="path11850"
           inkscape:connector-curvature="0" /><path
           style="fill:#84bd93"
           d="m 275.825,24.296 c 0.16,0.345 0.321,0.691 0.458,1.047 -0.137,-0.354 -0.297,-0.7 -0.458,-1.047 z"
           id="path11852"
           inkscape:connector-curvature="0" /><path
           style="fill:#84bd93"
           d="m 277.406,31.608 c 0.032,-2.063 -0.331,-4.099 -1.043,-6.031 0.7,1.901 1.071,3.939 1.043,6.031 z"
           id="path11854"
           inkscape:connector-curvature="0" /><path
           style="fill:#84bd93"
           d="m 270.197,17.568 c 0.121,0.085 0.248,0.163 0.367,0.251 -0.12,-0.088 -0.245,-0.166 -0.367,-0.251 z"
           id="path11856"
           inkscape:connector-curvature="0" /><path
           style="fill:#84bd93"
           d="m 275.145,22.989 c 0.164,0.286 0.331,0.571 0.478,0.866 -0.147,-0.294 -0.313,-0.579 -0.478,-0.866 z"
           id="path11858"
           inkscape:connector-curvature="0" /><path
           style="fill:#84bd93"
           d="m 267.63,16.082 c 0.08,0.037 0.164,0.067 0.243,0.105 -0.079,-0.038 -0.162,-0.067 -0.243,-0.105 z"
           id="path11860"
           inkscape:connector-curvature="0" /><path
           style="fill:#84bd93"
           d="m 223.015,114.805 c 0.031,-0.05 0.055,-0.105 0.086,-0.155 -0.031,0.051 -0.055,0.105 -0.086,0.155 z"
           id="path11862"
           inkscape:connector-curvature="0" /><path
           style="fill:#84bd93"
           d="m 232.474,29.572 c 0.479,-0.394 0.952,-0.8 1.437,-1.18 -0.484,0.38 -0.958,0.786 -1.437,1.18 z"
           id="path11864"
           inkscape:connector-curvature="0" /><path
           style="fill:#84bd93"
           d="m 271.536,44.097 c -0.407,0.352 -0.829,0.683 -1.267,0.995 0.439,-0.314 0.86,-0.642 1.267,-0.995 z"
           id="path11866"
           inkscape:connector-curvature="0" /><path
           style="fill:#84bd93"
           d="m 267.996,46.469 c 0.371,-0.185 0.732,-0.38 1.088,-0.591 -0.355,0.21 -0.718,0.406 -1.088,0.591 z"
           id="path11868"
           inkscape:connector-curvature="0" /><path
           style="fill:#84bd93"
           d="m 269.429,42.012 c 1.887,-8.82 -3.519,-17.535 -12.136,-19.839 -2.908,0.205 -14.296,1.579 -27.496,10.731 -1.621,1.123 -3.206,2.338 -4.765,3.614 -14.507,15.242 -25.763,37.723 -32.907,66.103 -1.022,4.061 -0.322,8.328 1.971,12.013 2.463,3.957 6.495,6.787 11.065,7.766 1.174,0.252 2.371,0.379 3.556,0.379 2.539,0 4.952,-0.633 7.149,-1.678 0.781,-1.413 1.384,-2.943 1.734,-4.579 0.858,-4.005 0.228,-8.183 -1.774,-11.763 -1.678,-3.001 -1.107,-6.759 1.388,-9.126 1.436,-1.363 3.3,-2.065 5.178,-2.065 0.037,0 0.075,0.007 0.112,0.007 0.104,-1.866 0.878,-3.681 2.308,-5.038 2.493,-2.369 6.274,-2.743 9.185,-0.909 1.676,1.056 3.515,1.802 5.466,2.218 1.177,0.253 2.374,0.38 3.56,0.38 2.539,0 4.952,-0.632 7.148,-1.678 0.781,-1.413 1.384,-2.942 1.734,-4.577 1.227,-5.736 -0.565,-11.602 -4.795,-15.69 -2.229,-2.155 -2.908,-5.456 -1.711,-8.314 1.188,-2.834 3.952,-4.629 7.043,-4.609 0.046,-0.841 0.219,-1.682 0.557,-2.488 1.198,-2.859 4.011,-4.66 7.126,-4.613 2.687,0.076 5.246,-0.553 7.559,-1.651 0.789,-1.418 1.394,-2.953 1.745,-4.594 z"
           id="path11870"
           inkscape:connector-curvature="0" /><path
           style="fill:#84bd93"
           d="m 257.32,82.256 c 0.034,-0.055 0.061,-0.116 0.095,-0.171 -0.034,0.055 -0.06,0.116 -0.095,0.171 z"
           id="path11872"
           inkscape:connector-curvature="0" /><path
           style="fill:#84bd93"
           d="m 274.668,40.544 c 0.085,-0.13 0.167,-0.26 0.249,-0.393 -0.082,0.133 -0.164,0.263 -0.249,0.393 z"
           id="path11874"
           inkscape:connector-curvature="0" /><path
           style="fill:#84bd93"
           d="m 258.501,79.957 c 0.081,-0.188 0.159,-0.375 0.233,-0.566 -0.074,0.191 -0.152,0.379 -0.233,0.566 z"
           id="path11876"
           inkscape:connector-curvature="0" /><path
           style="fill:#84bd93"
           d="m 275.997,38.055 c 0.085,-0.197 0.167,-0.394 0.245,-0.595 -0.078,0.2 -0.159,0.398 -0.245,0.595 z"
           id="path11878"
           inkscape:connector-curvature="0" /><path
           style="fill:#84bd93"
           d="m 272.681,43.022 c 0.234,-0.244 0.461,-0.491 0.68,-0.75 -0.22,0.257 -0.446,0.507 -0.68,0.75 z"
           id="path11880"
           inkscape:connector-curvature="0" /><path
           style="fill:#84bd93"
           d="m 252.421,56.955 c 0,-0.002 0,-0.003 0,-0.005 0,0.002 0,0.003 0,0.005 z"
           id="path11882"
           inkscape:connector-curvature="0" /><path
           style="fill:#84bd93"
           d="m 223.285,97.348 c -0.118,-0.237 -0.234,-0.474 -0.325,-0.718 0.09,0.244 0.207,0.481 0.325,0.718 z"
           id="path11884"
           inkscape:connector-curvature="0" /><path
           style="fill:#84bd93"
           d="m 253.512,86.515 c 0.119,-0.095 0.225,-0.203 0.342,-0.301 -0.117,0.098 -0.223,0.206 -0.342,0.301 z"
           id="path11886"
           inkscape:connector-curvature="0" /><path
           style="fill:#84bd93"
           d="m 222.736,95.874 c -0.024,-0.091 -0.052,-0.181 -0.072,-0.273 0.02,0.092 0.049,0.181 0.072,0.273 z"
           id="path11888"
           inkscape:connector-curvature="0" /><path
           style="fill:#84bd93"
           d="m 255.378,84.755 c 0.147,-0.16 0.295,-0.316 0.436,-0.481 -0.141,0.164 -0.289,0.322 -0.436,0.481 z"
           id="path11890"
           inkscape:connector-curvature="0" /><path
           style="fill:#84bd93"
           d="m 251.5,87.886 c -0.201,0.118 -0.409,0.224 -0.615,0.334 0.207,-0.111 0.414,-0.215 0.615,-0.334 z"
           id="path11892"
           inkscape:connector-curvature="0" /><path
           style="fill:#84bd93"
           d="m 253.754,60.023 c -0.053,-0.078 -0.103,-0.158 -0.154,-0.238 0.051,0.081 0.1,0.159 0.154,0.238 z"
           id="path11894"
           inkscape:connector-curvature="0" /><path
           style="fill:#84bd93"
           d="m 222.524,94.643 c -0.001,-0.013 -0.003,-0.026 -0.004,-0.038 10e-4,0.012 0.003,0.025 0.004,0.038 z"
           id="path11896"
           inkscape:connector-curvature="0" /></g><g
         id="g11898"><path
           style="fill:#ce593f"
           d="m 189.002,180.038 c -1.606,-0.097 -3.223,-0.163 -4.859,-0.163 1.637,0 3.254,0.066 4.859,0.163 z"
           id="path11900"
           inkscape:connector-curvature="0" /><path
           style="fill:#ce593f"
           d="m 189.944,180.096 c 1.551,0.112 3.087,0.266 4.604,0.466 -1.518,-0.2 -3.053,-0.354 -4.604,-0.466 z"
           id="path11902"
           inkscape:connector-curvature="0" /><path
           style="fill:#ce593f"
           d="m 199.752,181.425 c -1.45,-0.292 -2.922,-0.537 -4.409,-0.748 1.487,0.211 2.96,0.456 4.409,0.748 z"
           id="path11904"
           inkscape:connector-curvature="0" /><path
           style="fill:#ce593f"
           d="m 219.088,188.21 c 1.331,0.695 2.636,1.421 3.898,2.191 -8.654,-3.486 -18.398,-5.688 -28.705,-5.688 -24.364,0 -45.613,10.874 -56.608,26.874 l 15.271,0 c 4.154,0 7.521,3.346 7.521,7.5 0,4.154 -3.367,7.5 -7.521,7.5 l -22.069,0 c -1.126,4 -1.176,9.287 -1.176,10.965 0,4.439 1.827,8.035 3.203,14.035 l 27.494,0 c 4.154,0 7.521,2.346 7.521,6.5 0,4.154 -3.367,6.5 -7.521,6.5 l -27.031,0 6.966,0.015 13.558,22.985 19.96,0 c 4.154,0 7.521,3.846 7.521,8 0,4.154 -3.367,8 -7.521,8 l -10.293,0 20.586,32.504 56.286,-78.451 c 0.025,-0.034 0.054,-0.078 0.079,-0.111 0.022,-0.033 0.04,-0.075 0.063,-0.108 5.335,-7.715 8.154,-16.484 8.154,-25.352 0.002,-18.377 -11.823,-34.557 -29.636,-43.859 z"
           id="path11906"
           inkscape:connector-curvature="0" /><path
           style="fill:#ce593f"
           d="m 209.66,184.13 c -1.416,-0.494 -2.862,-0.942 -4.328,-1.355 1.466,0.413 2.912,0.861 4.328,1.355 z"
           id="path11908"
           inkscape:connector-curvature="0" /><path
           style="fill:#ce593f"
           d="m 214.173,185.881 c -1.345,-0.574 -2.718,-1.109 -4.117,-1.606 1.399,0.498 2.772,1.033 4.117,1.606 z"
           id="path11910"
           inkscape:connector-curvature="0" /><path
           style="fill:#ce593f"
           d="m 204.556,182.562 c -1.478,-0.399 -2.973,-0.767 -4.497,-1.08 1.523,0.314 3.02,0.681 4.497,1.08 z"
           id="path11912"
           inkscape:connector-curvature="0" /><path
           style="fill:#ce593f"
           d="m 218.545,187.929 c -1.319,-0.674 -2.665,-1.315 -4.046,-1.912 1.381,0.596 2.727,1.238 4.046,1.912 z"
           id="path11914"
           inkscape:connector-curvature="0" /></g><path
         style="fill:#3f2d20"
         d="M 287.318,14.032 C 282.683,6.874 275.539,1.951 267.201,0.166 266.708,0.061 265.601,0 265.601,0 263.229,0 211.583,0.966 184.139,77.19 156.694,0.978 105.057,0 102.685,0 c 0,0 -1.106,0.061 -1.599,0.166 -17.212,3.682 -28.218,20.682 -24.536,37.897 2.257,10.544 9.706,19.006 19.287,22.905 -2.493,5.914 -3.162,12.527 -1.766,19.053 3.132,14.63 16.25,25.247 31.192,25.246 0.805,0 1.611,-0.031 2.416,-0.092 -0.056,2.467 0.175,4.949 0.699,7.397 3.132,14.63 16.25,25.248 31.193,25.247 2.242,0 4.498,-0.24 6.704,-0.712 3.692,-0.79 7.186,-2.244 10.348,-4.222 l 0,32.257 c -40.389,3.212 -72.102,31.995 -72.102,66.925 0,11.95 3.749,23.682 10.84,33.929 0.044,0.064 0.096,0.117 0.141,0.179 0.047,0.071 0.087,0.143 0.137,0.212 l 60.984,84.974 0,9.412 c 0,4.154 3.367,7.521 7.521,7.521 4.154,0 7.521,-3.367 7.521,-7.521 l 0,-9.411 60.985,-84.975 c 0.047,-0.066 0.085,-0.135 0.13,-0.201 0.054,-0.073 0.113,-0.14 0.165,-0.215 7.081,-10.241 10.824,-21.965 10.824,-33.904 0,-34.93 -31.715,-63.713 -72.103,-66.925 l 0,-32.257 c 3.162,1.977 6.657,3.432 10.35,4.222 2.207,0.472 4.463,0.712 6.704,0.712 14.942,0 28.061,-10.618 31.192,-25.246 0.524,-2.449 0.755,-4.932 0.699,-7.398 0.806,0.061 1.612,0.092 2.417,0.092 14.943,0 28.06,-10.617 31.192,-25.247 1.395,-6.526 0.727,-13.138 -1.767,-19.051 9.581,-3.9 17.029,-12.36 19.287,-22.906 1.781,-8.338 0.212,-16.873 -4.422,-24.031 z m -27.191,34.224 c -3.115,-0.047 -5.928,1.754 -7.126,4.613 -1.198,2.858 -0.518,6.16 1.711,8.314 4.231,4.087 6.023,9.953 4.796,15.69 -1.656,7.736 -8.588,13.352 -16.483,13.352 -1.186,0 -2.383,-0.127 -3.56,-0.38 -1.952,-0.416 -3.791,-1.162 -5.466,-2.218 -2.911,-1.834 -6.692,-1.46 -9.185,0.909 -2.494,2.367 -3.065,6.124 -1.387,9.126 2.002,3.578 2.631,7.756 1.773,11.763 -1.656,7.737 -8.588,13.353 -16.483,13.353 -1.186,0 -2.383,-0.127 -3.557,-0.379 -4.569,-0.978 -8.602,-3.808 -11.065,-7.766 -2.294,-3.685 -2.994,-7.952 -1.971,-12.013 9.063,-36.002 24.718,-62.563 45.271,-76.815 13.245,-9.183 24.668,-10.535 27.488,-10.732 4.052,1.079 7.511,3.588 9.806,7.133 2.451,3.785 3.282,8.298 2.337,12.708 -1.682,7.872 -8.82,13.571 -16.899,13.342 z m -19.555,209.16 c -0.023,0.033 -0.04,0.068 -0.063,0.102 -0.026,0.033 -0.054,0.065 -0.079,0.099 l -56.286,78.427 -23.363,-32.553 13.069,0 c 4.154,0 7.521,-3.367 7.521,-7.521 0,-4.154 -3.367,-7.521 -7.521,-7.521 l -23.864,0 -16.62,-23.158 27.031,0 c 4.154,0 7.521,-3.367 7.521,-7.521 0,-4.154 -3.367,-7.521 -7.521,-7.521 l -36.772,0 c -2.67,-5.792 -4.063,-11.962 -4.063,-18.184 0,-1.678 0.108,-3.337 0.3,-4.977 l 33.083,0 c 4.154,0 7.521,-3.367 7.521,-7.521 0,-4.154 -3.367,-7.521 -7.521,-7.521 l -28.436,0 c 9.736,-18.872 32.797,-32.174 59.634,-32.174 35.611,0 64.582,23.413 64.582,52.192 0.001,8.871 -2.819,17.638 -8.153,25.352 z M 159.57,122.778 c -7.896,0 -14.828,-5.615 -16.484,-13.354 -0.858,-4.005 -0.228,-8.183 1.774,-11.763 1.677,-3.002 1.106,-6.759 -1.389,-9.126 -1.437,-1.363 -3.3,-2.065 -5.178,-2.065 -1.383,0 -2.774,0.381 -4.007,1.158 -1.675,1.056 -3.513,1.802 -5.467,2.219 -1.174,0.252 -2.371,0.379 -3.557,0.379 -7.895,0 -14.827,-5.615 -16.483,-13.352 -1.227,-5.736 0.565,-11.602 4.795,-15.69 2.229,-2.155 2.909,-5.456 1.711,-8.314 -1.199,-2.859 -4.001,-4.668 -7.126,-4.613 -8.035,0.214 -15.217,-5.47 -16.901,-13.341 -1.887,-8.82 3.519,-17.535 12.136,-19.839 2.907,0.205 14.296,1.579 27.496,10.731 20.554,14.25 36.209,40.812 45.273,76.811 1.021,4.063 0.321,8.33 -1.973,12.016 -2.463,3.957 -6.495,6.787 -11.063,7.765 -1.174,0.251 -2.371,0.378 -3.557,0.378 z"
         id="path11916"
         inkscape:connector-curvature="0" /></g></g></svg>