<?xml version="1.0" encoding="UTF-8" standalone="no"?>
<!-- Generator: Adobe Illustrator 18.0.0, SVG Export Plug-In . SVG Version: 6.00 Build 0)  -->

<svg
   xmlns:dc="http://purl.org/dc/elements/1.1/"
   xmlns:cc="http://creativecommons.org/ns#"
   xmlns:rdf="http://www.w3.org/1999/02/22-rdf-syntax-ns#"
   xmlns:svg="http://www.w3.org/2000/svg"
   xmlns="http://www.w3.org/2000/svg"
   xmlns:sodipodi="http://sodipodi.sourceforge.net/DTD/sodipodi-0.dtd"
   xmlns:inkscape="http://www.inkscape.org/namespaces/inkscape"
   version="1.1"
   id="Capa_1"
   x="0px"
   y="0px"
   viewBox="0 0 399.99999 399.99999"
   xml:space="preserve"
   inkscape:version="0.91 r13725"
   sodipodi:docname="watermelon.svg"
   width="400"
   height="400"><metadata
     id="metadata12675"><rdf:RDF><cc:Work
         rdf:about=""><dc:format>image/svg+xml</dc:format><dc:type
           rdf:resource="http://purl.org/dc/dcmitype/StillImage" /><dc:title></dc:title></cc:Work></rdf:RDF></metadata><defs
     id="defs12673" /><sodipodi:namedview
     pagecolor="#ffffff"
     bordercolor="#666666"
     borderopacity="1"
     objecttolerance="10"
     gridtolerance="10"
     guidetolerance="10"
     inkscape:pageopacity="0"
     inkscape:pageshadow="2"
     inkscape:window-width="1280"
     inkscape:window-height="666"
     id="namedview12671"
     showgrid="false"
     inkscape:zoom="0.6140716"
     inkscape:cx="192.16"
     inkscape:cy="192.16"
     inkscape:window-x="-8"
     inkscape:window-y="-8"
     inkscape:window-maximized="1"
     inkscape:current-layer="layer20" /><g
     id="g12641"
     transform="translate(0,15.679993)" /><g
     id="g12643"
     transform="translate(0,15.679993)" /><g
     id="g12645"
     transform="translate(0,15.679993)" /><g
     id="g12647"
     transform="translate(0,15.679993)" /><g
     id="g12649"
     transform="translate(0,15.679993)" /><g
     id="g12651"
     transform="translate(0,15.679993)" /><g
     id="g12653"
     transform="translate(0,15.679993)" /><g
     id="g12655"
     transform="translate(0,15.679993)" /><g
     id="g12657"
     transform="translate(0,15.679993)" /><g
     id="g12659"
     transform="translate(0,15.679993)" /><g
     id="g12661"
     transform="translate(0,15.679993)" /><g
     id="g12663"
     transform="translate(0,15.679993)" /><g
     id="g12665"
     transform="translate(0,15.679993)" /><g
     id="g12667"
     transform="translate(0,15.679993)" /><g
     id="g12669"
     transform="translate(0,15.679993)" /><g
     inkscape:groupmode="layer"
     id="layer20"
     inkscape:label="Bg"><rect
       style="fill:#ffffff;fill-opacity:1;stroke:none;stroke-width:5.00600004;stroke-linecap:butt;stroke-linejoin:miter;stroke-miterlimit:4;stroke-dasharray:none;stroke-opacity:1"
       id="rect13292"
       width="400"
       height="400"
       x="0"
       y="0" /></g><g
     inkscape:groupmode="layer"
     id="layer21"
     inkscape:label="Fruit"><g
       style=""
       id="g12495"
       transform="matrix(1.0407993,0,0,1.0016026,0,7.5320513)"><g
         id="g12497"><g
           id="g12499"><path
             style="fill:#84bd93"
             d="m 39.015,188.73 c -0.431,-0.739 -0.831,-1.499 -1.251,-2.245 0.42,0.747 0.82,1.506 1.251,2.245 z"
             id="path12501"
             inkscape:connector-curvature="0" /><path
             style="fill:#84bd93"
             d="m 28.606,167.722 c -0.411,-0.987 -0.824,-1.973 -1.218,-2.969 0.394,0.996 0.806,1.981 1.218,2.969 z"
             id="path12503"
             inkscape:connector-curvature="0" /><path
             style="fill:#84bd93"
             d="m 31.811,174.97 c -0.47,-1 -0.928,-2.006 -1.38,-3.015 0.453,1.01 0.91,2.016 1.38,3.015 z"
             id="path12505"
             inkscape:connector-curvature="0" /><path
             style="fill:#84bd93"
             d="m 35.278,181.957 c -0.498,-0.947 -0.97,-1.908 -1.451,-2.865 0.481,0.957 0.953,1.918 1.451,2.865 z"
             id="path12507"
             inkscape:connector-curvature="0" /><path
             style="fill:#84bd93"
             d="m 361.509,116.878 -4.922,0 c 0.025,0 0.042,-0.222 0.066,-0.459 -8.465,83.308 -78.99,148.669 -164.493,148.669 -85.543,0 -156.094,-65.487 -164.504,-148.851 0.028,0.277 0.047,0.641 0.076,0.641 l -4.922,0 c 1.464,36 13.049,67.349 31.868,94.183 32.501,40.007 82.041,65.77 137.482,65.77 55.44,0 104.979,-25.826 137.48,-65.831 18.819,-26.834 30.407,-58.122 31.869,-94.122 z"
             id="path12509"
             inkscape:connector-curvature="0" /><path
             style="fill:#84bd93"
             d="m 49.191,204.214 c -0.683,-0.932 -1.367,-1.863 -2.032,-2.809 0.665,0.946 1.349,1.876 2.032,2.809 z"
             id="path12511"
             inkscape:connector-curvature="0" /><path
             style="fill:#84bd93"
             d="m 44.584,197.607 c -0.57,-0.857 -1.155,-1.703 -1.711,-2.571 0.556,0.868 1.141,1.714 1.711,2.571 z"
             id="path12513"
             inkscape:connector-curvature="0" /><path
             style="fill:#84bd93"
             d="m 53.908,210.383 c -0.737,-0.92 -1.463,-1.847 -2.182,-2.782 0.719,0.934 1.445,1.862 2.182,2.782 z"
             id="path12515"
             inkscape:connector-curvature="0" /><path
             style="fill:#84bd93"
             d="m 17.091,126.573 c -0.152,-0.999 -0.304,-1.998 -0.44,-3.003 0.136,1.004 0.288,2.003 0.44,3.003 z"
             id="path12517"
             inkscape:connector-curvature="0" /><path
             style="fill:#84bd93"
             d="m 16.014,118.101 c -0.089,-0.867 -0.195,-1.728 -0.271,-2.598 0.077,0.87 0.182,1.732 0.271,2.598 z"
             id="path12519"
             inkscape:connector-curvature="0" /><path
             style="fill:#84bd93"
             d="m 25.603,160.002 c -0.311,-0.858 -0.639,-1.709 -0.937,-2.573 0.299,0.864 0.626,1.714 0.937,2.573 z"
             id="path12521"
             inkscape:connector-curvature="0" /><path
             style="fill:#84bd93"
             d="m 18.497,134.61 c -0.2,-1.001 -0.385,-2.007 -0.569,-3.013 0.184,1.006 0.369,2.012 0.569,3.013 z"
             id="path12523"
             inkscape:connector-curvature="0" /><path
             style="fill:#84bd93"
             d="m 20.234,142.425 c -0.224,-0.903 -0.42,-1.816 -0.63,-2.724 0.21,0.909 0.407,1.822 0.63,2.724 z"
             id="path12525"
             inkscape:connector-curvature="0" /><path
             style="fill:#84bd93"
             d="m 22.297,150.063 c -0.13,-0.438 -0.238,-0.886 -0.364,-1.326 0.127,0.44 0.234,0.888 0.364,1.326 z"
             id="path12527"
             inkscape:connector-curvature="0" /><path
             style="fill:#84bd93"
             d="m 355.708,167.735 c 0.414,-0.995 0.83,-1.987 1.227,-2.991 -0.397,1.003 -0.812,1.997 -1.227,2.991 z"
             id="path12529"
             inkscape:connector-curvature="0" /><path
             style="fill:#84bd93"
             d="m 358.71,160.019 c 0.314,-0.866 0.644,-1.723 0.944,-2.594 -0.3,0.871 -0.63,1.729 -0.944,2.594 z"
             id="path12531"
             inkscape:connector-curvature="0" /><path
             style="fill:#84bd93"
             d="m 345.301,188.736 c 0.438,-0.753 0.845,-1.525 1.273,-2.284 -0.428,0.76 -0.835,1.532 -1.273,2.284 z"
             id="path12533"
             inkscape:connector-curvature="0" /><path
             style="fill:#84bd93"
             d="m 352.506,174.975 c 0.472,-1.004 0.931,-2.014 1.385,-3.027 -0.454,1.013 -0.913,2.024 -1.385,3.027 z"
             id="path12535"
             inkscape:connector-curvature="0" /><path
             style="fill:#84bd93"
             d="m 349.039,181.962 c 0.5,-0.951 0.975,-1.917 1.458,-2.878 -0.483,0.96 -0.958,1.926 -1.458,2.878 z"
             id="path12537"
             inkscape:connector-curvature="0" /><path
             style="fill:#84bd93"
             d="m 339.716,197.636 c 0.578,-0.869 1.171,-1.726 1.734,-2.606 -0.563,0.88 -1.156,1.737 -1.734,2.606 z"
             id="path12539"
             inkscape:connector-curvature="0" /><path
             style="fill:#84bd93"
             d="m 330.405,210.391 c 0.742,-0.926 1.472,-1.859 2.196,-2.799 -0.723,0.94 -1.455,1.873 -2.196,2.799 z"
             id="path12541"
             inkscape:connector-curvature="0" /><path
             style="fill:#84bd93"
             d="m 335.118,204.229 c 0.689,-0.941 1.378,-1.879 2.049,-2.833 -0.67,0.954 -1.361,1.892 -2.049,2.833 z"
             id="path12543"
             inkscape:connector-curvature="0" /><path
             style="fill:#84bd93"
             d="m 362.021,150.067 c 0.133,-0.447 0.243,-0.904 0.372,-1.353 -0.129,0.448 -0.239,0.905 -0.372,1.353 z"
             id="path12545"
             inkscape:connector-curvature="0" /><path
             style="fill:#84bd93"
             d="m 368.304,118.108 c 0.09,-0.87 0.195,-1.735 0.272,-2.608 -0.076,0.873 -0.182,1.738 -0.272,2.608 z"
             id="path12547"
             inkscape:connector-curvature="0" /><path
             style="fill:#84bd93"
             d="m 27.445,114.267 c -0.199,-2.291 -0.377,-4.589 -0.481,-6.906 0.104,2.317 0.279,4.616 0.481,6.906 z"
             id="path12549"
             inkscape:connector-curvature="0" /><path
             style="fill:#84bd93"
             d="m 367.229,126.568 c 0.151,-0.997 0.303,-1.994 0.438,-2.997 -0.134,1.003 -0.286,1.999 -0.438,2.997 z"
             id="path12551"
             inkscape:connector-curvature="0" /><path
             style="fill:#84bd93"
             d="m 356.888,114.118 c 0.183,-2.083 0.337,-4.174 0.438,-6.279 -0.101,2.105 -0.259,4.195 -0.438,6.279 z"
             id="path12553"
             inkscape:connector-curvature="0" /><path
             style="fill:#84bd93"
             d="m 364.085,142.426 c 0.223,-0.902 0.42,-1.814 0.63,-2.721 -0.21,0.907 -0.407,1.819 -0.63,2.721 z"
             id="path12555"
             inkscape:connector-curvature="0" /><path
             style="fill:#84bd93"
             d="m 365.823,134.605 c 0.199,-0.997 0.384,-1.999 0.566,-3.002 -0.182,1.004 -0.366,2.005 -0.566,3.002 z"
             id="path12557"
             inkscape:connector-curvature="0" /></g><g
           id="g12559"><path
             style="fill:#ce593f"
             d="M 59.477,170.432 C 58.872,169.3 58.298,168.149 57.721,167 c 0.577,1.15 1.151,2.3 1.756,3.432 z"
             id="path12561"
             inkscape:connector-curvature="0" /><path
             style="fill:#ce593f"
             d="m 56.244,164.018 c -0.554,-1.169 -1.075,-2.357 -1.599,-3.542 0.524,1.186 1.045,2.373 1.599,3.542 z"
             id="path12563"
             inkscape:connector-curvature="0" /><path
             style="fill:#ce593f"
             d="m 50.692,150.689 c -0.451,-1.25 -0.86,-2.519 -1.278,-3.785 0.418,1.266 0.827,2.535 1.278,3.785 z"
             id="path12565"
             inkscape:connector-curvature="0" /><path
             style="fill:#ce593f"
             d="m 66.816,182.719 c -0.704,-1.061 -1.383,-2.139 -2.06,-3.218 0.676,1.079 1.356,2.157 2.06,3.218 z"
             id="path12567"
             inkscape:connector-curvature="0" /><path
             style="fill:#ce593f"
             d="m 63.003,176.667 c -0.654,-1.095 -1.28,-2.208 -1.907,-3.32 0.627,1.113 1.253,2.225 1.907,3.32 z"
             id="path12569"
             inkscape:connector-curvature="0" /><path
             style="fill:#ce593f"
             d="m 46.422,136.754 c -0.343,-1.353 -0.636,-2.726 -0.942,-4.094 0.306,1.368 0.599,2.741 0.942,4.094 z"
             id="path12571"
             inkscape:connector-curvature="0" /><path
             style="fill:#ce593f"
             d="m 82.102,202.101 c 0.86,0.925 1.729,1.841 2.612,2.744 -0.882,-0.903 -1.752,-1.819 -2.612,-2.744 z"
             id="path12573"
             inkscape:connector-curvature="0" /><path
             style="fill:#ce593f"
             d="m 165.566,126.12 c 0.158,0.057 0.317,0.11 0.476,0.166 -0.159,-0.055 -0.318,-0.109 -0.476,-0.166 z"
             id="path12575"
             inkscape:connector-curvature="0" /><path
             style="fill:#ce593f"
             d="m 161.491,124.391 c 0.097,0.048 0.194,0.097 0.292,0.144 -0.098,-0.046 -0.194,-0.096 -0.292,-0.144 z"
             id="path12577"
             inkscape:connector-curvature="0" /><path
             style="fill:#ce593f"
             d="m 209.112,147.808 c 15.795,0 29.382,-8.029 34.266,-19.468 -4.885,11.438 -18.47,19.467 -34.266,19.468 l 0,0 z"
             id="path12579"
             inkscape:connector-curvature="0" /><path
             style="fill:#ce593f"
             d="m 170.032,127.46 c 0.153,0.037 0.31,0.066 0.464,0.101 -0.154,-0.035 -0.311,-0.064 -0.464,-0.101 z"
             id="path12581"
             inkscape:connector-curvature="0" /><path
             style="fill:#ce593f"
             d="m 48.393,143.795 c -0.397,-1.297 -0.749,-2.614 -1.112,-3.925 0.363,1.311 0.715,2.627 1.112,3.925 z"
             id="path12583"
             inkscape:connector-curvature="0" /><path
             style="fill:#ce593f"
             d="m 44.789,129.582 c -0.291,-1.445 -0.527,-2.91 -0.777,-4.37 0.25,1.46 0.486,2.925 0.777,4.37 z"
             id="path12585"
             inkscape:connector-curvature="0" /><path
             style="fill:#ce593f"
             d="m 42.576,114.875 c -0.248,-2.488 -0.438,-4.993 -0.562,-7.514 0.124,2.522 0.314,5.026 0.562,7.514 z"
             id="path12587"
             inkscape:connector-curvature="0" /><path
             style="fill:#ce593f"
             d="m 70.9,188.568 c -0.751,-1.023 -1.48,-2.063 -2.205,-3.105 0.725,1.042 1.454,2.081 2.205,3.105 z"
             id="path12589"
             inkscape:connector-curvature="0" /><path
             style="fill:#ce593f"
             d="m 43.505,122.288 c -0.244,-1.621 -0.426,-3.26 -0.617,-4.898 0.19,1.638 0.373,3.277 0.617,4.898 z"
             id="path12591"
             inkscape:connector-curvature="0" /><path
             style="fill:#ce593f"
             d="m 53.312,157.433 c -0.503,-1.207 -0.967,-2.433 -1.439,-3.655 0.472,1.223 0.937,2.448 1.439,3.655 z"
             id="path12593"
             inkscape:connector-curvature="0" /><path
             style="fill:#ce593f"
             d="m 196.56,146.014 c 0.199,0.058 0.395,0.12 0.595,0.176 -0.2,-0.056 -0.397,-0.118 -0.595,-0.176 z"
             id="path12595"
             inkscape:connector-curvature="0" /><path
             style="fill:#ce593f"
             d="m 199.315,146.722 c 0.248,0.056 0.492,0.117 0.743,0.168 -0.25,-0.05 -0.495,-0.112 -0.743,-0.168 z"
             id="path12597"
             inkscape:connector-curvature="0" /><path
             style="fill:#ce593f"
             d="m 193.898,145.136 c 0.144,0.053 0.287,0.107 0.432,0.159 -0.145,-0.052 -0.288,-0.106 -0.432,-0.159 z"
             id="path12599"
             inkscape:connector-curvature="0" /><path
             style="fill:#ce593f"
             d="m 202.179,147.26 c 0.283,0.044 0.561,0.097 0.847,0.136 -0.286,-0.039 -0.564,-0.092 -0.847,-0.136 z"
             id="path12601"
             inkscape:connector-curvature="0" /><path
             style="fill:#ce593f"
             d="m 191.332,144.092 c 0.088,0.04 0.177,0.079 0.266,0.118 -0.089,-0.039 -0.178,-0.078 -0.266,-0.118 z"
             id="path12603"
             inkscape:connector-curvature="0" /><path
             style="fill:#ce593f"
             d="m 341.608,115.996 c 0.082,-0.76 0.161,-1.521 0.231,-2.284 -0.071,0.763 -0.149,1.524 -0.231,2.284 z"
             id="path12605"
             inkscape:connector-curvature="0" /><path
             style="fill:#ce593f"
             d="m 188.864,142.881 c 0.04,0.022 0.08,0.042 0.12,0.063 -0.04,-0.021 -0.08,-0.042 -0.12,-0.063 z"
             id="path12607"
             inkscape:connector-curvature="0" /><path
             style="fill:#ce593f"
             d="m 75.252,194.213 c -0.797,-0.985 -1.575,-1.986 -2.347,-2.991 0.773,1.006 1.55,2.006 2.347,2.991 z"
             id="path12609"
             inkscape:connector-curvature="0" /><path
             style="fill:#ce593f"
             d="m 205.229,147.624 c 0.273,0.023 0.541,0.06 0.816,0.078 -0.275,-0.018 -0.543,-0.055 -0.816,-0.078 z"
             id="path12611"
             inkscape:connector-curvature="0" /><path
             style="fill:#ce593f"
             d="m 179.748,135.87 c -0.168,-0.185 -0.325,-0.378 -0.488,-0.567 0.163,0.19 0.319,0.382 0.488,0.567 z"
             id="path12613"
             inkscape:connector-curvature="0" /><path
             style="fill:#ce593f"
             d="m 89.81,209.816 c -0.925,-0.862 -1.839,-1.735 -2.743,-2.619 0.903,0.884 1.817,1.757 2.743,2.619 z"
             id="path12615"
             inkscape:connector-curvature="0" /><path
             style="fill:#ce593f"
             d="m 146.768,110.401 c -0.094,-0.19 -0.191,-0.378 -0.28,-0.569 0.089,0.191 0.186,0.379 0.28,0.569 z"
             id="path12617"
             inkscape:connector-curvature="0" /><path
             style="fill:#ce593f"
             d="m 79.858,199.64 c -0.841,-0.945 -1.665,-1.903 -2.482,-2.869 0.818,0.966 1.642,1.924 2.482,2.869 z"
             id="path12619"
             inkscape:connector-curvature="0" /><path
             style="fill:#ce593f"
             d="m 282.77,116.878 c -3.69,12 -15.177,19.475 -29.364,21.234 -4.884,11.439 -18.471,20.281 -34.266,20.281 -14.303,0 -26.769,-7.515 -32.63,-15.515 l 0.003,0 c -1.746,-3 -3.371,-3.017 -4.832,-4.363 0.004,0.004 0.008,-0.334 0.012,-0.33 -10.517,-2.093 -18.839,-8.028 -23.46,-15.651 -2.282,-1.455 -5.74,-3.713 -5.74,-5.56 l 0,-0.096 -100.452,0 c 1.772,36 16.149,68.64 38.769,93.595 26.75,24.469 62.323,39.318 101.349,39.318 76.958,0 140.555,-56.913 149.276,-132.913 l -58.665,0 z m -199.298,31 c -4.154,0 -7.521,-3.846 -7.521,-8 0,-4.154 3.367,-8 7.521,-8 l 26.495,0 c 4.154,0 7.521,3.846 7.521,8 0,4.154 -3.367,8 -7.521,8 l -26.495,0 z m 62.604,33.374 -18.734,18.733 c -1.468,1.468 -3.393,2.202 -5.318,2.202 -1.925,0 -3.85,-0.735 -5.318,-2.203 -2.937,-2.937 -2.937,-7.699 10e-4,-10.636 l 18.734,-18.733 c 2.937,-2.937 7.699,-2.936 10.636,0.001 2.937,2.937 2.937,7.7 -0.001,10.636 z m 53.417,36.816 c 0,4.154 -3.846,7.52 -8,7.52 -4.154,0 -8,-3.367 -8,-7.52 l 0,-26.493 c 0,-4.154 3.846,-7.521 8,-7.521 4.154,0 8,3.367 8,7.521 l 0,26.493 z m 68.12,-18.044 c -1.469,1.468 -3.394,2.202 -5.317,2.202 -1.925,0 -3.851,-0.734 -5.318,-2.202 l -18.732,-18.732 c -2.937,-2.938 -2.937,-7.699 0,-10.637 2.938,-2.936 7.699,-2.936 10.637,0 l 18.731,18.732 c 2.937,2.938 2.937,7.699 -10e-4,10.637 z m 33.235,-52.146 -26.493,0 c -4.154,0 -7.521,-3.846 -7.521,-8 0,-4.154 3.367,-8 7.521,-8 l 26.493,0 c 4.154,0 7.521,3.846 7.521,8 0,4.154 -3.367,8 -7.521,8 z"
             id="path12621"
             inkscape:connector-curvature="0" /><path
             style="fill:#ce593f"
             d="m 148.073,112.736 c -0.056,-0.089 -0.107,-0.18 -0.162,-0.269 0.055,0.09 0.106,0.18 0.162,0.269 z"
             id="path12623"
             inkscape:connector-curvature="0" /><path
             style="fill:#ce593f"
             d="m 178.005,133.746 c -0.177,-0.236 -0.351,-0.475 -0.519,-0.715 0.168,0.241 0.341,0.479 0.519,0.715 z"
             id="path12625"
             inkscape:connector-curvature="0" /><path
             style="fill:#ce593f"
             d="m 176.447,131.42 c -0.14,-0.233 -0.287,-0.462 -0.419,-0.698 0.132,0.236 0.279,0.465 0.419,0.698 z"
             id="path12627"
             inkscape:connector-curvature="0" /></g></g><path
         style="fill:#3f2d20"
         d="m 192.16,225.589 c 4.154,0 7.521,-3.367 7.521,-7.521 l 0,-26.493 c 0,-4.154 -3.367,-7.521 -7.521,-7.521 -4.154,0 -7.521,3.367 -7.521,7.521 l 0,26.493 c 0,4.154 3.367,7.521 7.521,7.521 z"
         id="path12629"
         inkscape:connector-curvature="0" /><path
         style="fill:#3f2d20"
         d="m 117.487,140.543 c 0,-4.154 -3.367,-7.521 -7.521,-7.521 l -26.494,0 c -4.154,0 -7.521,3.367 -7.521,7.521 0,4.154 3.367,7.521 7.521,7.521 l 26.495,0 c 4.154,-0.001 7.52,-3.368 7.52,-7.521 z"
         id="path12631"
         inkscape:connector-curvature="0" /><path
         style="fill:#3f2d20"
         d="m 274.355,148.063 26.493,0 c 4.154,0 7.521,-3.367 7.521,-7.521 0,-4.154 -3.367,-7.521 -7.521,-7.521 l -26.493,0 c -4.154,0 -7.521,3.367 -7.521,7.521 0,4.154 3.367,7.521 7.521,7.521 z"
         id="path12633"
         inkscape:connector-curvature="0" /><path
         style="fill:#3f2d20"
         d="m 135.441,170.616 -18.734,18.733 c -2.938,2.937 -2.938,7.699 -10e-4,10.636 1.469,1.469 3.393,2.203 5.318,2.203 1.924,0 3.85,-0.734 5.317,-2.202 l 18.734,-18.733 c 2.938,-2.937 2.938,-7.699 0.001,-10.636 -2.936,-2.937 -7.698,-2.938 -10.635,-10e-4 z"
         id="path12635"
         inkscape:connector-curvature="0" /><path
         style="fill:#3f2d20"
         d="m 256.977,200.024 c 1.468,1.468 3.393,2.202 5.319,2.202 1.923,0 3.848,-0.734 5.317,-2.202 2.938,-2.938 2.938,-7.699 0,-10.637 l -18.731,-18.732 c -2.938,-2.936 -7.699,-2.936 -10.637,0 -2.937,2.938 -2.937,7.699 0,10.637 l 18.732,18.732 z"
         id="path12637"
         inkscape:connector-curvature="0" /><path
         style="fill:#3f2d20"
         d="m 376.799,92.32 -110.329,0 c -4.154,0 -7.521,3.367 -7.521,7.52 0,7.481 -9.689,13.801 -21.087,13.801 -0.049,-0.001 -0.173,-0.002 -0.222,-0.002 -3.758,0 -6.939,2.773 -7.45,6.496 -0.958,6.965 -10.413,12.631 -21.078,12.631 -10.664,0 -20.121,-5.667 -21.08,-12.631 -0.512,-3.722 -3.693,-6.496 -7.45,-6.496 l -0.151,0.002 c -11.469,0 -21.159,-6.32 -21.159,-13.801 0,-4.154 -3.367,-7.52 -7.521,-7.52 l -144.23,0 C 3.367,92.32 0,95.686 0,99.84 0,205.798 86.203,292 192.16,292 c 105.957,0 192.16,-86.203 192.16,-192.16 0,-4.154 -3.367,-7.52 -7.521,-7.52 z m -167.688,55.488 c 15.796,0 29.382,-8.029 34.267,-19.468 14.188,-1.759 25.674,-10.105 29.364,-20.979 l 69.567,0 c -3.929,79.418 -69.775,142.813 -150.15,142.813 -80.374,0 -146.219,-63.396 -150.147,-142.813 l 103.465,0 c 3.689,10.874 15.176,19.22 29.365,20.979 4.888,11.438 18.472,19.468 34.269,19.468 z M 192.16,265.216 c 88.667,0 161.252,-70.144 165.199,-157.855 l 11.761,0 c -3.956,94.187 -81.817,169.598 -176.96,169.598 -95.143,0 -173.004,-75.411 -176.961,-169.598 l 11.765,0 c 3.947,87.711 76.53,157.855 165.196,157.855 z"
         id="path12639"
         inkscape:connector-curvature="0" /></g></g></svg>